<?xml version="1.0" encoding="UTF-8" standalone="no"?>
<!-- Created with Inkscape (http://www.inkscape.org/) -->

<svg
   version="1.1"
   id="svg2741"
   xml:space="preserve"
   width="376"
   height="109.75999"
   viewBox="0 0 376 109.75999"
   sodipodi:docname="for_each.pdf"
   inkscape:version="1.1.1 (3bf5ae0d25, 2021-09-20)"
   xmlns:inkscape="http://www.inkscape.org/namespaces/inkscape"
   xmlns:sodipodi="http://sodipodi.sourceforge.net/DTD/sodipodi-0.dtd"
   xmlns="http://www.w3.org/2000/svg"
   xmlns:svg="http://www.w3.org/2000/svg"><defs
     id="defs2745" /><sodipodi:namedview
     id="namedview2743"
     pagecolor="#ffffff"
     bordercolor="#666666"
     borderopacity="1.0"
     inkscape:pageshadow="2"
     inkscape:pageopacity="0.0"
     inkscape:pagecheckerboard="0"
     showgrid="false"
     inkscape:zoom="1.6534091"
     inkscape:cx="351.69759"
     inkscape:cy="138.19931"
     inkscape:window-width="2502"
     inkscape:window-height="1269"
     inkscape:window-x="-8"
     inkscape:window-y="-8"
     inkscape:window-maximized="1"
     inkscape:current-layer="g2749" /><g
     id="g2747"
     inkscape:groupmode="layer"
     inkscape:label="for_each"
     transform="matrix(1.3333333,0,0,-1.3333333,-18.56,1037.44)"><g
       id="g2749"
       transform="scale(0.24)"><path
         d="m 58,3193 h 325 v 49 H 58 Z"
         style="fill:#ffffff;fill-opacity:1;fill-rule:nonzero;stroke:none"
         id="path2751" /><path
         d="m 383,3193 h 25 v 49 h -25 z"
         style="fill:#ffffff;fill-opacity:1;fill-rule:nonzero;stroke:none"
         id="path2753" /><path
         d="m 408,3193 h 150 v 49 H 408 Z"
         style="fill:#ffffff;fill-opacity:1;fill-rule:nonzero;stroke:none"
         id="path2755" /><path
         d="m 558,3193 h 25 v 49 h -25 z"
         style="fill:#ffffff;fill-opacity:1;fill-rule:nonzero;stroke:none"
         id="path2757" /><path
         d="m 583,3193 h 275 v 49 H 583 Z"
         style="fill:#ffffff;fill-opacity:1;fill-rule:nonzero;stroke:none"
         id="path2759" /><path
         d="m 858,3193 h 25 v 49 h -25 z"
         style="fill:#ffffff;fill-opacity:1;fill-rule:nonzero;stroke:none"
         id="path2761" /><path
         d="m 883,3193 h 25 v 49 h -25 z"
         style="fill:#ffffff;fill-opacity:1;fill-rule:nonzero;stroke:none"
         id="path2763" /><g
         id="g2767"
         transform="scale(4.16667)"><text
           transform="matrix(1,0,0,-1,13.92,769.44)"
           style="font-variant:normal;font-weight:normal;font-size:10.08px;font-family:'Courier New';-inkscape-font-specification:CourierNew;writing-mode:lr-tb;fill:#0000ff;fill-opacity:1;fill-rule:nonzero;stroke:none"
           id="text2771"><tspan
             x="0 6.0479999 12.096 18.143999 24.191999 30.24 36.287998 42.335999 48.383999 54.431999 60.48 66.528 72.575996"
             y="0"
             sodipodi:role="line"
             id="tspan2769">&lt;xsl:for-each</tspan></text></g><g
         id="g2773"
         transform="scale(4.16667)"><text
           transform="matrix(1,0,0,-1,97.92,769.44)"
           style="font-variant:normal;font-weight:normal;font-size:10.08px;font-family:'Courier New';-inkscape-font-specification:CourierNew;writing-mode:lr-tb;fill:#ff0000;fill-opacity:1;fill-rule:nonzero;stroke:none"
           id="text2777"><tspan
             x="0 6.0479999 12.096 18.143999 24.191999 30.24"
             y="0"
             sodipodi:role="line"
             id="tspan2775">select</tspan></text></g><g
         id="g2779"
         transform="scale(4.16667)"><text
           transform="matrix(1,0,0,-1,133.92,769.44)"
           style="font-variant:normal;font-weight:normal;font-size:10.08px;font-family:'Courier New';-inkscape-font-specification:CourierNew;writing-mode:lr-tb;fill:#000000;fill-opacity:1;fill-rule:nonzero;stroke:none"
           id="text2783"><tspan
             x="0"
             y="0"
             id="tspan2781">=</tspan></text></g><g
         id="g2785"
         transform="scale(4.16667)"><text
           transform="matrix(1,0,0,-1,139.92,769.44)"
           style="font-variant:normal;font-weight:bold;font-size:10.08px;font-family:'Courier New';-inkscape-font-specification:'CourierNew Bold';writing-mode:lr-tb;fill:#8000ff;fill-opacity:1;fill-rule:nonzero;stroke:none"
           id="text2789"><tspan
             x="0 6.0479999 12.096 18.143999 24.191999 30.24 36.287998 42.335999 48.383999 54.431999 60.48"
             y="0"
             sodipodi:role="line"
             id="tspan2787">&quot;shop/book&quot;</tspan></text></g><g
         id="g2791"
         transform="scale(4.16667)"><text
           transform="matrix(1,0,0,-1,205.92,769.44)"
           style="font-variant:normal;font-weight:normal;font-size:10.08px;font-family:'Courier New';-inkscape-font-specification:CourierNew;writing-mode:lr-tb;fill:#0000ff;fill-opacity:1;fill-rule:nonzero;stroke:none"
           id="text2795"><tspan
             x="0"
             y="0"
             id="tspan2793">&gt;</tspan></text></g><path
         d="m 58,3144 h 100 v 49 H 58 Z"
         style="fill:#ffffff;fill-opacity:1;fill-rule:nonzero;stroke:none"
         id="path2797" /><path
         d="m 158,3144 h 25 v 49 h -25 z"
         style="fill:#ffffff;fill-opacity:1;fill-rule:nonzero;stroke:none"
         id="path2799" /><g
         id="g2803"
         transform="scale(4.16667)"><text
           transform="matrix(1,0,0,-1,13.92,757.68)"
           style="font-variant:normal;font-weight:normal;font-size:10.08px;font-family:'Courier New';-inkscape-font-specification:CourierNew;writing-mode:lr-tb;fill:#0000ff;fill-opacity:1;fill-rule:nonzero;stroke:none"
           id="text2807"><tspan
             x="0 6.0479999 12.096 18.143999"
             y="0"
             sodipodi:role="line"
             id="tspan2805">&lt;tr&gt;</tspan></text></g><path
         d="m 158,3095 h 100 v 49 H 158 Z"
         style="fill:#ffffff;fill-opacity:1;fill-rule:nonzero;stroke:none"
         id="path2811" /><path
         d="m 258,3095 h 25 v 49 h -25 z"
         style="fill:#ffffff;fill-opacity:1;fill-rule:nonzero;stroke:none"
         id="path2813" /><path
         d="m 283,3095 h 325 v 49 H 283 Z"
         style="fill:#ffffff;fill-opacity:1;fill-rule:nonzero;stroke:none"
         id="path2815" /><path
         d="m 608,3095 h 25 v 49 h -25 z"
         style="fill:#ffffff;fill-opacity:1;fill-rule:nonzero;stroke:none"
         id="path2817" /><path
         d="m 633,3095 h 150 v 49 H 633 Z"
         style="fill:#ffffff;fill-opacity:1;fill-rule:nonzero;stroke:none"
         id="path2819" /><path
         d="m 783,3095 h 25 v 49 h -25 z"
         style="fill:#ffffff;fill-opacity:1;fill-rule:nonzero;stroke:none"
         id="path2821" /><path
         d="m 808,3095 h 175 v 49 H 808 Z"
         style="fill:#ffffff;fill-opacity:1;fill-rule:nonzero;stroke:none"
         id="path2823" /><path
         d="m 983,3095 h 50 v 49 h -50 z"
         style="fill:#ffffff;fill-opacity:1;fill-rule:nonzero;stroke:none"
         id="path2825" /><path
         d="m 1033,3095 h 25 v 49 h -25 z"
         style="fill:#ffffff;fill-opacity:1;fill-rule:nonzero;stroke:none"
         id="path2827" /><path
         d="m 1058,3095 h 125 v 49 h -125 z"
         style="fill:#ffffff;fill-opacity:1;fill-rule:nonzero;stroke:none"
         id="path2829" /><path
         d="m 1183,3095 h 25 v 49 h -25 z"
         style="fill:#ffffff;fill-opacity:1;fill-rule:nonzero;stroke:none"
         id="path2831" /><g
         id="g2835"
         transform="scale(4.16667)"><text
           transform="matrix(1,0,0,-1,37.92,745.92)"
           style="font-variant:normal;font-weight:normal;font-size:10.08px;font-family:'Courier New';-inkscape-font-specification:CourierNew;writing-mode:lr-tb;fill:#0000ff;fill-opacity:1;fill-rule:nonzero;stroke:none"
           id="text2839"><tspan
             x="0 6.0479999 12.096 18.143999 29.996063 36.044064 42.092064 48.140064 54.188065 60.236065 66.284065 72.332062 78.380066 84.428062 90.476067 96.524063 102.57207"
             y="0"
             sodipodi:role="line"
             id="tspan2837">&lt;td&gt;&lt;xsl:value-of</tspan></text></g><g
         id="g2841"
         transform="scale(4.16667)"><text
           transform="matrix(1,0,0,-1,151.92,745.92)"
           style="font-variant:normal;font-weight:normal;font-size:10.08px;font-family:'Courier New';-inkscape-font-specification:CourierNew;writing-mode:lr-tb;fill:#ff0000;fill-opacity:1;fill-rule:nonzero;stroke:none"
           id="text2845"><tspan
             x="0 6.0479999 12.096 18.143999 24.191999 30.24"
             y="0"
             sodipodi:role="line"
             id="tspan2843">select</tspan></text></g><g
         id="g2847"
         transform="scale(4.16667)"><text
           transform="matrix(1,0,0,-1,187.92,745.92)"
           style="font-variant:normal;font-weight:normal;font-size:10.08px;font-family:'Courier New';-inkscape-font-specification:CourierNew;writing-mode:lr-tb;fill:#000000;fill-opacity:1;fill-rule:nonzero;stroke:none"
           id="text2851"><tspan
             x="0"
             y="0"
             id="tspan2849">=</tspan></text></g><g
         id="g2853"
         transform="scale(4.16667)"><text
           transform="matrix(1,0,0,-1,193.92,745.92)"
           style="font-variant:normal;font-weight:bold;font-size:10.08px;font-family:'Courier New';-inkscape-font-specification:'CourierNew Bold';writing-mode:lr-tb;fill:#8000ff;fill-opacity:1;fill-rule:nonzero;stroke:none"
           id="text2857"><tspan
             x="0 6.0479999 12.096 18.143999 24.191999 30.24 36.287998"
             y="0"
             sodipodi:role="line"
             id="tspan2855">&quot;title&quot;</tspan></text></g><g
         id="g2859"
         transform="scale(4.16667)"><text
           transform="matrix(1,0,0,-1,235.92,745.92)"
           style="font-variant:normal;font-weight:normal;font-size:10.08px;font-family:'Courier New';-inkscape-font-specification:CourierNew;writing-mode:lr-tb;fill:#0000ff;fill-opacity:1;fill-rule:nonzero;stroke:none"
           id="text2863"><tspan
             x="0 6.0479999 17.998032 24.046032 30.094032 36.142033 42.190033"
             y="0"
             sodipodi:role="line"
             id="tspan2861">/&gt;&lt;/td&gt;</tspan></text></g><path
         d="m 158,3046 h 100 v 49 H 158 Z"
         style="fill:#ffffff;fill-opacity:1;fill-rule:nonzero;stroke:none"
         id="path2867" /><path
         d="m 258,3046 h 25 v 49 h -25 z"
         style="fill:#ffffff;fill-opacity:1;fill-rule:nonzero;stroke:none"
         id="path2869" /><path
         d="m 283,3046 h 325 v 49 H 283 Z"
         style="fill:#ffffff;fill-opacity:1;fill-rule:nonzero;stroke:none"
         id="path2871" /><path
         d="m 608,3046 h 25 v 49 h -25 z"
         style="fill:#ffffff;fill-opacity:1;fill-rule:nonzero;stroke:none"
         id="path2873" /><path
         d="m 633,3046 h 150 v 49 H 633 Z"
         style="fill:#ffffff;fill-opacity:1;fill-rule:nonzero;stroke:none"
         id="path2875" /><path
         d="m 783,3046 h 25 v 49 h -25 z"
         style="fill:#ffffff;fill-opacity:1;fill-rule:nonzero;stroke:none"
         id="path2877" /><path
         d="m 808,3046 h 200 v 49 H 808 Z"
         style="fill:#ffffff;fill-opacity:1;fill-rule:nonzero;stroke:none"
         id="path2879" /><path
         d="m 1008,3046 h 50 v 49 h -50 z"
         style="fill:#ffffff;fill-opacity:1;fill-rule:nonzero;stroke:none"
         id="path2881" /><path
         d="m 1058,3046 h 25 v 49 h -25 z"
         style="fill:#ffffff;fill-opacity:1;fill-rule:nonzero;stroke:none"
         id="path2883" /><path
         d="m 1083,3046 h 125 v 49 h -125 z"
         style="fill:#ffffff;fill-opacity:1;fill-rule:nonzero;stroke:none"
         id="path2885" /><path
         d="m 1208,3046 h 25 v 49 h -25 z"
         style="fill:#ffffff;fill-opacity:1;fill-rule:nonzero;stroke:none"
         id="path2887" /><g
         id="g2891"
         transform="scale(4.16667)"><text
           transform="matrix(1,0,0,-1,37.92,734.16)"
           style="font-variant:normal;font-weight:normal;font-size:10.08px;font-family:'Courier New';-inkscape-font-specification:CourierNew;writing-mode:lr-tb;fill:#0000ff;fill-opacity:1;fill-rule:nonzero;stroke:none"
           id="text2895"><tspan
             x="0 6.0479999 12.096 18.143999 29.996063 36.044064 42.092064 48.140064 54.188065 60.236065 66.284065 72.332062 78.380066 84.428062 90.476067 96.524063 102.57207"
             y="0"
             sodipodi:role="line"
             id="tspan2893">&lt;td&gt;&lt;xsl:value-of</tspan></text></g><g
         id="g2897"
         transform="scale(4.16667)"><text
           transform="matrix(1,0,0,-1,151.92,734.16)"
           style="font-variant:normal;font-weight:normal;font-size:10.08px;font-family:'Courier New';-inkscape-font-specification:CourierNew;writing-mode:lr-tb;fill:#ff0000;fill-opacity:1;fill-rule:nonzero;stroke:none"
           id="text2901"><tspan
             x="0 6.0479999 12.096 18.143999 24.191999 30.24"
             y="0"
             sodipodi:role="line"
             id="tspan2899">select</tspan></text></g><g
         id="g2903"
         transform="scale(4.16667)"><text
           transform="matrix(1,0,0,-1,187.92,734.16)"
           style="font-variant:normal;font-weight:normal;font-size:10.08px;font-family:'Courier New';-inkscape-font-specification:CourierNew;writing-mode:lr-tb;fill:#000000;fill-opacity:1;fill-rule:nonzero;stroke:none"
           id="text2907"><tspan
             x="0"
             y="0"
             id="tspan2905">=</tspan></text></g><g
         id="g2909"
         transform="scale(4.16667)"><text
           transform="matrix(1,0,0,-1,193.92,734.16)"
           style="font-variant:normal;font-weight:bold;font-size:10.08px;font-family:'Courier New';-inkscape-font-specification:'CourierNew Bold';writing-mode:lr-tb;fill:#8000ff;fill-opacity:1;fill-rule:nonzero;stroke:none"
           id="text2913"><tspan
             x="0 6.0479999 12.096 18.143999 24.191999 30.24 36.287998 42.335999"
             y="0"
             sodipodi:role="line"
             id="tspan2911">&quot;author&quot;</tspan></text></g><g
         id="g2915"
         transform="scale(4.16667)"><text
           transform="matrix(1,0,0,-1,241.92,734.16)"
           style="font-variant:normal;font-weight:normal;font-size:10.08px;font-family:'Courier New';-inkscape-font-specification:CourierNew;writing-mode:lr-tb;fill:#0000ff;fill-opacity:1;fill-rule:nonzero;stroke:none"
           id="text2919"><tspan
             x="0 6.0479999 17.998032 24.046032 30.094032 36.142033 42.190033"
             y="0"
             sodipodi:role="line"
             id="tspan2917">/&gt;&lt;/td&gt;</tspan></text></g><path
         d="m 158,2997 h 100 v 49 H 158 Z"
         style="fill:#ffffff;fill-opacity:1;fill-rule:nonzero;stroke:none"
         id="path2923" /><path
         d="m 258,2997 h 25 v 49 h -25 z"
         style="fill:#ffffff;fill-opacity:1;fill-rule:nonzero;stroke:none"
         id="path2925" /><path
         d="m 283,2997 h 325 v 49 H 283 Z"
         style="fill:#ffffff;fill-opacity:1;fill-rule:nonzero;stroke:none"
         id="path2927" /><path
         d="m 608,2997 h 25 v 49 h -25 z"
         style="fill:#ffffff;fill-opacity:1;fill-rule:nonzero;stroke:none"
         id="path2929" /><path
         d="m 633,2997 h 150 v 49 H 633 Z"
         style="fill:#ffffff;fill-opacity:1;fill-rule:nonzero;stroke:none"
         id="path2931" /><path
         d="m 783,2997 h 25 v 49 h -25 z"
         style="fill:#ffffff;fill-opacity:1;fill-rule:nonzero;stroke:none"
         id="path2933" /><path
         d="m 808,2997 h 150 v 49 H 808 Z"
         style="fill:#ffffff;fill-opacity:1;fill-rule:nonzero;stroke:none"
         id="path2935" /><path
         d="m 958,2997 h 50 v 49 h -50 z"
         style="fill:#ffffff;fill-opacity:1;fill-rule:nonzero;stroke:none"
         id="path2937" /><path
         d="m 1008,2997 h 25 v 49 h -25 z"
         style="fill:#ffffff;fill-opacity:1;fill-rule:nonzero;stroke:none"
         id="path2939" /><path
         d="m 1033,2997 h 125 v 49 h -125 z"
         style="fill:#ffffff;fill-opacity:1;fill-rule:nonzero;stroke:none"
         id="path2941" /><path
         d="m 1158,2997 h 25 v 49 h -25 z"
         style="fill:#ffffff;fill-opacity:1;fill-rule:nonzero;stroke:none"
         id="path2943" /><g
         id="g2947"
         transform="scale(4.16667)"><text
           transform="matrix(1,0,0,-1,37.92,722.4)"
           style="font-variant:normal;font-weight:normal;font-size:10.08px;font-family:'Courier New';-inkscape-font-specification:CourierNew;writing-mode:lr-tb;fill:#0000ff;fill-opacity:1;fill-rule:nonzero;stroke:none"
           id="text2951"><tspan
             x="0 6.0479999 12.096 18.143999 29.996063 36.044064 42.092064 48.140064 54.188065 60.236065 66.284065 72.332062 78.380066 84.428062 90.476067 96.524063 102.57207"
             y="0"
             sodipodi:role="line"
             id="tspan2949">&lt;td&gt;&lt;xsl:value-of</tspan></text></g><g
         id="g2953"
         transform="scale(4.16667)"><text
           transform="matrix(1,0,0,-1,151.92,722.4)"
           style="font-variant:normal;font-weight:normal;font-size:10.08px;font-family:'Courier New';-inkscape-font-specification:CourierNew;writing-mode:lr-tb;fill:#ff0000;fill-opacity:1;fill-rule:nonzero;stroke:none"
           id="text2957"><tspan
             x="0 6.0479999 12.096 18.143999 24.191999 30.24"
             y="0"
             sodipodi:role="line"
             id="tspan2955">select</tspan></text></g><g
         id="g2959"
         transform="scale(4.16667)"><text
           transform="matrix(1,0,0,-1,187.92,722.4)"
           style="font-variant:normal;font-weight:normal;font-size:10.08px;font-family:'Courier New';-inkscape-font-specification:CourierNew;writing-mode:lr-tb;fill:#000000;fill-opacity:1;fill-rule:nonzero;stroke:none"
           id="text2963"><tspan
             x="0"
             y="0"
             id="tspan2961">=</tspan></text></g><g
         id="g2965"
         transform="scale(4.16667)"><text
           transform="matrix(1,0,0,-1,193.92,722.4)"
           style="font-variant:normal;font-weight:bold;font-size:10.08px;font-family:'Courier New';-inkscape-font-specification:'CourierNew Bold';writing-mode:lr-tb;fill:#8000ff;fill-opacity:1;fill-rule:nonzero;stroke:none"
           id="text2969"><tspan
             x="0 6.0479999 12.096 18.143999 24.191999 30.24"
             y="0"
             sodipodi:role="line"
             id="tspan2967">&quot;ISBN&quot;</tspan></text></g><g
         id="g2971"
         transform="scale(4.16667)"><text
           transform="matrix(1,0,0,-1,229.92,722.4)"
           style="font-variant:normal;font-weight:normal;font-size:10.08px;font-family:'Courier New';-inkscape-font-specification:CourierNew;writing-mode:lr-tb;fill:#0000ff;fill-opacity:1;fill-rule:nonzero;stroke:none"
           id="text2975"><tspan
             x="0 6.0479999 17.998032 24.046032 30.094032 36.142033 42.190033"
             y="0"
             sodipodi:role="line"
             id="tspan2973">/&gt;&lt;/td&gt;</tspan></text></g><path
         d="m 58,2948 h 125 v 49 H 58 Z"
         style="fill:#ffffff;fill-opacity:1;fill-rule:nonzero;stroke:none"
         id="path2977" /><path
         d="m 183,2948 h 25 v 49 h -25 z"
         style="fill:#ffffff;fill-opacity:1;fill-rule:nonzero;stroke:none"
         id="path2979" /><g
         id="g2983"
         transform="scale(4.16667)"><text
           transform="matrix(1,0,0,-1,13.92,710.64)"
           style="font-variant:normal;font-weight:normal;font-size:10.08px;font-family:'Courier New';-inkscape-font-specification:CourierNew;writing-mode:lr-tb;fill:#0000ff;fill-opacity:1;fill-rule:nonzero;stroke:none"
           id="text2987"><tspan
             x="0 6.0479999 12.096 18.143999 24.191999"
             y="0"
             sodipodi:role="line"
             id="tspan2985">&lt;/tr&gt;</tspan></text></g><path
         d="m 58,2899 h 375 v 49 H 58 Z"
         style="fill:#ffffff;fill-opacity:1;fill-rule:nonzero;stroke:none"
         id="path2989" /><path
         d="m 433,2899 h 25 v 49 h -25 z"
         style="fill:#ffffff;fill-opacity:1;fill-rule:nonzero;stroke:none"
         id="path2991" /><g
         id="g2995"
         transform="scale(4.16667)"><text
           transform="matrix(1,0,0,-1,13.92,698.88)"
           style="font-variant:normal;font-weight:normal;font-size:10.08px;font-family:'Courier New';-inkscape-font-specification:CourierNew;writing-mode:lr-tb;fill:#0000ff;fill-opacity:1;fill-rule:nonzero;stroke:none"
           id="text2999"><tspan
             x="0 6.0479999 12.096 18.143999 24.191999 30.24 36.287998 42.335999 48.383999 54.431999 60.48 66.528 72.575996 78.624001 84.671997"
             y="0"
             sodipodi:role="line"
             id="tspan2997">&lt;/xsl:for-each&gt;</tspan></text></g></g></g></svg>
