<?xml version="1.0" encoding="UTF-8" standalone="no"?>
<!-- Created with Inkscape (http://www.inkscape.org/) -->

<svg
   version="1.1"
   id="svg545"
   xml:space="preserve"
   width="160"
   height="250.87999"
   viewBox="0 0 160 250.87999"
   sodipodi:docname="html_table.pdf"
   inkscape:version="1.1.1 (3bf5ae0d25, 2021-09-20)"
   xmlns:inkscape="http://www.inkscape.org/namespaces/inkscape"
   xmlns:sodipodi="http://sodipodi.sourceforge.net/DTD/sodipodi-0.dtd"
   xmlns="http://www.w3.org/2000/svg"
   xmlns:svg="http://www.w3.org/2000/svg"><defs
     id="defs549" /><sodipodi:namedview
     id="namedview547"
     pagecolor="#ffffff"
     bordercolor="#666666"
     borderopacity="1.0"
     inkscape:pageshadow="2"
     inkscape:pageopacity="0.0"
     inkscape:pagecheckerboard="0"
     showgrid="false"
     inkscape:zoom="0.82670455"
     inkscape:cx="390.10309"
     inkscape:cy="509.85567"
     inkscape:window-width="2502"
     inkscape:window-height="1269"
     inkscape:window-x="-8"
     inkscape:window-y="-8"
     inkscape:window-maximized="1"
     inkscape:current-layer="g553" /><g
     id="g551"
     inkscape:groupmode="layer"
     inkscape:label="html_table"
     transform="matrix(1.3333333,0,0,-1.3333333,-18.56,1037.44)"><g
       id="g553"
       transform="scale(0.24)"><path
         d="m 58,3193 h 150 v 49 H 58 Z"
         style="fill:#ffffff;fill-opacity:1;fill-rule:nonzero;stroke:none"
         id="path555" /><path
         d="m 208,3193 h 25 v 49 h -25 z"
         style="fill:#ffffff;fill-opacity:1;fill-rule:nonzero;stroke:none"
         id="path557" /><g
         id="g561"
         transform="scale(4.16667)"><text
           transform="matrix(1,0,0,-1,13.92,769.44)"
           style="font-variant:normal;font-weight:normal;font-size:10.08px;font-family:'Courier New';-inkscape-font-specification:CourierNew;writing-mode:lr-tb;fill:#0000ff;fill-opacity:1;fill-rule:nonzero;stroke:none"
           id="text565"><tspan
             x="0 6.0479999 12.096 18.143999 24.191999 30.24"
             y="0"
             sodipodi:role="line"
             id="tspan563">&lt;html&gt;</tspan></text></g><path
         d="m 58,3144 h 150 v 49 H 58 Z"
         style="fill:#ffffff;fill-opacity:1;fill-rule:nonzero;stroke:none"
         id="path567" /><path
         d="m 208,3144 h 25 v 49 h -25 z"
         style="fill:#ffffff;fill-opacity:1;fill-rule:nonzero;stroke:none"
         id="path569" /><g
         id="g573"
         transform="scale(4.16667)"><text
           transform="matrix(1,0,0,-1,13.92,757.68)"
           style="font-variant:normal;font-weight:normal;font-size:10.08px;font-family:'Courier New';-inkscape-font-specification:CourierNew;writing-mode:lr-tb;fill:#0000ff;fill-opacity:1;fill-rule:nonzero;stroke:none"
           id="text577"><tspan
             x="0 6.0479999 12.096 18.143999 24.191999 30.24"
             y="0"
             sodipodi:role="line"
             id="tspan575">&lt;body&gt;</tspan></text></g><path
         d="m 58,3095 h 175 v 49 H 58 Z"
         style="fill:#ffffff;fill-opacity:1;fill-rule:nonzero;stroke:none"
         id="path579" /><path
         d="m 233,3095 h 25 v 49 h -25 z"
         style="fill:#ffffff;fill-opacity:1;fill-rule:nonzero;stroke:none"
         id="path581" /><g
         id="g585"
         transform="scale(4.16667)"><text
           transform="matrix(1,0,0,-1,13.92,745.92)"
           style="font-variant:normal;font-weight:normal;font-size:10.08px;font-family:'Courier New';-inkscape-font-specification:CourierNew;writing-mode:lr-tb;fill:#0000ff;fill-opacity:1;fill-rule:nonzero;stroke:none"
           id="text589"><tspan
             x="0 6.0479999 12.096 18.143999 24.191999 30.24 36.287998"
             y="0"
             sodipodi:role="line"
             id="tspan587">&lt;table&gt;</tspan></text></g><path
         d="m 58,3046 h 100 v 49 H 58 Z"
         style="fill:#ffffff;fill-opacity:1;fill-rule:nonzero;stroke:none"
         id="path591" /><path
         d="m 158,3046 h 25 v 49 h -25 z"
         style="fill:#ffffff;fill-opacity:1;fill-rule:nonzero;stroke:none"
         id="path593" /><g
         id="g597"
         transform="scale(4.16667)"><text
           transform="matrix(1,0,0,-1,13.92,734.16)"
           style="font-variant:normal;font-weight:normal;font-size:10.08px;font-family:'Courier New';-inkscape-font-specification:CourierNew;writing-mode:lr-tb;fill:#0000ff;fill-opacity:1;fill-rule:nonzero;stroke:none"
           id="text601"><tspan
             x="0 6.0479999 12.096 18.143999"
             y="0"
             sodipodi:role="line"
             id="tspan599">&lt;tr&gt;</tspan></text></g><path
         d="m 58,2997 h 100 v 49 H 58 Z"
         style="fill:#ffffff;fill-opacity:1;fill-rule:nonzero;stroke:none"
         id="path603" /><path
         d="m 158,2997 h 100 v 49 H 158 Z"
         style="fill:#ffffff;fill-opacity:1;fill-rule:nonzero;stroke:none"
         id="path605" /><path
         d="m 258,2997 h 125 v 49 H 258 Z"
         style="fill:#ffffff;fill-opacity:1;fill-rule:nonzero;stroke:none"
         id="path607" /><path
         d="m 383,2997 h 125 v 49 H 383 Z"
         style="fill:#ffffff;fill-opacity:1;fill-rule:nonzero;stroke:none"
         id="path609" /><path
         d="m 508,2997 h 25 v 49 h -25 z"
         style="fill:#ffffff;fill-opacity:1;fill-rule:nonzero;stroke:none"
         id="path611" /><g
         id="g615"
         transform="scale(4.16667)"><text
           transform="matrix(1,0,0,-1,37.92,722.4)"
           style="font-variant:normal;font-weight:normal;font-size:10.08px;font-family:'Courier New';-inkscape-font-specification:CourierNew;writing-mode:lr-tb;fill:#0000ff;fill-opacity:1;fill-rule:nonzero;stroke:none"
           id="text619"><tspan
             x="0 6.0479999 12.096 18.143999"
             y="0"
             sodipodi:role="line"
             id="tspan617">&lt;td&gt;</tspan></text></g><g
         id="g621"
         transform="scale(4.16667)"><text
           transform="matrix(1,0,0,-1,61.92,722.4)"
           style="font-variant:normal;font-weight:bold;font-size:10.08px;font-family:'Courier New';-inkscape-font-specification:'CourierNew Bold';writing-mode:lr-tb;fill:#000000;fill-opacity:1;fill-rule:nonzero;stroke:none"
           id="text625"><tspan
             x="0 6.0479999 12.096 18.143999 24.191999"
             y="0"
             sodipodi:role="line"
             id="tspan623">title</tspan></text></g><g
         id="g627"
         transform="scale(4.16667)"><text
           transform="matrix(1,0,0,-1,91.92,722.4)"
           style="font-variant:normal;font-weight:normal;font-size:10.08px;font-family:'Courier New';-inkscape-font-specification:CourierNew;writing-mode:lr-tb;fill:#0000ff;fill-opacity:1;fill-rule:nonzero;stroke:none"
           id="text631"><tspan
             x="0 6.0479999 12.096 18.143999 24.191999"
             y="0"
             sodipodi:role="line"
             id="tspan629">&lt;/td&gt;</tspan></text></g><path
         d="m 58,2948 h 100 v 49 H 58 Z"
         style="fill:#ffffff;fill-opacity:1;fill-rule:nonzero;stroke:none"
         id="path633" /><path
         d="m 158,2948 h 100 v 49 H 158 Z"
         style="fill:#ffffff;fill-opacity:1;fill-rule:nonzero;stroke:none"
         id="path635" /><path
         d="m 258,2948 h 150 v 49 H 258 Z"
         style="fill:#ffffff;fill-opacity:1;fill-rule:nonzero;stroke:none"
         id="path637" /><path
         d="m 408,2948 h 125 v 49 H 408 Z"
         style="fill:#ffffff;fill-opacity:1;fill-rule:nonzero;stroke:none"
         id="path639" /><path
         d="m 533,2948 h 25 v 49 h -25 z"
         style="fill:#ffffff;fill-opacity:1;fill-rule:nonzero;stroke:none"
         id="path641" /><g
         id="g645"
         transform="scale(4.16667)"><text
           transform="matrix(1,0,0,-1,37.92,710.64)"
           style="font-variant:normal;font-weight:normal;font-size:10.08px;font-family:'Courier New';-inkscape-font-specification:CourierNew;writing-mode:lr-tb;fill:#0000ff;fill-opacity:1;fill-rule:nonzero;stroke:none"
           id="text649"><tspan
             x="0 6.0479999 12.096 18.143999"
             y="0"
             sodipodi:role="line"
             id="tspan647">&lt;td&gt;</tspan></text></g><g
         id="g651"
         transform="scale(4.16667)"><text
           transform="matrix(1,0,0,-1,61.92,710.64)"
           style="font-variant:normal;font-weight:bold;font-size:10.08px;font-family:'Courier New';-inkscape-font-specification:'CourierNew Bold';writing-mode:lr-tb;fill:#000000;fill-opacity:1;fill-rule:nonzero;stroke:none"
           id="text655"><tspan
             x="0 6.0479999 12.096 18.143999 24.191999 30.24"
             y="0"
             sodipodi:role="line"
             id="tspan653">author</tspan></text></g><g
         id="g657"
         transform="scale(4.16667)"><text
           transform="matrix(1,0,0,-1,97.92,710.64)"
           style="font-variant:normal;font-weight:normal;font-size:10.08px;font-family:'Courier New';-inkscape-font-specification:CourierNew;writing-mode:lr-tb;fill:#0000ff;fill-opacity:1;fill-rule:nonzero;stroke:none"
           id="text661"><tspan
             x="0 6.0479999 12.096 18.143999 24.191999"
             y="0"
             sodipodi:role="line"
             id="tspan659">&lt;/td&gt;</tspan></text></g><path
         d="m 58,2899 h 100 v 49 H 58 Z"
         style="fill:#ffffff;fill-opacity:1;fill-rule:nonzero;stroke:none"
         id="path663" /><path
         d="m 158,2899 h 100 v 49 H 158 Z"
         style="fill:#ffffff;fill-opacity:1;fill-rule:nonzero;stroke:none"
         id="path665" /><path
         d="m 258,2899 h 100 v 49 H 258 Z"
         style="fill:#ffffff;fill-opacity:1;fill-rule:nonzero;stroke:none"
         id="path667" /><path
         d="m 358,2899 h 125 v 49 H 358 Z"
         style="fill:#ffffff;fill-opacity:1;fill-rule:nonzero;stroke:none"
         id="path669" /><g
         id="g675"
         transform="scale(4.16667)"><text
           transform="matrix(1,0,0,-1,37.92,698.88)"
           style="font-variant:normal;font-weight:normal;font-size:10.08px;font-family:'Courier New';-inkscape-font-specification:CourierNew;writing-mode:lr-tb;fill:#0000ff;fill-opacity:1;fill-rule:nonzero;stroke:none"
           id="text679"><tspan
             x="0 6.0479999 12.096 18.143999"
             y="0"
             sodipodi:role="line"
             id="tspan677">&lt;td&gt;</tspan></text></g><g
         id="g681"
         transform="scale(4.16667)"><text
           transform="matrix(1,0,0,-1,61.92,698.88)"
           style="font-variant:normal;font-weight:bold;font-size:10.08px;font-family:'Courier New';-inkscape-font-specification:'CourierNew Bold';writing-mode:lr-tb;fill:#000000;fill-opacity:1;fill-rule:nonzero;stroke:none"
           id="text685"><tspan
             x="0 6.0479999 12.096 18.143999"
             y="0"
             sodipodi:role="line"
             id="tspan683">ISBN</tspan></text></g><g
         id="g687"
         transform="scale(4.16667)"><text
           transform="matrix(1,0,0,-1,85.92,698.88)"
           style="font-variant:normal;font-weight:normal;font-size:10.08px;font-family:'Courier New';-inkscape-font-specification:CourierNew;writing-mode:lr-tb;fill:#0000ff;fill-opacity:1;fill-rule:nonzero;stroke:none"
           id="text691"><tspan
             x="0 6.0479999 12.096 18.143999 24.191999"
             y="0"
             sodipodi:role="line"
             id="tspan689">&lt;/td&gt;</tspan></text></g><path
         d="m 58,2850 h 125 v 49 H 58 Z"
         style="fill:#ffffff;fill-opacity:1;fill-rule:nonzero;stroke:none"
         id="path693" /><path
         d="m 183,2850 h 25 v 49 h -25 z"
         style="fill:#ffffff;fill-opacity:1;fill-rule:nonzero;stroke:none"
         id="path695" /><g
         id="g699"
         transform="scale(4.16667)"><text
           transform="matrix(1,0,0,-1,13.92,687.12)"
           style="font-variant:normal;font-weight:normal;font-size:10.08px;font-family:'Courier New';-inkscape-font-specification:CourierNew;writing-mode:lr-tb;fill:#0000ff;fill-opacity:1;fill-rule:nonzero;stroke:none"
           id="text703"><tspan
             x="0 6.0479999 12.096 18.143999 24.191999"
             y="0"
             sodipodi:role="line"
             id="tspan701">&lt;/tr&gt;</tspan></text></g><path
         d="m 58,2458 h 200 v 49 H 58 Z"
         style="fill:#ffffff;fill-opacity:1;fill-rule:nonzero;stroke:none"
         id="path733" /><path
         d="m 258,2458 h 25 v 49 h -25 z"
         style="fill:#ffffff;fill-opacity:1;fill-rule:nonzero;stroke:none"
         id="path735" /><g
         id="g739"
         transform="scale(4.16667)"><text
           transform="matrix(1,0,0,-1,13.92,593.04)"
           style="font-variant:normal;font-weight:normal;font-size:10.08px;font-family:'Courier New';-inkscape-font-specification:CourierNew;writing-mode:lr-tb;fill:#0000ff;fill-opacity:1;fill-rule:nonzero;stroke:none"
           id="text743"><tspan
             x="0 6.0479999 12.096 18.143999 24.191999 30.24 36.287998 42.335999"
             y="0"
             sodipodi:role="line"
             id="tspan741">&lt;/table&gt;</tspan></text></g></g></g></svg>
