<?xml version="1.0" encoding="UTF-8" standalone="no"?>
<!-- Created with Inkscape (http://www.inkscape.org/) -->

<svg
   version="1.1"
   id="svg2"
   xml:space="preserve"
   width="368"
   height="235.2"
   viewBox="0 0 368 235.2"
   sodipodi:docname="DOM2.svg"
   inkscape:version="1.1.1 (3bf5ae0d25, 2021-09-20)"
   xmlns:inkscape="http://www.inkscape.org/namespaces/inkscape"
   xmlns:sodipodi="http://sodipodi.sourceforge.net/DTD/sodipodi-0.dtd"
   xmlns="http://www.w3.org/2000/svg"
   xmlns:svg="http://www.w3.org/2000/svg"><defs
     id="defs6" /><sodipodi:namedview
     id="namedview4"
     pagecolor="#ffffff"
     bordercolor="#666666"
     borderopacity="1.0"
     inkscape:pageshadow="2"
     inkscape:pageopacity="0.0"
     inkscape:pagecheckerboard="0"
     showgrid="false"
     inkscape:zoom="2.844697"
     inkscape:cx="178.75366"
     inkscape:cy="149.4008"
     inkscape:window-width="1862"
     inkscape:window-height="936"
     inkscape:window-x="-8"
     inkscape:window-y="-8"
     inkscape:window-maximized="1"
     inkscape:current-layer="g10" /><g
     id="g8"
     inkscape:groupmode="layer"
     inkscape:label="C__Users_Behnam_Desktop_tmp"
     transform="matrix(1.3333333,0,0,-1.3333333,-18.56,1037.44)"><g
       id="g10"
       transform="scale(0.24)"><g
         id="g18"
         transform="scale(4.16667)"><text
           transform="matrix(1,0,0,-1,13.92,769.44)"
           style="font-variant:normal;font-weight:bold;font-size:10.08px;font-family:'Courier New';-inkscape-font-specification:'CourierNew Bold';writing-mode:lr-tb;fill:#000000;fill-opacity:1;fill-rule:nonzero;stroke:none"
           id="text22"><tspan
             x="0 6.0479999 12.096 18.143999 24.191999 30.24 36.287998 42.335999 48.383999 54.431999"
             y="0"
             sodipodi:role="line"
             id="tspan20">object{1} </tspan></text></g><path
         d="m 483,3144 h 25 v 49 h -25 z"
         style="fill:#ffffff;fill-opacity:1;fill-rule:nonzero;stroke:none"
         id="path26" /><g
         id="g30"
         transform="scale(4.16667)"><text
           transform="matrix(1,0,0,-1,13.92,757.68)"
           style="font-variant:normal;font-weight:bold;font-size:10.08px;font-family:'Courier New';-inkscape-font-specification:'CourierNew Bold';writing-mode:lr-tb;fill:#000000;fill-opacity:1;fill-rule:nonzero;stroke:none"
           id="text34"><tspan
             x="0 5.995079 11.99508 17.995081 24.000004 30.000004 36 42 48.000008 54.000011 60.000015 66.000015 72.000015 78.000023 84.000023 90.000031"
             y="0"
             sodipodi:role="line"
             id="tspan32">└──mediatech{2} </tspan></text></g><path
         d="m 458,3095 h 25 v 49 h -25 z"
         style="fill:#ffffff;fill-opacity:1;fill-rule:nonzero;stroke:none"
         id="path38" /><g
         id="g42"
         transform="scale(4.16667)"><text
           transform="matrix(1,0,0,-1,37.920003,745.92)"
           style="font-variant:normal;font-weight:bold;font-size:10.08px;font-family:'Courier New';-inkscape-font-specification:'CourierNew Bold';writing-mode:lr-tb;fill:#000000;fill-opacity:1;fill-rule:nonzero;stroke:none"
           id="text46"><tspan
             x="0 5.995079 11.995076 17.995077 24.000004 30.000008 36.000011 42.000008 48.000011 54.000019 60.000023 66.000023"
             y="0"
             sodipodi:role="line"
             id="tspan44">├──movie {5}</tspan></text></g><path
         d="m 1183,3046 h 25 v 49 h -25 z"
         style="fill:#ffffff;fill-opacity:1;fill-rule:nonzero;stroke:none"
         id="path50" /><g
         id="g54"
         transform="scale(4.16667)"><text
           transform="matrix(1,0,0,-1,37.920003,734.16)"
           style="font-variant:normal;font-weight:bold;font-size:10.08px;font-family:'Courier New';-inkscape-font-specification:'CourierNew Bold';writing-mode:lr-tb;fill:#000000;fill-opacity:1;fill-rule:nonzero;stroke:none"
           id="text58"><tspan
             x="0 6.000001 30.000008 35.99509 41.995087 48.000011 54.000019 60.000023 66.000023 72.000031 78.000038 84.000038 90.000053 96.000046 102.00003 108.00003 114.00002 120.00002 125.99509 132.00002 138.00002 144.00002 150 156 162 168 174 179.99998 185.99998 191.99998 197.99998 203.99998 209.99998 216 221.99998 228 234.00002 240.00002"
             y="0"
             sodipodi:role="line"
             id="tspan56">│ ├── title : The Matrix Resurrections</tspan></text></g><path
         d="m 1008,2997 h 25 v 49 h -25 z"
         style="fill:#ffffff;fill-opacity:1;fill-rule:nonzero;stroke:none"
         id="path62" /><g
         id="g66"
         transform="scale(4.16667)"><text
           transform="matrix(1,0,0,-1,37.920003,722.4)"
           style="font-variant:normal;font-weight:bold;font-size:10.08px;font-family:'Courier New';-inkscape-font-specification:'CourierNew Bold';writing-mode:lr-tb;fill:#000000;fill-opacity:1;fill-rule:nonzero;stroke:none"
           id="text70"><tspan
             x="0 6.000001 30.000008 35.99509 41.995087 48.000011 54.000019 60.000023 66.000023 72.000031 78.000038 84.000038 90.000053 96.000046 102.00003 108.00003 114.00002 120.00002 126.00002 132.00002 138.00002 144.00002 149.99509 156 162 168 174 179.99507 185.99998 191.99998 197.99998"
             y="0"
             sodipodi:role="line"
             id="tspan68">│ ├── director : Lana Wachowski</tspan></text></g><path
         d="m 658,2948 h 25 v 49 h -25 z"
         style="fill:#ffffff;fill-opacity:1;fill-rule:nonzero;stroke:none"
         id="path74" /><g
         id="g78"
         transform="scale(4.16667)"><text
           transform="matrix(1,0,0,-1,37.920003,710.64)"
           style="font-variant:normal;font-weight:bold;font-size:10.08px;font-family:'Courier New';-inkscape-font-specification:'CourierNew Bold';writing-mode:lr-tb;fill:#000000;fill-opacity:1;fill-rule:nonzero;stroke:none"
           id="text82"><tspan
             x="0 6.000001 30.000008 35.99509 41.995087 48.000011 54.000019 60.000023 66.000023 72.000031 78.000038 84.000038 90.000053 96.000046 102.00003 108.00003 114.00002"
             y="0"
             sodipodi:role="line"
             id="tspan80">│ ├── year : 2021</tspan></text></g><path
         d="m 758,2899 h 25 v 49 h -25 z"
         style="fill:#ffffff;fill-opacity:1;fill-rule:nonzero;stroke:none"
         id="path86" /><g
         id="g90"
         transform="scale(4.16667)"><text
           transform="matrix(1,0,0,-1,37.920003,698.88)"
           style="font-variant:normal;font-weight:bold;font-size:10.08px;font-family:'Courier New';-inkscape-font-specification:'CourierNew Bold';writing-mode:lr-tb;fill:#000000;fill-opacity:1;fill-rule:nonzero;stroke:none"
           id="text94"><tspan
             x="0 6.000001 30.000008 35.99509 41.995087 48.000011 54.000019 60.000023 66.000023 72.000031 78.000038 84.000038 90.000053 96.000046 102.00003 108.00003 114.00002 120.00002 126.00002 132.00002 137.99509"
             y="0"
             sodipodi:role="line"
             id="tspan92">│ ├── length : 2h 28m</tspan></text></g><path
         d="m 808,2850 h 25 v 49 h -25 z"
         style="fill:#ffffff;fill-opacity:1;fill-rule:nonzero;stroke:none"
         id="path98" /><g
         id="g102"
         transform="scale(4.16667)"><text
           transform="matrix(1,0,0,-1,37.920003,687.12)"
           style="font-variant:normal;font-weight:bold;font-size:10.08px;font-family:'Courier New';-inkscape-font-specification:'CourierNew Bold';writing-mode:lr-tb;fill:#000000;fill-opacity:1;fill-rule:nonzero;stroke:none"
           id="text106"><tspan
             x="0 6.000001 30.000008 35.99509 41.995087 47.99509 54.000019 60.000023 66.000023 72.000031 78.000038 84.000038 90.000053 96.000046 102.00003 108.00003 114.00002 120.00002 126.00002 132.00002 138.00002 144.00002 150"
             y="0"
             sodipodi:role="line"
             id="tspan104">│ └──_category : sci-fi</tspan></text></g><path
         d="m 183,2801 h 25 v 49 h -25 z"
         style="fill:#ffffff;fill-opacity:1;fill-rule:nonzero;stroke:none"
         id="path110" /><g
         id="g114"
         transform="scale(4.16667)"><text
           transform="matrix(1,0,0,-1,37.920003,675.36)"
           style="font-variant:normal;font-weight:bold;font-size:10.08px;font-family:'Courier New';-inkscape-font-specification:'CourierNew Bold';writing-mode:lr-tb;fill:#000000;fill-opacity:1;fill-rule:nonzero;stroke:none"
           id="text118"><tspan
             x="0"
             y="0"
             id="tspan116">│</tspan></text></g><path
         d="m 433,2752 h 25 v 49 h -25 z"
         style="fill:#ffffff;fill-opacity:1;fill-rule:nonzero;stroke:none"
         id="path122" /><g
         id="g126"
         transform="scale(4.16667)"><text
           transform="matrix(1,0,0,-1,37.920003,663.6)"
           style="font-variant:normal;font-weight:bold;font-size:10.08px;font-family:'Courier New';-inkscape-font-specification:'CourierNew Bold';writing-mode:lr-tb;fill:#000000;fill-opacity:1;fill-rule:nonzero;stroke:none"
           id="text130"><tspan
             x="0 5.995079 11.995076 17.995077 24.000004 30.000008 36.000011 42.000008 48.000011 54.000019 60.000023"
             y="0"
             sodipodi:role="line"
             id="tspan128">└──book {5}</tspan></text></g><path
         d="m 883,2703 h 25 v 49 h -25 z"
         style="fill:#ffffff;fill-opacity:1;fill-rule:nonzero;stroke:none"
         id="path134" /><g
         id="g138"
         transform="scale(4.16667)"><text
           transform="matrix(1,0,0,-1,61.920006,651.84)"
           style="font-variant:normal;font-weight:bold;font-size:10.08px;font-family:'Courier New';-inkscape-font-specification:'CourierNew Bold';writing-mode:lr-tb;fill:#000000;fill-opacity:1;fill-rule:nonzero;stroke:none"
           id="text142"><tspan
             x="0 5.9950824 11.995087 18.000006 24.00001 30.000015 36.000019 42.000023 48.000027 54.000031 60.000038 66.000046 72.000046 77.99511 84.000023 90.000023 96.000015 102.00002 108.00002 114.00001 120.00001 126.00001 132 138 144"
             y="0"
             sodipodi:role="line"
             id="tspan140">├── title : UML distilled</tspan></text></g><path
         d="m 908,2654 h 25 v 49 h -25 z"
         style="fill:#ffffff;fill-opacity:1;fill-rule:nonzero;stroke:none"
         id="path146" /><g
         id="g150"
         transform="scale(4.16667)"><text
           transform="matrix(1,0,0,-1,61.920006,640.08)"
           style="font-variant:normal;font-weight:bold;font-size:10.08px;font-family:'Courier New';-inkscape-font-specification:'CourierNew Bold';writing-mode:lr-tb;fill:#000000;fill-opacity:1;fill-rule:nonzero;stroke:none"
           id="text154"><tspan
             x="0 5.9950824 11.995087 18.000006 24.00001 30.000015 36.000019 42.000023 48.000027 54.000031 60.000038 66.000046 72.000046 77.99511 84.000023 90.000023 96.000015 102.00002 108.00002 114.00001 120.00001 126.00001 131.99509 138 144 149.99998"
             y="0"
             sodipodi:role="line"
             id="tspan152">├── author : Martin Fowler</tspan></text></g><path
         d="m 633,2605 h 25 v 49 h -25 z"
         style="fill:#ffffff;fill-opacity:1;fill-rule:nonzero;stroke:none"
         id="path158" /><g
         id="g162"
         transform="scale(4.16667)"><text
           transform="matrix(1,0,0,-1,61.920006,628.32)"
           style="font-variant:normal;font-weight:bold;font-size:10.08px;font-family:'Courier New';-inkscape-font-specification:'CourierNew Bold';writing-mode:lr-tb;fill:#000000;fill-opacity:1;fill-rule:nonzero;stroke:none"
           id="text166"><tspan
             x="0 5.9950824 11.995087 18.000006 24.00001 30.000015 36.000019 42.000023 48.000027 54.000031 60.000038 66.000046 72.000046 78.000031 84.000023"
             y="0"
             sodipodi:role="line"
             id="tspan164">├── year : 1997</tspan></text></g><path
         d="m 708,2556 h 25 v 49 h -25 z"
         style="fill:#ffffff;fill-opacity:1;fill-rule:nonzero;stroke:none"
         id="path170" /><g
         id="g174"
         transform="scale(4.16667)"><text
           transform="matrix(1,0,0,-1,61.920006,616.56)"
           style="font-variant:normal;font-weight:bold;font-size:10.08px;font-family:'Courier New';-inkscape-font-specification:'CourierNew Bold';writing-mode:lr-tb;fill:#000000;fill-opacity:1;fill-rule:nonzero;stroke:none"
           id="text178"><tspan
             x="0 5.9950824 11.995087 18.000006 23.995089 30.000015 36.000019 42.000023 48.000027 54.000031 60.000038 66.000046 72.000046 78.000031 84.000023 90.000023 96.000015 102.00002"
             y="0"
             sodipodi:role="line"
             id="tspan176">├── price : 69.420</tspan></text></g><path
         d="m 683,2507 h 25 v 49 h -25 z"
         style="fill:#ffffff;fill-opacity:1;fill-rule:nonzero;stroke:none"
         id="path182" /><g
         id="g186"
         transform="scale(4.16667)"><text
           transform="matrix(1,0,0,-1,61.920006,604.8)"
           style="font-variant:normal;font-weight:bold;font-size:10.08px;font-family:'Courier New';-inkscape-font-specification:'CourierNew Bold';writing-mode:lr-tb;fill:#000000;fill-opacity:1;fill-rule:nonzero;stroke:none"
           id="text190"><tspan
             x="0 5.9950824 11.995087 17.995085 24.00001 30.000015 36.000019 42.000023 48.000027 54.000031 60.000038 66.000046 72.000046 78.000031 84.000023 90.000023 96.000015"
             y="0"
             sodipodi:role="line"
             id="tspan188">└──_category : IT</tspan></text></g></g></g></svg>
