<?xml version="1.0" encoding="UTF-8" standalone="no"?>
<!-- Created with Inkscape (http://www.inkscape.org/) -->

<svg
   version="1.1"
   id="svg9"
   xml:space="preserve"
   width="472"
   height="172.48"
   viewBox="0 0 472 172.48"
   sodipodi:docname="prefix_namespace3.svg"
   inkscape:version="1.1.1 (3bf5ae0d25, 2021-09-20)"
   xmlns:inkscape="http://www.inkscape.org/namespaces/inkscape"
   xmlns:sodipodi="http://sodipodi.sourceforge.net/DTD/sodipodi-0.dtd"
   xmlns="http://www.w3.org/2000/svg"
   xmlns:svg="http://www.w3.org/2000/svg"><defs
     id="defs13" /><sodipodi:namedview
     id="namedview11"
     pagecolor="#ffffff"
     bordercolor="#666666"
     borderopacity="1.0"
     inkscape:pageshadow="2"
     inkscape:pageopacity="0.0"
     inkscape:pagecheckerboard="0"
     showgrid="false"
     inkscape:zoom="1.3787879"
     inkscape:cx="483.3956"
     inkscape:cy="-15.956044"
     inkscape:window-width="1862"
     inkscape:window-height="936"
     inkscape:window-x="-8"
     inkscape:window-y="-8"
     inkscape:window-maximized="1"
     inkscape:current-layer="g17" /><g
     id="g15"
     inkscape:groupmode="layer"
     inkscape:label="C__Users_Behnam_Desktop_tmp"
     transform="matrix(1.3333333,0,0,-1.3333333,-18.56,1037.44)"><g
       id="g17"
       transform="scale(0.24)"><path
         d="m 58,3193 h 150 v 49 H 58 Z"
         style="fill:#ffffff;fill-opacity:1;fill-rule:nonzero;stroke:none"
         id="path19" /><g
         id="g25"
         transform="scale(4.16667)"><text
           transform="matrix(1,0,0,-1,13.92,769.44)"
           style="font-variant:normal;font-weight:normal;font-size:10.08px;font-family:'Courier New';-inkscape-font-specification:CourierNew;writing-mode:lr-tb;fill:#0000ff;fill-opacity:1;fill-rule:nonzero;stroke:none"
           id="text29"><tspan
             x="0 6.0479999 12.096 18.143999 24.191999 30.24"
             y="0"
             sodipodi:role="line"
             id="tspan27">&lt;root&gt;</tspan></text></g><path
         d="m 58,3144 h 250 v 49 H 58 Z"
         style="fill:#ffffff;fill-opacity:1;fill-rule:nonzero;stroke:none"
         id="path31" /><path
         d="m 308,3144 h 25 v 49 h -25 z"
         style="fill:#ffffff;fill-opacity:1;fill-rule:nonzero;stroke:none"
         id="path33" /><path
         d="m 333,3144 h 175 v 49 H 333 Z"
         style="fill:#ffffff;fill-opacity:1;fill-rule:nonzero;stroke:none"
         id="path35" /><path
         d="m 508,3144 h 25 v 49 h -25 z"
         style="fill:#ffffff;fill-opacity:1;fill-rule:nonzero;stroke:none"
         id="path37" /><path
         d="m 533,3144 h 975 v 49 H 533 Z"
         style="fill:#ffffff;fill-opacity:1;fill-rule:nonzero;stroke:none"
         id="path39" /><path
         d="m 1508,3144 h 25 v 49 h -25 z"
         style="fill:#ffffff;fill-opacity:1;fill-rule:nonzero;stroke:none"
         id="path41" /><g
         id="g47"
         transform="scale(4.16667)"><text
           transform="matrix(1,0,0,-1,13.92,757.68)"
           style="font-variant:normal;font-weight:normal;font-size:10.08px;font-family:'Courier New';-inkscape-font-specification:CourierNew;writing-mode:lr-tb;fill:#0000ff;fill-opacity:1;fill-rule:nonzero;stroke:none"
           id="text51"><tspan
             x="0 6.0479999 12.096 18.143999 24.191999 30.24 36.287998 42.335999 48.383999 54.431999"
             y="0"
             sodipodi:role="line"
             id="tspan49">&lt;s:library</tspan></text></g><g
         id="g53"
         transform="scale(4.16667)"><text
           transform="matrix(1,0,0,-1,79.92,757.68)"
           style="font-variant:normal;font-weight:normal;font-size:10.08px;font-family:'Courier New';-inkscape-font-specification:CourierNew;writing-mode:lr-tb;fill:#ff0000;fill-opacity:1;fill-rule:nonzero;stroke:none"
           id="text57"><tspan
             x="0 6.0479999 12.096 18.143999 24.191999 30.24 36.287998"
             y="0"
             sodipodi:role="line"
             id="tspan55">xmlns:s</tspan></text></g><g
         id="g59"
         transform="scale(4.16667)"><text
           transform="matrix(1,0,0,-1,121.92,757.68)"
           style="font-variant:normal;font-weight:normal;font-size:10.08px;font-family:'Courier New';-inkscape-font-specification:CourierNew;writing-mode:lr-tb;fill:#000000;fill-opacity:1;fill-rule:nonzero;stroke:none"
           id="text63"><tspan
             x="0"
             y="0"
             id="tspan61">=</tspan></text></g><g
         id="g65"
         transform="scale(4.16667)"><text
           transform="matrix(1,0,0,-1,127.92,757.68)"
           style="font-variant:normal;font-weight:bold;font-size:10.08px;font-family:'Courier New';-inkscape-font-specification:'CourierNew Bold';writing-mode:lr-tb;fill:#8000ff;fill-opacity:1;fill-rule:nonzero;stroke:none"
           id="text69"><tspan
             x="0 5.9990158 12.047015 18.095016 24.143015 30.191015 36.239017 42.287014 48.335014 54.383015 60.431015 66.479019 72.527016 78.575012 84.623016 90.671013 96.719017 102.76701 108.81502 114.86301 120.91102 126.95901 133.00702 139.05502 145.10301 151.15102 157.19902 163.24701 169.29501 175.34302 181.39102 187.43901 193.48701 199.53502 205.58302 211.63101 217.67902 223.72702 227.96262"
             y="0"
             sodipodi:role="line"
             id="tspan67">&quot;http://exmple.com/software-libraries/&quot;</tspan></text></g><g
         id="g71"
         transform="scale(4.16667)"><text
           transform="matrix(1,0,0,-1,361.92,757.68)"
           style="font-variant:normal;font-weight:normal;font-size:10.08px;font-family:'Courier New';-inkscape-font-specification:CourierNew;writing-mode:lr-tb;fill:#0000ff;fill-opacity:1;fill-rule:nonzero;stroke:none"
           id="text75"><tspan
             x="0"
             y="0"
             id="tspan73">&gt;</tspan></text></g><path
         d="m 558,3156 h 925"
         style="fill:none;stroke:#010000;stroke-width:1;stroke-linecap:round;stroke-linejoin:round;stroke-miterlimit:10;stroke-dasharray:none;stroke-opacity:1"
         id="path77" /><path
         d="m 158,3095 h 200 v 49 H 158 Z"
         style="fill:#ffffff;fill-opacity:1;fill-rule:nonzero;stroke:none"
         id="path81" /><path
         d="m 358,3095 h 150 v 49 H 358 Z"
         style="fill:#ffffff;fill-opacity:1;fill-rule:nonzero;stroke:none"
         id="path83" /><path
         d="m 508,3095 h 225 v 49 H 508 Z"
         style="fill:#ffffff;fill-opacity:1;fill-rule:nonzero;stroke:none"
         id="path85" /><g
         id="g91"
         transform="scale(4.16667)"><text
           transform="matrix(1,0,0,-1,37.92,745.92)"
           style="font-variant:normal;font-weight:normal;font-size:10.08px;font-family:'Courier New';-inkscape-font-specification:CourierNew;writing-mode:lr-tb;fill:#0000ff;fill-opacity:1;fill-rule:nonzero;stroke:none"
           id="text95"><tspan
             x="0 6.0479999 12.096 18.143999 24.191999 30.24 36.287998 42.335999"
             y="0"
             sodipodi:role="line"
             id="tspan93">&lt;s:name&gt;</tspan></text></g><g
         id="g97"
         transform="scale(4.16667)"><text
           transform="matrix(1,0,0,-1,85.92,745.92)"
           style="font-variant:normal;font-weight:bold;font-size:10.08px;font-family:'Courier New';-inkscape-font-specification:'CourierNew Bold';writing-mode:lr-tb;fill:#000000;fill-opacity:1;fill-rule:nonzero;stroke:none"
           id="text101"><tspan
             x="0 6.0479999 12.096 18.143999 24.191999 30.24"
             y="0"
             sodipodi:role="line"
             id="tspan99">OpenCV</tspan></text></g><g
         id="g103"
         transform="scale(4.16667)"><text
           transform="matrix(1,0,0,-1,121.92,745.92)"
           style="font-variant:normal;font-weight:normal;font-size:10.08px;font-family:'Courier New';-inkscape-font-specification:CourierNew;writing-mode:lr-tb;fill:#0000ff;fill-opacity:1;fill-rule:nonzero;stroke:none"
           id="text107"><tspan
             x="0 6.0479999 12.096 18.143999 24.191999 30.24 36.287998 42.335999 48.383999"
             y="0"
             sodipodi:role="line"
             id="tspan105">&lt;/s:name&gt;</tspan></text></g><path
         d="m 158,3046 h 300 v 49 H 158 Z"
         style="fill:#ffffff;fill-opacity:1;fill-rule:nonzero;stroke:none"
         id="path111" /><path
         d="m 458,3046 h 75 v 49 h -75 z"
         style="fill:#ffffff;fill-opacity:1;fill-rule:nonzero;stroke:none"
         id="path113" /><path
         d="m 533,3046 h 325 v 49 H 533 Z"
         style="fill:#ffffff;fill-opacity:1;fill-rule:nonzero;stroke:none"
         id="path115" /><path
         d="m 858,3046 h 25 v 49 h -25 z"
         style="fill:#ffffff;fill-opacity:1;fill-rule:nonzero;stroke:none"
         id="path117" /><g
         id="g121"
         transform="scale(4.16667)"><text
           transform="matrix(1,0,0,-1,37.92,734.16)"
           style="font-variant:normal;font-weight:normal;font-size:10.08px;font-family:'Courier New';-inkscape-font-specification:CourierNew;writing-mode:lr-tb;fill:#0000ff;fill-opacity:1;fill-rule:nonzero;stroke:none"
           id="text125"><tspan
             x="0 6.0479999 12.096 18.143999 24.191999 30.24 36.287998 42.335999 48.383999 54.431999 60.48 66.528"
             y="0"
             sodipodi:role="line"
             id="tspan123">&lt;s:language&gt;</tspan></text></g><g
         id="g127"
         transform="scale(4.16667)"><text
           transform="matrix(1,0,0,-1,109.92,734.16)"
           style="font-variant:normal;font-weight:bold;font-size:10.08px;font-family:'Courier New';-inkscape-font-specification:'CourierNew Bold';writing-mode:lr-tb;fill:#000000;fill-opacity:1;fill-rule:nonzero;stroke:none"
           id="text131"><tspan
             x="0 6.0479999 12.096"
             y="0"
             sodipodi:role="line"
             id="tspan129">C++</tspan></text></g><g
         id="g133"
         transform="scale(4.16667)"><text
           transform="matrix(1,0,0,-1,127.92,734.16)"
           style="font-variant:normal;font-weight:normal;font-size:10.08px;font-family:'Courier New';-inkscape-font-specification:CourierNew;writing-mode:lr-tb;fill:#0000ff;fill-opacity:1;fill-rule:nonzero;stroke:none"
           id="text137"><tspan
             x="0 6.0479999 12.096 18.143999 24.191999 30.24 36.287998 42.335999 48.383999 54.431999 60.48 66.528 72.575996"
             y="0"
             sodipodi:role="line"
             id="tspan135">&lt;/s:language&gt;</tspan></text></g><path
         d="m 58,2997 h 300 v 49 H 58 Z"
         style="fill:#ffffff;fill-opacity:1;fill-rule:nonzero;stroke:none"
         id="path139" /><path
         d="m 358,2997 h 25 v 49 h -25 z"
         style="fill:#ffffff;fill-opacity:1;fill-rule:nonzero;stroke:none"
         id="path141" /><g
         id="g145"
         transform="scale(4.16667)"><text
           transform="matrix(1,0,0,-1,13.92,722.4)"
           style="font-variant:normal;font-weight:normal;font-size:10.08px;font-family:'Courier New';-inkscape-font-specification:CourierNew;writing-mode:lr-tb;fill:#0000ff;fill-opacity:1;fill-rule:nonzero;stroke:none"
           id="text149"><tspan
             x="0 6.0479999 12.096 18.143999 24.191999 30.24 36.287998 42.335999 48.383999 54.431999 60.48 66.528"
             y="0"
             sodipodi:role="line"
             id="tspan147">&lt;/s:library&gt;</tspan></text></g><path
         d="m 58,2899 h 250 v 49 H 58 Z"
         style="fill:#ffffff;fill-opacity:1;fill-rule:nonzero;stroke:none"
         id="path155" /><path
         d="m 308,2899 h 25 v 49 h -25 z"
         style="fill:#ffffff;fill-opacity:1;fill-rule:nonzero;stroke:none"
         id="path157" /><path
         d="m 333,2899 h 175 v 49 H 333 Z"
         style="fill:#ffffff;fill-opacity:1;fill-rule:nonzero;stroke:none"
         id="path159" /><path
         d="m 508,2899 h 25 v 49 h -25 z"
         style="fill:#ffffff;fill-opacity:1;fill-rule:nonzero;stroke:none"
         id="path161" /><path
         d="m 533,2899 h 950 v 49 H 533 Z"
         style="fill:#ffffff;fill-opacity:1;fill-rule:nonzero;stroke:none"
         id="path163" /><path
         d="m 1483,2899 h 25 v 49 h -25 z"
         style="fill:#ffffff;fill-opacity:1;fill-rule:nonzero;stroke:none"
         id="path165" /><path
         d="m 1508,2899 h 25 v 49 h -25 z"
         style="fill:#ffffff;fill-opacity:1;fill-rule:nonzero;stroke:none"
         id="path167" /><g
         id="g173"
         transform="scale(4.16667)"><text
           transform="matrix(1,0,0,-1,13.92,698.88)"
           style="font-variant:normal;font-weight:normal;font-size:10.08px;font-family:'Courier New';-inkscape-font-specification:CourierNew;writing-mode:lr-tb;fill:#0000ff;fill-opacity:1;fill-rule:nonzero;stroke:none"
           id="text177"><tspan
             x="0 6.0479999 12.096 18.143999 24.191999 30.24 36.287998 42.335999 48.383999 54.431999"
             y="0"
             sodipodi:role="line"
             id="tspan175">&lt;p:library</tspan></text></g><g
         id="g179"
         transform="scale(4.16667)"><text
           transform="matrix(1,0,0,-1,79.92,698.88)"
           style="font-variant:normal;font-weight:normal;font-size:10.08px;font-family:'Courier New';-inkscape-font-specification:CourierNew;writing-mode:lr-tb;fill:#ff0000;fill-opacity:1;fill-rule:nonzero;stroke:none"
           id="text183"><tspan
             x="0 6.0479999 12.096 18.143999 24.191999 30.24 36.287998"
             y="0"
             sodipodi:role="line"
             id="tspan181">xmlns:p</tspan></text></g><g
         id="g185"
         transform="scale(4.16667)"><text
           transform="matrix(1,0,0,-1,121.92,698.88)"
           style="font-variant:normal;font-weight:normal;font-size:10.08px;font-family:'Courier New';-inkscape-font-specification:CourierNew;writing-mode:lr-tb;fill:#000000;fill-opacity:1;fill-rule:nonzero;stroke:none"
           id="text189"><tspan
             x="0"
             y="0"
             id="tspan187">=</tspan></text></g><g
         id="g191"
         transform="scale(4.16667)"><text
           transform="matrix(1,0,0,-1,127.92,698.88)"
           style="font-variant:normal;font-weight:bold;font-size:10.08px;font-family:'Courier New';-inkscape-font-specification:'CourierNew Bold';writing-mode:lr-tb;fill:#8000ff;fill-opacity:1;fill-rule:nonzero;stroke:none"
           id="text195"><tspan
             x="0 5.9990158 12.047015 18.095016 24.143015 30.191015 36.239017 42.287014 48.335014 54.383015 60.431015 66.479019 72.527016 78.575012 84.623016 90.671013 96.719017 102.76701 108.81502 114.86301 120.91102 126.95901 133.00702 139.05502 145.10301 151.15102 157.19902 163.24701 169.29501 175.34302 181.39102 187.43901 193.48701 199.53502 205.58302 211.63101 217.67902 221.96361"
             y="0"
             sodipodi:role="line"
             id="tspan193">&quot;http://exmple.com/physical-libraries&quot;</tspan></text></g><g
         id="g197"
         transform="scale(4.16667)"><text
           transform="matrix(1,0,0,-1,361.92,698.88)"
           style="font-variant:normal;font-weight:normal;font-size:10.08px;font-family:'Courier New';-inkscape-font-specification:CourierNew;writing-mode:lr-tb;fill:#0000ff;fill-opacity:1;fill-rule:nonzero;stroke:none"
           id="text201"><tspan
             x="0"
             y="0"
             id="tspan199">&gt;</tspan></text></g><path
         d="m 558,2911 h 900"
         style="fill:none;stroke:#010000;stroke-width:1;stroke-linecap:round;stroke-linejoin:round;stroke-miterlimit:10;stroke-dasharray:none;stroke-opacity:1"
         id="path203" /><path
         d="m 158,2850 h 200 v 49 H 158 Z"
         style="fill:#ffffff;fill-opacity:1;fill-rule:nonzero;stroke:none"
         id="path207" /><path
         d="m 358,2850 h 575 v 49 H 358 Z"
         style="fill:#ffffff;fill-opacity:1;fill-rule:nonzero;stroke:none"
         id="path209" /><path
         d="m 933,2850 h 225 v 49 H 933 Z"
         style="fill:#ffffff;fill-opacity:1;fill-rule:nonzero;stroke:none"
         id="path211" /><g
         id="g217"
         transform="scale(4.16667)"><text
           transform="matrix(1,0,0,-1,37.92,687.12)"
           style="font-variant:normal;font-weight:normal;font-size:10.08px;font-family:'Courier New';-inkscape-font-specification:CourierNew;writing-mode:lr-tb;fill:#0000ff;fill-opacity:1;fill-rule:nonzero;stroke:none"
           id="text221"><tspan
             x="0 6.0479999 12.096 18.143999 24.191999 30.24 36.287998 42.335999"
             y="0"
             sodipodi:role="line"
             id="tspan219">&lt;p:name&gt;</tspan></text></g><g
         id="g223"
         transform="scale(4.16667)"><text
           transform="matrix(1,0,0,-1,85.92,687.12)"
           style="font-variant:normal;font-weight:bold;font-size:10.08px;font-family:'Courier New';-inkscape-font-specification:'CourierNew Bold';writing-mode:lr-tb;fill:#000000;fill-opacity:1;fill-rule:nonzero;stroke:none"
           id="text227"><tspan
             x="0 6.0479999 12.096 18.143999 24.191999 30.24 36.287998 42.335999 48.383999 54.431999 60.48 66.528 72.575996 78.624001 84.671997 90.720001 96.767998 102.816 108.864 114.912 120.96 127.008 133.056"
             y="0"
             sodipodi:role="line"
             id="tspan225">City Media-tech Library</tspan></text></g><g
         id="g229"
         transform="scale(4.16667)"><text
           transform="matrix(1,0,0,-1,223.92,687.12)"
           style="font-variant:normal;font-weight:normal;font-size:10.08px;font-family:'Courier New';-inkscape-font-specification:CourierNew;writing-mode:lr-tb;fill:#0000ff;fill-opacity:1;fill-rule:nonzero;stroke:none"
           id="text233"><tspan
             x="0 6.0479999 12.096 18.143999 24.191999 30.24 36.287998 42.335999 48.383999"
             y="0"
             sodipodi:role="line"
             id="tspan231">&lt;/p:name&gt;</tspan></text></g><path
         d="m 158,2801 h 200 v 49 H 158 Z"
         style="fill:#ffffff;fill-opacity:1;fill-rule:nonzero;stroke:none"
         id="path237" /><path
         d="m 358,2801 h 150 v 49 H 358 Z"
         style="fill:#ffffff;fill-opacity:1;fill-rule:nonzero;stroke:none"
         id="path239" /><path
         d="m 508,2801 h 225 v 49 H 508 Z"
         style="fill:#ffffff;fill-opacity:1;fill-rule:nonzero;stroke:none"
         id="path241" /><path
         d="m 733,2801 h 25 v 49 h -25 z"
         style="fill:#ffffff;fill-opacity:1;fill-rule:nonzero;stroke:none"
         id="path243" /><g
         id="g247"
         transform="scale(4.16667)"><text
           transform="matrix(1,0,0,-1,37.92,675.36)"
           style="font-variant:normal;font-weight:normal;font-size:10.08px;font-family:'Courier New';-inkscape-font-specification:CourierNew;writing-mode:lr-tb;fill:#0000ff;fill-opacity:1;fill-rule:nonzero;stroke:none"
           id="text251"><tspan
             x="0 6.0479999 12.096 18.143999 24.191999 30.24 36.287998 42.335999"
             y="0"
             sodipodi:role="line"
             id="tspan249">&lt;p:type&gt;</tspan></text></g><g
         id="g253"
         transform="scale(4.16667)"><text
           transform="matrix(1,0,0,-1,85.92,675.36)"
           style="font-variant:normal;font-weight:bold;font-size:10.08px;font-family:'Courier New';-inkscape-font-specification:'CourierNew Bold';writing-mode:lr-tb;fill:#000000;fill-opacity:1;fill-rule:nonzero;stroke:none"
           id="text257"><tspan
             x="0 6.0479999 12.096 18.143999 24.191999 30.24"
             y="0"
             sodipodi:role="line"
             id="tspan255">public</tspan></text></g><g
         id="g259"
         transform="scale(4.16667)"><text
           transform="matrix(1,0,0,-1,121.92,675.36)"
           style="font-variant:normal;font-weight:normal;font-size:10.08px;font-family:'Courier New';-inkscape-font-specification:CourierNew;writing-mode:lr-tb;fill:#0000ff;fill-opacity:1;fill-rule:nonzero;stroke:none"
           id="text263"><tspan
             x="0 6.0479999 12.096 18.143999 24.191999 30.24 36.287998 42.335999 48.383999"
             y="0"
             sodipodi:role="line"
             id="tspan261">&lt;/p:type&gt;</tspan></text></g><path
         d="m 58,2752 h 300 v 49 H 58 Z"
         style="fill:#ffffff;fill-opacity:1;fill-rule:nonzero;stroke:none"
         id="path265" /><g
         id="g271"
         transform="scale(4.16667)"><text
           transform="matrix(1,0,0,-1,13.92,663.6)"
           style="font-variant:normal;font-weight:normal;font-size:10.08px;font-family:'Courier New';-inkscape-font-specification:CourierNew;writing-mode:lr-tb;fill:#0000ff;fill-opacity:1;fill-rule:nonzero;stroke:none"
           id="text275"><tspan
             x="0 6.0479999 12.096 18.143999 24.191999 30.24 36.287998 42.335999 48.383999 54.431999 60.48 66.528"
             y="0"
             sodipodi:role="line"
             id="tspan273">&lt;/p:library&gt;</tspan></text></g><path
         d="m 58,2703 h 175 v 49 H 58 Z"
         style="fill:#ffffff;fill-opacity:1;fill-rule:nonzero;stroke:none"
         id="path277" /><g
         id="g283"
         transform="scale(4.16667)"><text
           transform="matrix(1,0,0,-1,13.92,651.84)"
           style="font-variant:normal;font-weight:normal;font-size:10.08px;font-family:'Courier New';-inkscape-font-specification:CourierNew;writing-mode:lr-tb;fill:#0000ff;fill-opacity:1;fill-rule:nonzero;stroke:none"
           id="text287"><tspan
             x="0 6.0479999 12.096 18.143999 24.191999 30.24 36.287998"
             y="0"
             sodipodi:role="line"
             id="tspan285">&lt;/root&gt;</tspan></text></g></g></g></svg>
