<?xml version="1.0" encoding="UTF-8" standalone="no"?>
<!-- Created with Inkscape (http://www.inkscape.org/) -->

<svg
   version="1.1"
   id="svg2"
   xml:space="preserve"
   width="424"
   height="184.87675"
   viewBox="0 0 424 184.87675"
   sodipodi:docname="address_extend.svg"
   inkscape:version="1.1.1 (3bf5ae0d25, 2021-09-20)"
   xmlns:inkscape="http://www.inkscape.org/namespaces/inkscape"
   xmlns:sodipodi="http://sodipodi.sourceforge.net/DTD/sodipodi-0.dtd"
   xmlns="http://www.w3.org/2000/svg"
   xmlns:svg="http://www.w3.org/2000/svg"><defs
     id="defs6" /><sodipodi:namedview
     id="namedview4"
     pagecolor="#ffffff"
     bordercolor="#666666"
     borderopacity="1.0"
     inkscape:pageshadow="2"
     inkscape:pageopacity="0.0"
     inkscape:pagecheckerboard="0"
     showgrid="false"
     inkscape:zoom="1.4223485"
     inkscape:cx="273.13981"
     inkscape:cy="180.68708"
     inkscape:window-width="1862"
     inkscape:window-height="936"
     inkscape:window-x="-8"
     inkscape:window-y="-8"
     inkscape:window-maximized="1"
     inkscape:current-layer="g8" /><g
     id="g8"
     inkscape:groupmode="layer"
     inkscape:label="C__Users_Behnam_Desktop_tmp"
     transform="matrix(1.3333333,0,0,-1.3333333,-18.56,1034.1567)"><g
       id="g10"
       transform="scale(0.24)"><g
         id="g18"
         transform="scale(4.16667)"><text
           transform="matrix(1,0,0,-1,13.92,769.44)"
           style="font-variant:normal;font-weight:normal;font-size:10.08px;font-family:'Courier New';-inkscape-font-specification:CourierNew;writing-mode:lr-tb;fill:#0000ff;fill-opacity:1;fill-rule:nonzero;stroke:none"
           id="text22"><tspan
             x="0 6.0479999 12.096 18.143999 24.191999 30.24 36.287998 42.335999 48.383999 54.431999 60.48"
             y="0"
             sodipodi:role="line"
             id="tspan20">&lt;EUAddress&gt;</tspan></text></g><path
         d="m 158,3144 h 300 v 49 H 158 Z"
         style="fill:#ffffff;fill-opacity:1;fill-rule:nonzero;stroke:none"
         id="path26" /><path
         d="m 458,3144 h 550 v 49 H 458 Z"
         style="fill:#ffffff;fill-opacity:1;fill-rule:nonzero;stroke:none"
         id="path28" /><g
         id="g36"
         transform="scale(4.16667)"><text
           transform="matrix(1,0,0,-1,37.92,757.68)"
           style="font-variant:normal;font-weight:normal;font-size:10.08px;font-family:'Courier New';-inkscape-font-specification:CourierNew;writing-mode:lr-tb;fill:#0000ff;fill-opacity:1;fill-rule:nonzero;stroke:none"
           id="text40"><tspan
             x="0 6.0479999 12.096 18.143999 24.191999 30.24 36.287998 42.335999 48.383999 54.431999 60.48 66.528"
             y="0"
             sodipodi:role="line"
             id="tspan38">&lt;streetName&gt;</tspan></text></g><g
         id="g42"
         transform="scale(4.16667)"><text
           transform="matrix(1,0,0,-1,109.92,757.68)"
           style="font-variant:normal;font-weight:bold;font-size:10.08px;font-family:'Courier New';-inkscape-font-specification:'CourierNew Bold';writing-mode:lr-tb;fill:#000000;fill-opacity:1;fill-rule:nonzero;stroke:none"
           id="text46"><tspan
             x="0 6.0479999 12.096 18.143999 24.191999 30.24 36.287998 42.335999 48.383999 54.431999 60.48 66.528 72.575996 78.624001 84.671997 90.720001 96.767998 102.816 108.864 114.912 120.96 127.008"
             y="0"
             sodipodi:role="line"
             id="tspan44">some street name in EU</tspan></text></g><g
         id="g48"
         transform="scale(4.16667)"><text
           transform="matrix(1,0,0,-1,241.92,757.68)"
           style="font-variant:normal;font-weight:normal;font-size:10.08px;font-family:'Courier New';-inkscape-font-specification:CourierNew;writing-mode:lr-tb;fill:#0000ff;fill-opacity:1;fill-rule:nonzero;stroke:none"
           id="text52"><tspan
             x="0 6.0479999 12.096 18.143999 24.191999 30.24 36.287998 42.335999 48.383999 54.431999 60.48 66.528 72.575996"
             y="0"
             sodipodi:role="line"
             id="tspan50">&lt;/streetName&gt;</tspan></text></g><path
         d="m 158,3095 h 325 v 49 H 158 Z"
         style="fill:#ffffff;fill-opacity:1;fill-rule:nonzero;stroke:none"
         id="path56" /><path
         d="m 483,3095 h 50 v 49 h -50 z"
         style="fill:#ffffff;fill-opacity:1;fill-rule:nonzero;stroke:none"
         id="path58" /><path
         d="m 533,3095 h 350 v 49 H 533 Z"
         style="fill:#ffffff;fill-opacity:1;fill-rule:nonzero;stroke:none"
         id="path60" /><g
         id="g66"
         transform="scale(4.16667)"><text
           transform="matrix(1,0,0,-1,37.92,745.92)"
           style="font-variant:normal;font-weight:normal;font-size:10.08px;font-family:'Courier New';-inkscape-font-specification:CourierNew;writing-mode:lr-tb;fill:#0000ff;fill-opacity:1;fill-rule:nonzero;stroke:none"
           id="text70"><tspan
             x="0 6.0479999 12.096 18.143999 24.191999 30.24 36.287998 42.335999 48.383999 54.431999 60.48 66.528 72.575996"
             y="0"
             sodipodi:role="line"
             id="tspan68">&lt;HouseNumber&gt;</tspan></text></g><g
         id="g72"
         transform="scale(4.16667)"><text
           transform="matrix(1,0,0,-1,115.92,745.92)"
           style="font-variant:normal;font-weight:bold;font-size:10.08px;font-family:'Courier New';-inkscape-font-specification:'CourierNew Bold';writing-mode:lr-tb;fill:#000000;fill-opacity:1;fill-rule:nonzero;stroke:none"
           id="text76"><tspan
             x="0 6.0479999"
             y="0"
             sodipodi:role="line"
             id="tspan74">12</tspan></text></g><g
         id="g78"
         transform="scale(4.16667)"><text
           transform="matrix(1,0,0,-1,127.92,745.92)"
           style="font-variant:normal;font-weight:normal;font-size:10.08px;font-family:'Courier New';-inkscape-font-specification:CourierNew;writing-mode:lr-tb;fill:#0000ff;fill-opacity:1;fill-rule:nonzero;stroke:none"
           id="text82"><tspan
             x="0 6.0479999 12.096 18.143999 24.191999 30.24 36.287998 42.335999 48.383999 54.431999 60.48 66.528 72.575996 78.624001"
             y="0"
             sodipodi:role="line"
             id="tspan80">&lt;/HouseNumber&gt;</tspan></text></g><path
         d="m 158,3046 h 225 v 49 H 158 Z"
         style="fill:#ffffff;fill-opacity:1;fill-rule:nonzero;stroke:none"
         id="path86" /><path
         d="m 383,3046 h 200 v 49 H 383 Z"
         style="fill:#ffffff;fill-opacity:1;fill-rule:nonzero;stroke:none"
         id="path88" /><path
         d="m 583,3046 h 250 v 49 H 583 Z"
         style="fill:#ffffff;fill-opacity:1;fill-rule:nonzero;stroke:none"
         id="path90" /><g
         id="g96"
         transform="scale(4.16667)"><text
           transform="matrix(1,0,0,-1,37.92,734.16)"
           style="font-variant:normal;font-weight:normal;font-size:10.08px;font-family:'Courier New';-inkscape-font-specification:CourierNew;writing-mode:lr-tb;fill:#0000ff;fill-opacity:1;fill-rule:nonzero;stroke:none"
           id="text100"><tspan
             x="0 6.0479999 12.096 18.143999 24.191999 30.24 36.287998 42.335999 48.383999"
             y="0"
             sodipodi:role="line"
             id="tspan98">&lt;Country&gt;</tspan></text></g><g
         id="g102"
         transform="scale(4.16667)"><text
           transform="matrix(1,0,0,-1,91.92,734.16)"
           style="font-variant:normal;font-weight:bold;font-size:10.08px;font-family:'Courier New';-inkscape-font-specification:'CourierNew Bold';writing-mode:lr-tb;fill:#000000;fill-opacity:1;fill-rule:nonzero;stroke:none"
           id="text106"><tspan
             x="0 6.0479999 12.096 18.143999 24.191999 30.24 36.287998 42.335999"
             y="0"
             sodipodi:role="line"
             id="tspan104">somerset</tspan></text></g><g
         id="g108"
         transform="scale(4.16667)"><text
           transform="matrix(1,0,0,-1,139.92,734.16)"
           style="font-variant:normal;font-weight:normal;font-size:10.08px;font-family:'Courier New';-inkscape-font-specification:CourierNew;writing-mode:lr-tb;fill:#0000ff;fill-opacity:1;fill-rule:nonzero;stroke:none"
           id="text112"><tspan
             x="0 6.0479999 12.096 18.143999 24.191999 30.24 36.287998 42.335999 48.383999 54.431999"
             y="0"
             sodipodi:role="line"
             id="tspan110">&lt;/Country&gt;</tspan></text></g><path
         d="m 158,2997 h 250 v 49 H 158 Z"
         style="fill:#ffffff;fill-opacity:1;fill-rule:nonzero;stroke:none"
         id="path116" /><path
         d="m 408,2997 h 150 v 49 H 408 Z"
         style="fill:#ffffff;fill-opacity:1;fill-rule:nonzero;stroke:none"
         id="path118" /><path
         d="m 558,2997 h 275 v 49 H 558 Z"
         style="fill:#ffffff;fill-opacity:1;fill-rule:nonzero;stroke:none"
         id="path120" /><g
         id="g126"
         transform="scale(4.16667)"><text
           transform="matrix(1,0,0,-1,37.92,722.4)"
           style="font-variant:normal;font-weight:normal;font-size:10.08px;font-family:'Courier New';-inkscape-font-specification:CourierNew;writing-mode:lr-tb;fill:#0000ff;fill-opacity:1;fill-rule:nonzero;stroke:none"
           id="text130"><tspan
             x="0 6.0479999 12.096 18.143999 24.191999 30.24 36.287998 42.335999 48.383999 54.431999"
             y="0"
             sodipodi:role="line"
             id="tspan128">&lt;Postcode&gt;</tspan></text></g><g
         id="g132"
         transform="scale(4.16667)"><text
           transform="matrix(1,0,0,-1,97.92,722.4)"
           style="font-variant:normal;font-weight:bold;font-size:10.08px;font-family:'Courier New';-inkscape-font-specification:'CourierNew Bold';writing-mode:lr-tb;fill:#000000;fill-opacity:1;fill-rule:nonzero;stroke:none"
           id="text136"><tspan
             x="0 6.0479999 12.096 18.143999 24.191999 30.24"
             y="0"
             sodipodi:role="line"
             id="tspan134">781459</tspan></text></g><g
         id="g138"
         transform="scale(4.16667)"><text
           transform="matrix(1,0,0,-1,133.92,722.4)"
           style="font-variant:normal;font-weight:normal;font-size:10.08px;font-family:'Courier New';-inkscape-font-specification:CourierNew;writing-mode:lr-tb;fill:#0000ff;fill-opacity:1;fill-rule:nonzero;stroke:none"
           id="text142"><tspan
             x="0 6.0479999 12.096 18.143999 24.191999 30.24 36.287998 42.335999 48.383999 54.431999 60.48"
             y="0"
             sodipodi:role="line"
             id="tspan140">&lt;/Postcode&gt;</tspan></text></g><path
         d="m 58,2948 h 300 v 49 H 58 Z"
         style="fill:#ffffff;fill-opacity:1;fill-rule:nonzero;stroke:none"
         id="path144" /><g
         id="g150"
         transform="scale(4.16667)"><text
           transform="matrix(1,0,0,-1,13.92,710.64)"
           style="font-variant:normal;font-weight:normal;font-size:10.08px;font-family:'Courier New';-inkscape-font-specification:CourierNew;writing-mode:lr-tb;fill:#0000ff;fill-opacity:1;fill-rule:nonzero;stroke:none"
           id="text154"><tspan
             x="0 6.0479999 12.096 18.143999 24.191999 30.24 36.287998 42.335999 48.383999 54.431999 60.48 66.528"
             y="0"
             sodipodi:role="line"
             id="tspan152">&lt;/EUAddress&gt;</tspan></text></g><path
         d="m 58,2899 h 275 v 49 H 58 Z"
         style="fill:#ffffff;fill-opacity:1;fill-rule:nonzero;stroke:none"
         id="path156" /><g
         id="g162"
         transform="scale(4.16667)"><text
           transform="matrix(1,0,0,-1,13.92,698.88)"
           style="font-variant:normal;font-weight:normal;font-size:10.08px;font-family:'Courier New';-inkscape-font-specification:CourierNew;writing-mode:lr-tb;fill:#0000ff;fill-opacity:1;fill-rule:nonzero;stroke:none"
           id="text166"><tspan
             x="0 6.0479999 12.096 18.143999 24.191999 30.24 36.287998 42.335999 48.383999 54.431999 60.48"
             y="0"
             sodipodi:role="line"
             id="tspan164">&lt;USAddress&gt;</tspan></text></g><path
         d="m 158,2850 h 300 v 49 H 158 Z"
         style="fill:#ffffff;fill-opacity:1;fill-rule:nonzero;stroke:none"
         id="path170" /><path
         d="m 458,2850 h 575 v 49 H 458 Z"
         style="fill:#ffffff;fill-opacity:1;fill-rule:nonzero;stroke:none"
         id="path172" /><path
         d="m 1358,2850 h 25 v 49 h -25 z"
         style="fill:#ffffff;fill-opacity:1;fill-rule:nonzero;stroke:none"
         id="path176" /><g
         id="g180"
         transform="scale(4.16667)"><text
           transform="matrix(1,0,0,-1,37.92,687.12)"
           style="font-variant:normal;font-weight:normal;font-size:10.08px;font-family:'Courier New';-inkscape-font-specification:CourierNew;writing-mode:lr-tb;fill:#0000ff;fill-opacity:1;fill-rule:nonzero;stroke:none"
           id="text184"><tspan
             x="0 6.0479999 12.096 18.143999 24.191999 30.24 36.287998 42.335999 48.383999 54.431999 60.48 66.528"
             y="0"
             sodipodi:role="line"
             id="tspan182">&lt;streetName&gt;</tspan></text></g><g
         id="g186"
         transform="scale(4.16667)"><text
           transform="matrix(1,0,0,-1,109.92,687.12)"
           style="font-variant:normal;font-weight:bold;font-size:10.08px;font-family:'Courier New';-inkscape-font-specification:'CourierNew Bold';writing-mode:lr-tb;fill:#000000;fill-opacity:1;fill-rule:nonzero;stroke:none"
           id="text190"><tspan
             x="0 6.0479999 12.096 18.143999 24.191999 30.24 36.287998 42.335999 48.383999 54.431999 60.48 66.528 72.575996 78.624001 84.671997 90.720001 96.767998 102.816 108.864 114.912 120.96 127.008 133.056"
             y="0"
             sodipodi:role="line"
             id="tspan188">some street name in USA</tspan></text></g><g
         id="g192"
         transform="scale(4.16667)"><text
           transform="matrix(1,0,0,-1,247.92,687.12)"
           style="font-variant:normal;font-weight:normal;font-size:10.08px;font-family:'Courier New';-inkscape-font-specification:CourierNew;writing-mode:lr-tb;fill:#0000ff;fill-opacity:1;fill-rule:nonzero;stroke:none"
           id="text196"><tspan
             x="0 6.0479999 12.096 18.143999 24.191999 30.24 36.287998 42.335999 48.383999 54.431999 60.48 66.528 72.575996"
             y="0"
             sodipodi:role="line"
             id="tspan194">&lt;/streetName&gt;</tspan></text></g><path
         d="m 158,2801 h 325 v 49 H 158 Z"
         style="fill:#ffffff;fill-opacity:1;fill-rule:nonzero;stroke:none"
         id="path200" /><path
         d="m 483,2801 h 50 v 49 h -50 z"
         style="fill:#ffffff;fill-opacity:1;fill-rule:nonzero;stroke:none"
         id="path202" /><g
         id="g210"
         transform="scale(4.16667)"><text
           transform="matrix(1,0,0,-1,37.92,675.36)"
           style="font-variant:normal;font-weight:normal;font-size:10.08px;font-family:'Courier New';-inkscape-font-specification:CourierNew;writing-mode:lr-tb;fill:#0000ff;fill-opacity:1;fill-rule:nonzero;stroke:none"
           id="text214"><tspan
             x="0 6.0479999 12.096 18.143999 24.191999 30.24 36.287998 42.335999 48.383999 54.431999 60.48 66.528 72.575996"
             y="0"
             sodipodi:role="line"
             id="tspan212">&lt;HouseNumber&gt;</tspan></text></g><g
         id="g216"
         transform="scale(4.16667)"><text
           transform="matrix(1,0,0,-1,115.92,675.36)"
           style="font-variant:normal;font-weight:bold;font-size:10.08px;font-family:'Courier New';-inkscape-font-specification:'CourierNew Bold';writing-mode:lr-tb;fill:#000000;fill-opacity:1;fill-rule:nonzero;stroke:none"
           id="text220"><tspan
             x="0 6.0479999"
             y="0"
             sodipodi:role="line"
             id="tspan218">78</tspan></text></g><g
         id="g222"
         transform="scale(4.16667)"><text
           transform="matrix(1,0,0,-1,127.92,675.36)"
           style="font-variant:normal;font-weight:normal;font-size:10.08px;font-family:'Courier New';-inkscape-font-specification:CourierNew;writing-mode:lr-tb;fill:#0000ff;fill-opacity:1;fill-rule:nonzero;stroke:none"
           id="text226"><tspan
             x="0 6.0479999 12.096 18.143999 24.191999 30.24 36.287998 42.335999 48.383999 54.431999 60.48 66.528 72.575996 78.624001"
             y="0"
             sodipodi:role="line"
             id="tspan224">&lt;/HouseNumber&gt;</tspan></text></g><path
         d="m 158,2752 h 175 v 49 H 158 Z"
         style="fill:#ffffff;fill-opacity:1;fill-rule:nonzero;stroke:none"
         id="path230" /><path
         d="m 333,2752 h 250 v 49 H 333 Z"
         style="fill:#ffffff;fill-opacity:1;fill-rule:nonzero;stroke:none"
         id="path232" /><path
         d="m 583,2752 h 200 v 49 H 583 Z"
         style="fill:#ffffff;fill-opacity:1;fill-rule:nonzero;stroke:none"
         id="path234" /><path
         d="m 783,2752 h 25 v 49 h -25 z"
         style="fill:#ffffff;fill-opacity:1;fill-rule:nonzero;stroke:none"
         id="path236" /><g
         id="g240"
         transform="scale(4.16667)"><text
           transform="matrix(1,0,0,-1,37.92,663.6)"
           style="font-variant:normal;font-weight:normal;font-size:10.08px;font-family:'Courier New';-inkscape-font-specification:CourierNew;writing-mode:lr-tb;fill:#0000ff;fill-opacity:1;fill-rule:nonzero;stroke:none"
           id="text244"><tspan
             x="0 6.0479999 12.096 18.143999 24.191999 30.24 36.287998"
             y="0"
             sodipodi:role="line"
             id="tspan242">&lt;State&gt;</tspan></text></g><g
         id="g246"
         transform="scale(4.16667)"><text
           transform="matrix(1,0,0,-1,79.92,663.6)"
           style="font-variant:normal;font-weight:bold;font-size:10.08px;font-family:'Courier New';-inkscape-font-specification:'CourierNew Bold';writing-mode:lr-tb;fill:#000000;fill-opacity:1;fill-rule:nonzero;stroke:none"
           id="text250"><tspan
             x="0 6.0479999 12.096 18.143999 24.191999 30.24 36.287998 42.335999 48.383999 54.431999"
             y="0"
             sodipodi:role="line"
             id="tspan248">state name</tspan></text></g><g
         id="g252"
         transform="scale(4.16667)"><text
           transform="matrix(1,0,0,-1,139.92,663.6)"
           style="font-variant:normal;font-weight:normal;font-size:10.08px;font-family:'Courier New';-inkscape-font-specification:CourierNew;writing-mode:lr-tb;fill:#0000ff;fill-opacity:1;fill-rule:nonzero;stroke:none"
           id="text256"><tspan
             x="0 6.0479999 12.096 18.143999 24.191999 30.24 36.287998 42.335999"
             y="0"
             sodipodi:role="line"
             id="tspan254">&lt;/State&gt;</tspan></text></g><path
         d="m 158,2703 h 225 v 49 H 158 Z"
         style="fill:#ffffff;fill-opacity:1;fill-rule:nonzero;stroke:none"
         id="path260" /><path
         d="m 383,2703 h 150 v 49 H 383 Z"
         style="fill:#ffffff;fill-opacity:1;fill-rule:nonzero;stroke:none"
         id="path262" /><g
         id="g270"
         transform="scale(4.16667)"><text
           transform="matrix(1,0,0,-1,37.92,651.84)"
           style="font-variant:normal;font-weight:normal;font-size:10.08px;font-family:'Courier New';-inkscape-font-specification:CourierNew;writing-mode:lr-tb;fill:#0000ff;fill-opacity:1;fill-rule:nonzero;stroke:none"
           id="text274"><tspan
             x="0 6.0479999 12.096 18.143999 24.191999 30.24 36.287998 42.335999 48.383999"
             y="0"
             sodipodi:role="line"
             id="tspan272">&lt;Zipcode&gt;</tspan></text></g><g
         id="g276"
         transform="scale(4.16667)"><text
           transform="matrix(1,0,0,-1,91.92,651.84)"
           style="font-variant:normal;font-weight:bold;font-size:10.08px;font-family:'Courier New';-inkscape-font-specification:'CourierNew Bold';writing-mode:lr-tb;fill:#000000;fill-opacity:1;fill-rule:nonzero;stroke:none"
           id="text280"><tspan
             x="0 6.0479999 12.096 18.143999 24.191999 30.24"
             y="0"
             sodipodi:role="line"
             id="tspan278">841511</tspan></text></g><g
         id="g282"
         transform="scale(4.16667)"><text
           transform="matrix(1,0,0,-1,127.92,651.84)"
           style="font-variant:normal;font-weight:normal;font-size:10.08px;font-family:'Courier New';-inkscape-font-specification:CourierNew;writing-mode:lr-tb;fill:#0000ff;fill-opacity:1;fill-rule:nonzero;stroke:none"
           id="text286"><tspan
             x="0 6.0479999 12.096 18.143999 24.191999 30.24 36.287998 42.335999 48.383999 54.431999"
             y="0"
             sodipodi:role="line"
             id="tspan284">&lt;/Zipcode&gt;</tspan></text></g><path
         d="m 58,2654 h 300 v 49 H 58 Z"
         style="fill:#ffffff;fill-opacity:1;fill-rule:nonzero;stroke:none"
         id="path288" /><g
         id="g294"
         transform="scale(4.16667)"><text
           transform="matrix(1,0,0,-1,13.92,640.08)"
           style="font-variant:normal;font-weight:normal;font-size:10.08px;font-family:'Courier New';-inkscape-font-specification:CourierNew;writing-mode:lr-tb;fill:#0000ff;fill-opacity:1;fill-rule:nonzero;stroke:none"
           id="text298"><tspan
             x="0 6.0479999 12.096 18.143999 24.191999 30.24 36.287998 42.335999 48.383999 54.431999 60.48 66.528"
             y="0"
             sodipodi:role="line"
             id="tspan296">&lt;/USAddress&gt;</tspan></text></g></g></g></svg>
