<?xml version="1.0" encoding="UTF-8" standalone="no"?>
<!-- Created with Inkscape (http://www.inkscape.org/) -->

<svg
   version="1.1"
   id="svg2"
   xml:space="preserve"
   width="360"
   height="31.359999"
   viewBox="0 0 360 31.359999"
   sodipodi:docname="xsd_date.svg"
   inkscape:version="1.1.1 (3bf5ae0d25, 2021-09-20)"
   xmlns:inkscape="http://www.inkscape.org/namespaces/inkscape"
   xmlns:sodipodi="http://sodipodi.sourceforge.net/DTD/sodipodi-0.dtd"
   xmlns="http://www.w3.org/2000/svg"
   xmlns:svg="http://www.w3.org/2000/svg"><defs
     id="defs6" /><sodipodi:namedview
     id="namedview4"
     pagecolor="#ffffff"
     bordercolor="#666666"
     borderopacity="1.0"
     inkscape:pageshadow="2"
     inkscape:pageopacity="0.0"
     inkscape:pagecheckerboard="0"
     showgrid="false"
     inkscape:zoom="2.844697"
     inkscape:cx="259.95739"
     inkscape:cy="60.463382"
     inkscape:window-width="1862"
     inkscape:window-height="936"
     inkscape:window-x="-8"
     inkscape:window-y="-8"
     inkscape:window-maximized="1"
     inkscape:current-layer="g10" /><g
     id="g8"
     inkscape:groupmode="layer"
     inkscape:label="C__Users_Behnam_Desktop_tmp"
     transform="matrix(1.3333333,0,0,-1.3333333,-18.56,1037.44)"><g
       id="g10"
       transform="scale(0.24)"><path
         d="m 58,3193 h 275 v 49 H 58 Z"
         style="fill:#ffffff;fill-opacity:1;fill-rule:nonzero;stroke:none"
         id="path12" /><path
         d="m 333,3193 h 25 v 49 h -25 z"
         style="fill:#ffffff;fill-opacity:1;fill-rule:nonzero;stroke:none"
         id="path14" /><path
         d="m 358,3193 h 100 v 49 H 358 Z"
         style="fill:#ffffff;fill-opacity:1;fill-rule:nonzero;stroke:none"
         id="path16" /><path
         d="m 458,3193 h 25 v 49 h -25 z"
         style="fill:#ffffff;fill-opacity:1;fill-rule:nonzero;stroke:none"
         id="path18" /><path
         d="m 483,3193 h 275 v 49 H 483 Z"
         style="fill:#ffffff;fill-opacity:1;fill-rule:nonzero;stroke:none"
         id="path20" /><path
         d="m 758,3193 h 25 v 49 h -25 z"
         style="fill:#ffffff;fill-opacity:1;fill-rule:nonzero;stroke:none"
         id="path22" /><path
         d="m 783,3193 h 100 v 49 H 783 Z"
         style="fill:#ffffff;fill-opacity:1;fill-rule:nonzero;stroke:none"
         id="path24" /><path
         d="m 883,3193 h 25 v 49 h -25 z"
         style="fill:#ffffff;fill-opacity:1;fill-rule:nonzero;stroke:none"
         id="path26" /><path
         d="m 908,3193 h 225 v 49 H 908 Z"
         style="fill:#ffffff;fill-opacity:1;fill-rule:nonzero;stroke:none"
         id="path28" /><path
         d="m 1133,3193 h 50 v 49 h -50 z"
         style="fill:#ffffff;fill-opacity:1;fill-rule:nonzero;stroke:none"
         id="path30" /><g
         id="g36"
         transform="scale(4.16667)"><text
           transform="matrix(1,0,0,-1,13.92,769.44)"
           style="font-variant:normal;font-weight:normal;font-size:10.08px;font-family:'Courier New';-inkscape-font-specification:CourierNew;writing-mode:lr-tb;fill:#0000ff;fill-opacity:1;fill-rule:nonzero;stroke:none"
           id="text40"><tspan
             x="0 6.0479999 12.096 18.143999 24.191999 30.24 36.287998 42.335999 48.383999 54.431999 60.48"
             y="0"
             sodipodi:role="line"
             id="tspan38">&lt;xs:element</tspan></text></g><g
         id="g42"
         transform="scale(4.16667)"><text
           transform="matrix(1,0,0,-1,85.92,769.44)"
           style="font-variant:normal;font-weight:normal;font-size:10.08px;font-family:'Courier New';-inkscape-font-specification:CourierNew;writing-mode:lr-tb;fill:#ff0000;fill-opacity:1;fill-rule:nonzero;stroke:none"
           id="text46"><tspan
             x="0 6.0479999 12.096 18.143999"
             y="0"
             sodipodi:role="line"
             id="tspan44">name</tspan></text></g><g
         id="g48"
         transform="scale(4.16667)"><text
           transform="matrix(1,0,0,-1,109.92,769.44)"
           style="font-variant:normal;font-weight:normal;font-size:10.08px;font-family:'Courier New';-inkscape-font-specification:CourierNew;writing-mode:lr-tb;fill:#000000;fill-opacity:1;fill-rule:nonzero;stroke:none"
           id="text52"><tspan
             x="0"
             y="0"
             id="tspan50">=</tspan></text></g><g
         id="g54"
         transform="scale(4.16667)"><text
           transform="matrix(1,0,0,-1,115.92,769.44)"
           style="font-variant:normal;font-weight:bold;font-size:10.08px;font-family:'Courier New';-inkscape-font-specification:'CourierNew Bold';writing-mode:lr-tb;fill:#8000ff;fill-opacity:1;fill-rule:nonzero;stroke:none"
           id="text58"><tspan
             x="0 6.0479999 12.096 18.143999 24.191999 30.24 36.287998 42.335999 48.383999 54.431999 60.48"
             y="0"
             sodipodi:role="line"
             id="tspan56">&quot;startDate&quot;</tspan></text></g><g
         id="g60"
         transform="scale(4.16667)"><text
           transform="matrix(1,0,0,-1,187.92,769.44)"
           style="font-variant:normal;font-weight:normal;font-size:10.08px;font-family:'Courier New';-inkscape-font-specification:CourierNew;writing-mode:lr-tb;fill:#ff0000;fill-opacity:1;fill-rule:nonzero;stroke:none"
           id="text64"><tspan
             x="0 6.0479999 12.096 18.143999"
             y="0"
             sodipodi:role="line"
             id="tspan62">type</tspan></text></g><g
         id="g66"
         transform="scale(4.16667)"><text
           transform="matrix(1,0,0,-1,211.92,769.44)"
           style="font-variant:normal;font-weight:normal;font-size:10.08px;font-family:'Courier New';-inkscape-font-specification:CourierNew;writing-mode:lr-tb;fill:#000000;fill-opacity:1;fill-rule:nonzero;stroke:none"
           id="text70"><tspan
             x="0"
             y="0"
             id="tspan68">=</tspan></text></g><g
         id="g72"
         transform="scale(4.16667)"><text
           transform="matrix(1,0,0,-1,217.92,769.44)"
           style="font-variant:normal;font-weight:bold;font-size:10.08px;font-family:'Courier New';-inkscape-font-specification:'CourierNew Bold';writing-mode:lr-tb;fill:#8000ff;fill-opacity:1;fill-rule:nonzero;stroke:none"
           id="text76"><tspan
             x="0 6.0479999 12.096 18.143999 24.191999 30.24 36.287998 42.335999 48.383999"
             y="0"
             sodipodi:role="line"
             id="tspan74">&quot;xs:date&quot;</tspan></text></g><g
         id="g78"
         transform="scale(4.16667)"><text
           transform="matrix(1,0,0,-1,271.92,769.44)"
           style="font-variant:normal;font-weight:normal;font-size:10.08px;font-family:'Courier New';-inkscape-font-specification:CourierNew;writing-mode:lr-tb;fill:#0000ff;fill-opacity:1;fill-rule:nonzero;stroke:none"
           id="text82"><tspan
             x="0 6.0479999"
             y="0"
             sodipodi:role="line"
             id="tspan80">/&gt;</tspan></text></g><path
         d="m 58,3144 h 275 v 49 H 58 Z"
         style="fill:#ffffff;fill-opacity:1;fill-rule:nonzero;stroke:none"
         id="path84" /><path
         d="m 333,3144 h 250 v 49 H 333 Z"
         style="fill:#ffffff;fill-opacity:1;fill-rule:nonzero;stroke:none"
         id="path86" /><path
         d="m 583,3144 h 300 v 49 H 583 Z"
         style="fill:#ffffff;fill-opacity:1;fill-rule:nonzero;stroke:none"
         id="path88" /><g
         id="g94"
         transform="scale(4.16667)"><text
           transform="matrix(1,0,0,-1,13.92,757.68)"
           style="font-variant:normal;font-weight:normal;font-size:10.08px;font-family:'Courier New';-inkscape-font-specification:CourierNew;writing-mode:lr-tb;fill:#0000ff;fill-opacity:1;fill-rule:nonzero;stroke:none"
           id="text98"><tspan
             x="0 6.0479999 12.096 18.143999 24.191999 30.24 36.287998 42.335999 48.383999 54.431999 60.48"
             y="0"
             sodipodi:role="line"
             id="tspan96">&lt;startDate&gt;</tspan></text></g><g
         id="g100"
         transform="scale(4.16667)"><text
           transform="matrix(1,0,0,-1,79.92,757.68)"
           style="font-variant:normal;font-weight:bold;font-size:10.08px;font-family:'Courier New';-inkscape-font-specification:'CourierNew Bold';writing-mode:lr-tb;fill:#000000;fill-opacity:1;fill-rule:nonzero;stroke:none"
           id="text104"><tspan
             x="0 6.0479999 12.096 18.143999 24.191999 30.24 36.287998 42.335999 48.383999 54.431999"
             y="0"
             sodipodi:role="line"
             id="tspan102">YYYY-MM-DD</tspan></text></g><g
         id="g106"
         transform="scale(4.16667)"><text
           transform="matrix(1,0,0,-1,139.92,757.68)"
           style="font-variant:normal;font-weight:normal;font-size:10.08px;font-family:'Courier New';-inkscape-font-specification:CourierNew;writing-mode:lr-tb;fill:#0000ff;fill-opacity:1;fill-rule:nonzero;stroke:none"
           id="text110"><tspan
             x="0 6.0479999 12.096 18.143999 24.191999 30.24 36.287998 42.335999 48.383999 54.431999 60.48 66.528"
             y="0"
             sodipodi:role="line"
             id="tspan108">&lt;/startDate&gt;</tspan></text></g></g></g></svg>
