<?xml version="1.0" encoding="UTF-8" standalone="no"?>
<!-- Created with Inkscape (http://www.inkscape.org/) -->

<svg
   version="1.1"
   id="svg2"
   xml:space="preserve"
   width="430.77939"
   height="277.88052"
   viewBox="0 0 430.77939 277.88052"
   sodipodi:docname="xsd_elements_containing_only_text.svg"
   inkscape:version="1.1.1 (3bf5ae0d25, 2021-09-20)"
   xmlns:inkscape="http://www.inkscape.org/namespaces/inkscape"
   xmlns:sodipodi="http://sodipodi.sourceforge.net/DTD/sodipodi-0.dtd"
   xmlns="http://www.w3.org/2000/svg"
   xmlns:svg="http://www.w3.org/2000/svg"><defs
     id="defs6" /><sodipodi:namedview
     id="namedview4"
     pagecolor="#ffffff"
     bordercolor="#666666"
     borderopacity="1.0"
     inkscape:pageshadow="2"
     inkscape:pageopacity="0.0"
     inkscape:pagecheckerboard="0"
     showgrid="false"
     inkscape:zoom="1.4223485"
     inkscape:cx="278.06125"
     inkscape:cy="248.18109"
     inkscape:window-width="1862"
     inkscape:window-height="936"
     inkscape:window-x="-8"
     inkscape:window-y="-8"
     inkscape:window-maximized="1"
     inkscape:current-layer="g10" /><g
     id="g8"
     inkscape:groupmode="layer"
     inkscape:label="C__Users_Behnam_Desktop_tmp"
     transform="matrix(1.3333333,0,0,-1.3333333,-19.20314,1034.4324)"><g
       id="g10"
       transform="scale(0.24)"><g
         id="g28"
         transform="scale(4.16667)"><text
           transform="matrix(1,0,0,-1,13.92,769.44)"
           style="font-variant:normal;font-weight:normal;font-size:10.08px;font-family:'Courier New';-inkscape-font-specification:CourierNew;writing-mode:lr-tb;fill:#0000ff;fill-opacity:1;fill-rule:nonzero;stroke:none"
           id="text32"><tspan
             x="0 6.0479999 12.096 18.143999 24.191999 30.24 36.287998 42.335999 48.383999 54.431999 60.48 66.528 72.575996 78.624001"
             y="0"
             sodipodi:role="line"
             id="tspan30">&lt;xs:simpleType</tspan></text></g><g
         id="g34"
         transform="scale(4.16667)"><text
           transform="matrix(1,0,0,-1,103.92,769.44)"
           style="font-variant:normal;font-weight:normal;font-size:10.08px;font-family:'Courier New';-inkscape-font-specification:CourierNew;writing-mode:lr-tb;fill:#ff0000;fill-opacity:1;fill-rule:nonzero;stroke:none"
           id="text38"><tspan
             x="0 6.0479999 12.096 18.143999"
             y="0"
             sodipodi:role="line"
             id="tspan36">name</tspan></text></g><g
         id="g40"
         transform="scale(4.16667)"><text
           transform="matrix(1,0,0,-1,127.92,769.44)"
           style="font-variant:normal;font-weight:normal;font-size:10.08px;font-family:'Courier New';-inkscape-font-specification:CourierNew;writing-mode:lr-tb;fill:#000000;fill-opacity:1;fill-rule:nonzero;stroke:none"
           id="text44"><tspan
             x="0"
             y="0"
             id="tspan42">=</tspan></text></g><g
         id="g46"
         transform="scale(4.16667)"><text
           transform="matrix(1,0,0,-1,133.92,769.44)"
           style="font-variant:normal;font-weight:bold;font-size:10.08px;font-family:'Courier New';-inkscape-font-specification:'CourierNew Bold';writing-mode:lr-tb;fill:#8000ff;fill-opacity:1;fill-rule:nonzero;stroke:none"
           id="text50"><tspan
             x="0 6.0479999 12.096 18.143999 24.191999 30.24 36.287998 42.335999 48.383999 54.431999 60.48 66.528 72.575996 78.624001 84.671997 90.720001"
             y="0"
             sodipodi:role="line"
             id="tspan48">&quot;enumStringType&quot;</tspan></text></g><g
         id="g52"
         transform="scale(4.16667)"><text
           transform="matrix(1,0,0,-1,229.92,769.44)"
           style="font-variant:normal;font-weight:normal;font-size:10.08px;font-family:'Courier New';-inkscape-font-specification:CourierNew;writing-mode:lr-tb;fill:#0000ff;fill-opacity:1;fill-rule:nonzero;stroke:none"
           id="text56"><tspan
             x="0"
             y="0"
             id="tspan54">&gt;</tspan></text></g><g
         id="g76"
         transform="scale(4.16667)"><text
           transform="matrix(1,0,0,-1,37.92,757.68)"
           style="font-variant:normal;font-weight:normal;font-size:10.08px;font-family:'Courier New';-inkscape-font-specification:CourierNew;writing-mode:lr-tb;fill:#0000ff;fill-opacity:1;fill-rule:nonzero;stroke:none"
           id="text80"><tspan
             x="0 6.0479999 12.096 18.143999 24.191999 30.24 36.287998 42.335999 48.383999 54.431999 60.48 66.528 72.575996 78.624001 84.671997"
             y="0"
             sodipodi:role="line"
             id="tspan78">&lt;xs:restriction</tspan></text></g><g
         id="g82"
         transform="scale(4.16667)"><text
           transform="matrix(1,0,0,-1,133.92,757.68)"
           style="font-variant:normal;font-weight:normal;font-size:10.08px;font-family:'Courier New';-inkscape-font-specification:CourierNew;writing-mode:lr-tb;fill:#ff0000;fill-opacity:1;fill-rule:nonzero;stroke:none"
           id="text86"><tspan
             x="0 6.0479999 12.096 18.143999"
             y="0"
             sodipodi:role="line"
             id="tspan84">base</tspan></text></g><g
         id="g88"
         transform="scale(4.16667)"><text
           transform="matrix(1,0,0,-1,157.92,757.68)"
           style="font-variant:normal;font-weight:normal;font-size:10.08px;font-family:'Courier New';-inkscape-font-specification:CourierNew;writing-mode:lr-tb;fill:#000000;fill-opacity:1;fill-rule:nonzero;stroke:none"
           id="text92"><tspan
             x="0"
             y="0"
             id="tspan90">=</tspan></text></g><g
         id="g94"
         transform="scale(4.16667)"><text
           transform="matrix(1,0,0,-1,163.92,757.68)"
           style="font-variant:normal;font-weight:bold;font-size:10.08px;font-family:'Courier New';-inkscape-font-specification:'CourierNew Bold';writing-mode:lr-tb;fill:#8000ff;fill-opacity:1;fill-rule:nonzero;stroke:none"
           id="text98"><tspan
             x="0 6.0479999 12.096 18.143999 24.191999 30.24 36.287998 42.335999 48.383999 54.431999 60.48"
             y="0"
             sodipodi:role="line"
             id="tspan96">&quot;xs:string&quot;</tspan></text></g><g
         id="g100"
         transform="scale(4.16667)"><text
           transform="matrix(1,0,0,-1,229.92,757.68)"
           style="font-variant:normal;font-weight:normal;font-size:10.08px;font-family:'Courier New';-inkscape-font-specification:CourierNew;writing-mode:lr-tb;fill:#0000ff;fill-opacity:1;fill-rule:nonzero;stroke:none"
           id="text104"><tspan
             x="0"
             y="0"
             id="tspan102">&gt;</tspan></text></g><g
         id="g126"
         transform="scale(4.16667)"><text
           transform="matrix(1,0,0,-1,61.92,745.92)"
           style="font-variant:normal;font-weight:normal;font-size:10.08px;font-family:'Courier New';-inkscape-font-specification:CourierNew;writing-mode:lr-tb;fill:#0000ff;fill-opacity:1;fill-rule:nonzero;stroke:none"
           id="text130"><tspan
             x="0 6.0479999 12.096 18.143999 24.191999 30.24 36.287998 42.335999 48.383999 54.431999 60.48 66.528 72.575996 78.624001 84.671997"
             y="0"
             sodipodi:role="line"
             id="tspan128">&lt;xs:enumeration</tspan></text></g><g
         id="g132"
         transform="scale(4.16667)"><text
           transform="matrix(1,0,0,-1,157.92,745.92)"
           style="font-variant:normal;font-weight:normal;font-size:10.08px;font-family:'Courier New';-inkscape-font-specification:CourierNew;writing-mode:lr-tb;fill:#ff0000;fill-opacity:1;fill-rule:nonzero;stroke:none"
           id="text136"><tspan
             x="0 6.0479999 12.096 18.143999 24.191999"
             y="0"
             sodipodi:role="line"
             id="tspan134">value</tspan></text></g><g
         id="g138"
         transform="scale(4.16667)"><text
           transform="matrix(1,0,0,-1,187.92,745.92)"
           style="font-variant:normal;font-weight:normal;font-size:10.08px;font-family:'Courier New';-inkscape-font-specification:CourierNew;writing-mode:lr-tb;fill:#000000;fill-opacity:1;fill-rule:nonzero;stroke:none"
           id="text142"><tspan
             x="0"
             y="0"
             id="tspan140">=</tspan></text></g><g
         id="g144"
         transform="scale(4.16667)"><text
           transform="matrix(1,0,0,-1,193.92,745.92)"
           style="font-variant:normal;font-weight:bold;font-size:10.08px;font-family:'Courier New';-inkscape-font-specification:'CourierNew Bold';writing-mode:lr-tb;fill:#8000ff;fill-opacity:1;fill-rule:nonzero;stroke:none"
           id="text148"><tspan
             x="0 6.0479999 12.096"
             y="0"
             sodipodi:role="line"
             id="tspan146">&quot;S&quot;</tspan></text></g><g
         id="g150"
         transform="scale(4.16667)"><text
           transform="matrix(1,0,0,-1,211.92,745.92)"
           style="font-variant:normal;font-weight:normal;font-size:10.08px;font-family:'Courier New';-inkscape-font-specification:CourierNew;writing-mode:lr-tb;fill:#0000ff;fill-opacity:1;fill-rule:nonzero;stroke:none"
           id="text154"><tspan
             x="0 6.0479999 12.096 18.143999 24.191999 30.24 36.287998 42.335999 48.383999 54.431999 60.48 66.528 72.575996 78.624001 84.671997 90.720001 96.767998 102.816"
             y="0"
             sodipodi:role="line"
             id="tspan152">&gt;&lt;/xs:enumeration&gt;</tspan></text></g><g
         id="g176"
         transform="scale(4.16667)"><text
           transform="matrix(1,0,0,-1,61.92,734.16)"
           style="font-variant:normal;font-weight:normal;font-size:10.08px;font-family:'Courier New';-inkscape-font-specification:CourierNew;writing-mode:lr-tb;fill:#0000ff;fill-opacity:1;fill-rule:nonzero;stroke:none"
           id="text180"><tspan
             x="0 6.0479999 12.096 18.143999 24.191999 30.24 36.287998 42.335999 48.383999 54.431999 60.48 66.528 72.575996 78.624001 84.671997"
             y="0"
             sodipodi:role="line"
             id="tspan178">&lt;xs:enumeration</tspan></text></g><g
         id="g182"
         transform="scale(4.16667)"><text
           transform="matrix(1,0,0,-1,157.92,734.16)"
           style="font-variant:normal;font-weight:normal;font-size:10.08px;font-family:'Courier New';-inkscape-font-specification:CourierNew;writing-mode:lr-tb;fill:#ff0000;fill-opacity:1;fill-rule:nonzero;stroke:none"
           id="text186"><tspan
             x="0 6.0479999 12.096 18.143999 24.191999"
             y="0"
             sodipodi:role="line"
             id="tspan184">value</tspan></text></g><g
         id="g188"
         transform="scale(4.16667)"><text
           transform="matrix(1,0,0,-1,187.92,734.16)"
           style="font-variant:normal;font-weight:normal;font-size:10.08px;font-family:'Courier New';-inkscape-font-specification:CourierNew;writing-mode:lr-tb;fill:#000000;fill-opacity:1;fill-rule:nonzero;stroke:none"
           id="text192"><tspan
             x="0"
             y="0"
             id="tspan190">=</tspan></text></g><g
         id="g194"
         transform="scale(4.16667)"><text
           transform="matrix(1,0,0,-1,193.92,734.16)"
           style="font-variant:normal;font-weight:bold;font-size:10.08px;font-family:'Courier New';-inkscape-font-specification:'CourierNew Bold';writing-mode:lr-tb;fill:#8000ff;fill-opacity:1;fill-rule:nonzero;stroke:none"
           id="text198"><tspan
             x="0 6.0479999 12.096"
             y="0"
             sodipodi:role="line"
             id="tspan196">&quot;M&quot;</tspan></text></g><g
         id="g200"
         transform="scale(4.16667)"><text
           transform="matrix(1,0,0,-1,211.92,734.16)"
           style="font-variant:normal;font-weight:normal;font-size:10.08px;font-family:'Courier New';-inkscape-font-specification:CourierNew;writing-mode:lr-tb;fill:#0000ff;fill-opacity:1;fill-rule:nonzero;stroke:none"
           id="text204"><tspan
             x="0 6.0479999 12.096 18.143999 24.191999 30.24 36.287998 42.335999 48.383999 54.431999 60.48 66.528 72.575996 78.624001 84.671997 90.720001 96.767998 102.816"
             y="0"
             sodipodi:role="line"
             id="tspan202">&gt;&lt;/xs:enumeration&gt;</tspan></text></g><g
         id="g226"
         transform="scale(4.16667)"><text
           transform="matrix(1,0,0,-1,61.92,722.4)"
           style="font-variant:normal;font-weight:normal;font-size:10.08px;font-family:'Courier New';-inkscape-font-specification:CourierNew;writing-mode:lr-tb;fill:#0000ff;fill-opacity:1;fill-rule:nonzero;stroke:none"
           id="text230"><tspan
             x="0 6.0479999 12.096 18.143999 24.191999 30.24 36.287998 42.335999 48.383999 54.431999 60.48 66.528 72.575996 78.624001 84.671997"
             y="0"
             sodipodi:role="line"
             id="tspan228">&lt;xs:enumeration</tspan></text></g><g
         id="g232"
         transform="scale(4.16667)"><text
           transform="matrix(1,0,0,-1,157.92,722.4)"
           style="font-variant:normal;font-weight:normal;font-size:10.08px;font-family:'Courier New';-inkscape-font-specification:CourierNew;writing-mode:lr-tb;fill:#ff0000;fill-opacity:1;fill-rule:nonzero;stroke:none"
           id="text236"><tspan
             x="0 6.0479999 12.096 18.143999 24.191999"
             y="0"
             sodipodi:role="line"
             id="tspan234">value</tspan></text></g><g
         id="g238"
         transform="scale(4.16667)"><text
           transform="matrix(1,0,0,-1,187.92,722.4)"
           style="font-variant:normal;font-weight:normal;font-size:10.08px;font-family:'Courier New';-inkscape-font-specification:CourierNew;writing-mode:lr-tb;fill:#000000;fill-opacity:1;fill-rule:nonzero;stroke:none"
           id="text242"><tspan
             x="0"
             y="0"
             id="tspan240">=</tspan></text></g><g
         id="g244"
         transform="scale(4.16667)"><text
           transform="matrix(1,0,0,-1,193.92,722.4)"
           style="font-variant:normal;font-weight:bold;font-size:10.08px;font-family:'Courier New';-inkscape-font-specification:'CourierNew Bold';writing-mode:lr-tb;fill:#8000ff;fill-opacity:1;fill-rule:nonzero;stroke:none"
           id="text248"><tspan
             x="0 6.0479999 12.096"
             y="0"
             sodipodi:role="line"
             id="tspan246">&quot;L&quot;</tspan></text></g><g
         id="g250"
         transform="scale(4.16667)"><text
           transform="matrix(1,0,0,-1,211.92,722.4)"
           style="font-variant:normal;font-weight:normal;font-size:10.08px;font-family:'Courier New';-inkscape-font-specification:CourierNew;writing-mode:lr-tb;fill:#0000ff;fill-opacity:1;fill-rule:nonzero;stroke:none"
           id="text254"><tspan
             x="0 6.0479999 12.096 18.143999 24.191999 30.24 36.287998 42.335999 48.383999 54.431999 60.48 66.528 72.575996 78.624001 84.671997 90.720001 96.767998 102.816"
             y="0"
             sodipodi:role="line"
             id="tspan252">&gt;&lt;/xs:enumeration&gt;</tspan></text></g><g
         id="g264"
         transform="scale(4.16667)"><text
           transform="matrix(1,0,0,-1,37.92,710.64)"
           style="font-variant:normal;font-weight:normal;font-size:10.08px;font-family:'Courier New';-inkscape-font-specification:CourierNew;writing-mode:lr-tb;fill:#0000ff;fill-opacity:1;fill-rule:nonzero;stroke:none"
           id="text268"><tspan
             x="0 6.0479999 12.096 18.143999 24.191999 30.24 36.287998 42.335999 48.383999 54.431999 60.48 66.528 72.575996 78.624001 84.671997 90.720001 96.767998"
             y="0"
             sodipodi:role="line"
             id="tspan266">&lt;/xs:restriction&gt;</tspan></text></g><g
         id="g276"
         transform="scale(4.16667)"><text
           transform="matrix(1,0,0,-1,13.92,698.88)"
           style="font-variant:normal;font-weight:normal;font-size:10.08px;font-family:'Courier New';-inkscape-font-specification:CourierNew;writing-mode:lr-tb;fill:#0000ff;fill-opacity:1;fill-rule:nonzero;stroke:none"
           id="text280"><tspan
             x="0 6.0479999 12.096 18.143999 24.191999 30.24 36.287998 42.335999 48.383999 54.431999 60.48 66.528 72.575996 78.624001 84.671997 90.720001"
             y="0"
             sodipodi:role="line"
             id="tspan278">&lt;/xs:simpleType&gt;</tspan></text></g><g
         id="g310"
         transform="scale(4.16667)"><text
           transform="matrix(1,0,0,-1,13.92,675.36)"
           style="font-variant:normal;font-weight:normal;font-size:10.08px;font-family:'Courier New';-inkscape-font-specification:CourierNew;writing-mode:lr-tb;fill:#0000ff;fill-opacity:1;fill-rule:nonzero;stroke:none"
           id="text314"><tspan
             x="0 6.0479999 12.096 18.143999 24.191999 30.24 36.287998 42.335999 48.383999 54.431999 60.48 66.528 72.575996 78.624001 84.671997"
             y="0"
             sodipodi:role="line"
             id="tspan312">&lt;xs:complexType</tspan></text></g><g
         id="g316"
         transform="scale(4.16667)"><text
           transform="matrix(1,0,0,-1,109.92,675.36)"
           style="font-variant:normal;font-weight:normal;font-size:10.08px;font-family:'Courier New';-inkscape-font-specification:CourierNew;writing-mode:lr-tb;fill:#ff0000;fill-opacity:1;fill-rule:nonzero;stroke:none"
           id="text320"><tspan
             x="0 6.0479999 12.096 18.143999"
             y="0"
             sodipodi:role="line"
             id="tspan318">name</tspan></text></g><g
         id="g322"
         transform="scale(4.16667)"><text
           transform="matrix(1,0,0,-1,133.92,675.36)"
           style="font-variant:normal;font-weight:normal;font-size:10.08px;font-family:'Courier New';-inkscape-font-specification:CourierNew;writing-mode:lr-tb;fill:#000000;fill-opacity:1;fill-rule:nonzero;stroke:none"
           id="text326"><tspan
             x="0"
             y="0"
             id="tspan324">=</tspan></text></g><g
         id="g328"
         transform="scale(4.16667)"><text
           transform="matrix(1,0,0,-1,139.92,675.36)"
           style="font-variant:normal;font-weight:bold;font-size:10.08px;font-family:'Courier New';-inkscape-font-specification:'CourierNew Bold';writing-mode:lr-tb;fill:#8000ff;fill-opacity:1;fill-rule:nonzero;stroke:none"
           id="text332"><tspan
             x="0 6.0479999 12.096 18.143999 24.191999 30.24 36.287998 42.335999 48.383999 54.431999 60.48"
             y="0"
             sodipodi:role="line"
             id="tspan330">&quot;drinkType&quot;</tspan></text></g><g
         id="g334"
         transform="scale(4.16667)"><text
           transform="matrix(1,0,0,-1,211.92,675.36)"
           style="font-variant:normal;font-weight:normal;font-size:10.08px;font-family:'Courier New';-inkscape-font-specification:CourierNew;writing-mode:lr-tb;fill:#ff0000;fill-opacity:1;fill-rule:nonzero;stroke:none"
           id="text338"><tspan
             x="0 6.0479999 12.096 18.143999 24.191999"
             y="0"
             sodipodi:role="line"
             id="tspan336">mixed</tspan></text></g><g
         id="g340"
         transform="scale(4.16667)"><text
           transform="matrix(1,0,0,-1,241.92,675.36)"
           style="font-variant:normal;font-weight:normal;font-size:10.08px;font-family:'Courier New';-inkscape-font-specification:CourierNew;writing-mode:lr-tb;fill:#000000;fill-opacity:1;fill-rule:nonzero;stroke:none"
           id="text344"><tspan
             x="0"
             y="0"
             id="tspan342">=</tspan></text></g><g
         id="g346"
         transform="scale(4.16667)"><text
           transform="matrix(1,0,0,-1,247.92,675.36)"
           style="font-variant:normal;font-weight:bold;font-size:10.08px;font-family:'Courier New';-inkscape-font-specification:'CourierNew Bold';writing-mode:lr-tb;fill:#8000ff;fill-opacity:1;fill-rule:nonzero;stroke:none"
           id="text350"><tspan
             x="0 6.0479999 12.096 18.143999 24.191999 30.24"
             y="0"
             sodipodi:role="line"
             id="tspan348">&quot;true&quot;</tspan></text></g><g
         id="g352"
         transform="scale(4.16667)"><text
           transform="matrix(1,0,0,-1,283.92,675.36)"
           style="font-variant:normal;font-weight:normal;font-size:10.08px;font-family:'Courier New';-inkscape-font-specification:CourierNew;writing-mode:lr-tb;fill:#0000ff;fill-opacity:1;fill-rule:nonzero;stroke:none"
           id="text356"><tspan
             x="0"
             y="0"
             id="tspan354">&gt;</tspan></text></g><g
         id="g366"
         transform="scale(4.16667)"><text
           transform="matrix(1,0,0,-1,37.92,663.6)"
           style="font-variant:normal;font-weight:normal;font-size:10.08px;font-family:'Courier New';-inkscape-font-specification:CourierNew;writing-mode:lr-tb;fill:#0000ff;fill-opacity:1;fill-rule:nonzero;stroke:none"
           id="text370"><tspan
             x="0 6.0479999 12.096 18.143999 24.191999 30.24 36.287998 42.335999 48.383999 54.431999 60.48 66.528 72.575996 78.624001 84.671997 90.720001 96.767998 102.816"
             y="0"
             sodipodi:role="line"
             id="tspan368">&lt;xs:simpleContent&gt;</tspan></text></g><g
         id="g392"
         transform="scale(4.16667)"><text
           transform="matrix(1,0,0,-1,61.92,651.84)"
           style="font-variant:normal;font-weight:normal;font-size:10.08px;font-family:'Courier New';-inkscape-font-specification:CourierNew;writing-mode:lr-tb;fill:#0000ff;fill-opacity:1;fill-rule:nonzero;stroke:none"
           id="text396"><tspan
             x="0 6.0479999 12.096 18.143999 24.191999 30.24 36.287998 42.335999 48.383999 54.431999 60.48 66.528 72.575996"
             y="0"
             sodipodi:role="line"
             id="tspan394">&lt;xs:extension</tspan></text></g><g
         id="g398"
         transform="scale(4.16667)"><text
           transform="matrix(1,0,0,-1,145.92,651.84)"
           style="font-variant:normal;font-weight:normal;font-size:10.08px;font-family:'Courier New';-inkscape-font-specification:CourierNew;writing-mode:lr-tb;fill:#ff0000;fill-opacity:1;fill-rule:nonzero;stroke:none"
           id="text402"><tspan
             x="0 6.0479999 12.096 18.143999"
             y="0"
             sodipodi:role="line"
             id="tspan400">base</tspan></text></g><g
         id="g404"
         transform="scale(4.16667)"><text
           transform="matrix(1,0,0,-1,169.92,651.84)"
           style="font-variant:normal;font-weight:normal;font-size:10.08px;font-family:'Courier New';-inkscape-font-specification:CourierNew;writing-mode:lr-tb;fill:#000000;fill-opacity:1;fill-rule:nonzero;stroke:none"
           id="text408"><tspan
             x="0"
             y="0"
             id="tspan406">=</tspan></text></g><g
         id="g410"
         transform="scale(4.16667)"><text
           transform="matrix(1,0,0,-1,175.92,651.84)"
           style="font-variant:normal;font-weight:bold;font-size:10.08px;font-family:'Courier New';-inkscape-font-specification:'CourierNew Bold';writing-mode:lr-tb;fill:#8000ff;fill-opacity:1;fill-rule:nonzero;stroke:none"
           id="text414"><tspan
             x="0 6.0479999 12.096 18.143999 24.191999 30.24 36.287998 42.335999 48.383999 54.431999 60.48 66.528 72.575996 78.624001 84.671997 90.720001"
             y="0"
             sodipodi:role="line"
             id="tspan412">&quot;enumStringType&quot;</tspan></text></g><g
         id="g416"
         transform="scale(4.16667)"><text
           transform="matrix(1,0,0,-1,271.92,651.84)"
           style="font-variant:normal;font-weight:normal;font-size:10.08px;font-family:'Courier New';-inkscape-font-specification:CourierNew;writing-mode:lr-tb;fill:#0000ff;fill-opacity:1;fill-rule:nonzero;stroke:none"
           id="text420"><tspan
             x="0"
             y="0"
             id="tspan418">&gt;</tspan></text></g><g
         id="g452"
         transform="scale(4.16667)"><text
           transform="matrix(1,0,0,-1,85.92,640.08)"
           style="font-variant:normal;font-weight:normal;font-size:10.08px;font-family:'Courier New';-inkscape-font-specification:CourierNew;writing-mode:lr-tb;fill:#0000ff;fill-opacity:1;fill-rule:nonzero;stroke:none"
           id="text456"><tspan
             x="0 6.0479999 12.096 18.143999 24.191999 30.24 36.287998 42.335999 48.383999 54.431999 60.48 66.528 72.575996"
             y="0"
             sodipodi:role="line"
             id="tspan454">&lt;xs:attribute</tspan></text></g><g
         id="g458"
         transform="scale(4.16667)"><text
           transform="matrix(1,0,0,-1,169.92,640.08)"
           style="font-variant:normal;font-weight:normal;font-size:10.08px;font-family:'Courier New';-inkscape-font-specification:CourierNew;writing-mode:lr-tb;fill:#ff0000;fill-opacity:1;fill-rule:nonzero;stroke:none"
           id="text462"><tspan
             x="0 6.0479999 12.096 18.143999"
             y="0"
             sodipodi:role="line"
             id="tspan460">name</tspan></text></g><g
         id="g464"
         transform="scale(4.16667)"><text
           transform="matrix(1,0,0,-1,193.92,640.08)"
           style="font-variant:normal;font-weight:normal;font-size:10.08px;font-family:'Courier New';-inkscape-font-specification:CourierNew;writing-mode:lr-tb;fill:#000000;fill-opacity:1;fill-rule:nonzero;stroke:none"
           id="text468"><tspan
             x="0"
             y="0"
             id="tspan466">=</tspan></text></g><g
         id="g470"
         transform="scale(4.16667)"><text
           transform="matrix(1,0,0,-1,199.92,640.08)"
           style="font-variant:normal;font-weight:bold;font-size:10.08px;font-family:'Courier New';-inkscape-font-specification:'CourierNew Bold';writing-mode:lr-tb;fill:#8000ff;fill-opacity:1;fill-rule:nonzero;stroke:none"
           id="text474"><tspan
             x="0 6.0479999 12.096 18.143999 24.191999"
             y="0"
             sodipodi:role="line"
             id="tspan472">&quot;cat&quot;</tspan></text></g><g
         id="g476"
         transform="scale(4.16667)"><text
           transform="matrix(1,0,0,-1,235.92,640.08)"
           style="font-variant:normal;font-weight:normal;font-size:10.08px;font-family:'Courier New';-inkscape-font-specification:CourierNew;writing-mode:lr-tb;fill:#ff0000;fill-opacity:1;fill-rule:nonzero;stroke:none"
           id="text480"><tspan
             x="0 6.0479999 12.096 18.143999"
             y="0"
             sodipodi:role="line"
             id="tspan478">type</tspan></text></g><g
         id="g482"
         transform="scale(4.16667)"><text
           transform="matrix(1,0,0,-1,259.92,640.08)"
           style="font-variant:normal;font-weight:normal;font-size:10.08px;font-family:'Courier New';-inkscape-font-specification:CourierNew;writing-mode:lr-tb;fill:#000000;fill-opacity:1;fill-rule:nonzero;stroke:none"
           id="text486"><tspan
             x="0"
             y="0"
             id="tspan484">=</tspan></text></g><g
         id="g488"
         transform="scale(4.16667)"><text
           transform="matrix(1,0,0,-1,265.92,640.08)"
           style="font-variant:normal;font-weight:bold;font-size:10.08px;font-family:'Courier New';-inkscape-font-specification:'CourierNew Bold';writing-mode:lr-tb;fill:#8000ff;fill-opacity:1;fill-rule:nonzero;stroke:none"
           id="text492"><tspan
             x="0 6.0479999 12.096 18.143999 24.191999 30.24 36.287998 42.335999 48.383999 54.431999 60.48"
             y="0"
             sodipodi:role="line"
             id="tspan490">&quot;xs:string&quot;</tspan></text></g><g
         id="g494"
         transform="scale(4.16667)"><text
           transform="matrix(1,0,0,-1,331.92,640.08)"
           style="font-variant:normal;font-weight:normal;font-size:10.08px;font-family:'Courier New';-inkscape-font-specification:CourierNew;writing-mode:lr-tb;fill:#0000ff;fill-opacity:1;fill-rule:nonzero;stroke:none"
           id="text498"><tspan
             x="0"
             y="0"
             id="tspan496">&gt;</tspan></text></g><g
         id="g512"
         transform="scale(4.16667)"><text
           transform="matrix(1,0,0,-1,85.92,628.32)"
           style="font-variant:normal;font-weight:normal;font-size:10.08px;font-family:'Courier New';-inkscape-font-specification:CourierNew;writing-mode:lr-tb;fill:#0000ff;fill-opacity:1;fill-rule:nonzero;stroke:none"
           id="text516"><tspan
             x="0 6.0479999 12.096 18.143999 24.191999 30.24 36.287998 42.335999 48.383999 54.431999 60.48 66.528 72.575996 78.624001 84.671997"
             y="0"
             sodipodi:role="line"
             id="tspan514">&lt;/xs:attribute&gt;</tspan></text></g><g
         id="g528"
         transform="scale(4.16667)"><text
           transform="matrix(1,0,0,-1,61.92,616.56)"
           style="font-variant:normal;font-weight:normal;font-size:10.08px;font-family:'Courier New';-inkscape-font-specification:CourierNew;writing-mode:lr-tb;fill:#0000ff;fill-opacity:1;fill-rule:nonzero;stroke:none"
           id="text532"><tspan
             x="0 6.0479999 12.096 18.143999 24.191999 30.24 36.287998 42.335999 48.383999 54.431999 60.48 66.528 72.575996 78.624001 84.671997"
             y="0"
             sodipodi:role="line"
             id="tspan530">&lt;/xs:extension&gt;</tspan></text></g><g
         id="g542"
         transform="scale(4.16667)"><text
           transform="matrix(1,0,0,-1,37.92,604.8)"
           style="font-variant:normal;font-weight:normal;font-size:10.08px;font-family:'Courier New';-inkscape-font-specification:CourierNew;writing-mode:lr-tb;fill:#0000ff;fill-opacity:1;fill-rule:nonzero;stroke:none"
           id="text546"><tspan
             x="0 6.0479999 12.096 18.143999 24.191999 30.24 36.287998 42.335999 48.383999 54.431999 60.48 66.528 72.575996 78.624001 84.671997 90.720001 96.767998 102.816 108.864"
             y="0"
             sodipodi:role="line"
             id="tspan544">&lt;/xs:simpleContent&gt;</tspan></text></g><g
         id="g554"
         transform="scale(4.16667)"><text
           transform="matrix(1,0,0,-1,13.92,593.04)"
           style="font-variant:normal;font-weight:normal;font-size:10.08px;font-family:'Courier New';-inkscape-font-specification:CourierNew;writing-mode:lr-tb;fill:#0000ff;fill-opacity:1;fill-rule:nonzero;stroke:none"
           id="text558"><tspan
             x="0 6.0479999 12.096 18.143999 24.191999 30.24 36.287998 42.335999 48.383999 54.431999 60.48 66.528 72.575996 78.624001 84.671997 90.720001 96.767998"
             y="0"
             sodipodi:role="line"
             id="tspan556">&lt;/xs:complexType&gt;</tspan></text></g><g
         id="g588"
         transform="scale(4.16667)"><text
           transform="matrix(1,0,0,-1,13.92,569.52)"
           style="font-variant:normal;font-weight:normal;font-size:10.08px;font-family:'Courier New';-inkscape-font-specification:CourierNew;writing-mode:lr-tb;fill:#0000ff;fill-opacity:1;fill-rule:nonzero;stroke:none"
           id="text592"><tspan
             x="0 6.0479999 12.096 18.143999 24.191999 30.24 36.287998 42.335999 48.383999 54.431999 60.48"
             y="0"
             sodipodi:role="line"
             id="tspan590">&lt;xs:element</tspan></text></g><g
         id="g594"
         transform="scale(4.16667)"><text
           transform="matrix(1,0,0,-1,85.92,569.52)"
           style="font-variant:normal;font-weight:normal;font-size:10.08px;font-family:'Courier New';-inkscape-font-specification:CourierNew;writing-mode:lr-tb;fill:#ff0000;fill-opacity:1;fill-rule:nonzero;stroke:none"
           id="text598"><tspan
             x="0 6.0479999 12.096 18.143999"
             y="0"
             sodipodi:role="line"
             id="tspan596">name</tspan></text></g><g
         id="g600"
         transform="scale(4.16667)"><text
           transform="matrix(1,0,0,-1,109.92,569.52)"
           style="font-variant:normal;font-weight:normal;font-size:10.08px;font-family:'Courier New';-inkscape-font-specification:CourierNew;writing-mode:lr-tb;fill:#000000;fill-opacity:1;fill-rule:nonzero;stroke:none"
           id="text604"><tspan
             x="0"
             y="0"
             id="tspan602">=</tspan></text></g><g
         id="g606"
         transform="scale(4.16667)"><text
           transform="matrix(1,0,0,-1,115.92,569.52)"
           style="font-variant:normal;font-weight:bold;font-size:10.08px;font-family:'Courier New';-inkscape-font-specification:'CourierNew Bold';writing-mode:lr-tb;fill:#8000ff;fill-opacity:1;fill-rule:nonzero;stroke:none"
           id="text610"><tspan
             x="0 6.0479999 12.096 18.143999 24.191999 30.24 36.287998"
             y="0"
             sodipodi:role="line"
             id="tspan608">&quot;drink&quot;</tspan></text></g><g
         id="g612"
         transform="scale(4.16667)"><text
           transform="matrix(1,0,0,-1,163.92,569.52)"
           style="font-variant:normal;font-weight:normal;font-size:10.08px;font-family:'Courier New';-inkscape-font-specification:CourierNew;writing-mode:lr-tb;fill:#ff0000;fill-opacity:1;fill-rule:nonzero;stroke:none"
           id="text616"><tspan
             x="0 6.0479999 12.096 18.143999"
             y="0"
             sodipodi:role="line"
             id="tspan614">type</tspan></text></g><g
         id="g618"
         transform="scale(4.16667)"><text
           transform="matrix(1,0,0,-1,187.92,569.52)"
           style="font-variant:normal;font-weight:normal;font-size:10.08px;font-family:'Courier New';-inkscape-font-specification:CourierNew;writing-mode:lr-tb;fill:#000000;fill-opacity:1;fill-rule:nonzero;stroke:none"
           id="text622"><tspan
             x="0"
             y="0"
             id="tspan620">=</tspan></text></g><g
         id="g624"
         transform="scale(4.16667)"><text
           transform="matrix(1,0,0,-1,193.92,569.52)"
           style="font-variant:normal;font-weight:bold;font-size:10.08px;font-family:'Courier New';-inkscape-font-specification:'CourierNew Bold';writing-mode:lr-tb;fill:#8000ff;fill-opacity:1;fill-rule:nonzero;stroke:none"
           id="text628"><tspan
             x="0 6.0479999 12.096 18.143999 24.191999 30.24 36.287998 42.335999 48.383999 54.431999 60.48"
             y="0"
             sodipodi:role="line"
             id="tspan626">&quot;drinkType&quot;</tspan></text></g><g
         id="g630"
         transform="scale(4.16667)"><text
           transform="matrix(1,0,0,-1,259.92,569.52)"
           style="font-variant:normal;font-weight:normal;font-size:10.08px;font-family:'Courier New';-inkscape-font-specification:CourierNew;writing-mode:lr-tb;fill:#0000ff;fill-opacity:1;fill-rule:nonzero;stroke:none"
           id="text634"><tspan
             x="0 6.0479999"
             y="0"
             sodipodi:role="line"
             id="tspan632">/&gt;</tspan></text></g></g></g></svg>
