<?xml version="1.0" encoding="UTF-8" standalone="no"?>
<!-- Created with Inkscape (http://www.inkscape.org/) -->

<svg
   version="1.1"
   id="svg2"
   xml:space="preserve"
   width="382.84335"
   height="78.400002"
   viewBox="0 0 382.84335 78.400002"
   sodipodi:docname="xsd_empty_elements_name_type.svg"
   inkscape:version="1.1.1 (3bf5ae0d25, 2021-09-20)"
   xmlns:inkscape="http://www.inkscape.org/namespaces/inkscape"
   xmlns:sodipodi="http://sodipodi.sourceforge.net/DTD/sodipodi-0.dtd"
   xmlns="http://www.w3.org/2000/svg"
   xmlns:svg="http://www.w3.org/2000/svg"><defs
     id="defs6" /><sodipodi:namedview
     id="namedview4"
     pagecolor="#ffffff"
     bordercolor="#666666"
     borderopacity="1.0"
     inkscape:pageshadow="2"
     inkscape:pageopacity="0.0"
     inkscape:pagecheckerboard="0"
     showgrid="false"
     inkscape:zoom="1.4223485"
     inkscape:cx="256.26631"
     inkscape:cy="49.214381"
     inkscape:window-width="1862"
     inkscape:window-height="936"
     inkscape:window-x="-8"
     inkscape:window-y="-8"
     inkscape:window-maximized="1"
     inkscape:current-layer="g8" /><g
     id="g8"
     inkscape:groupmode="layer"
     inkscape:label="C__Users_Behnam_Desktop_tmp"
     transform="matrix(1.3333333,0,0,-1.3333333,-19.20314,1037.44)"><g
       id="g10"
       transform="scale(0.24)"><path
         d="m 433,3193 h 25 v 49 h -25 z"
         style="fill:#ffffff;fill-opacity:1;fill-rule:nonzero;stroke:none"
         id="path14" /><path
         d="m 458,3193 h 100 v 49 H 458 Z"
         style="fill:#ffffff;fill-opacity:1;fill-rule:nonzero;stroke:none"
         id="path16" /><path
         d="m 558,3193 h 25 v 49 h -25 z"
         style="fill:#ffffff;fill-opacity:1;fill-rule:nonzero;stroke:none"
         id="path18" /><path
         d="m 583,3193 h 325 v 49 H 583 Z"
         style="fill:#ffffff;fill-opacity:1;fill-rule:nonzero;stroke:none"
         id="path20" /><path
         d="m 908,3193 h 25 v 49 h -25 z"
         style="fill:#ffffff;fill-opacity:1;fill-rule:nonzero;stroke:none"
         id="path22" /><g
         id="g28"
         transform="scale(4.16667)"><text
           transform="matrix(1,0,0,-1,13.92,769.44)"
           style="font-variant:normal;font-weight:normal;font-size:10.08px;font-family:'Courier New';-inkscape-font-specification:CourierNew;writing-mode:lr-tb;fill:#0000ff;fill-opacity:1;fill-rule:nonzero;stroke:none"
           id="text32"><tspan
             x="0 6.0479999 12.096 18.143999 24.191999 30.24 36.287998 42.335999 48.383999 54.431999 60.48 66.528 72.575996 78.624001 84.671997"
             y="0"
             sodipodi:role="line"
             id="tspan30">&lt;xs:complexType</tspan></text></g><g
         id="g34"
         transform="scale(4.16667)"><text
           transform="matrix(1,0,0,-1,109.92,769.44)"
           style="font-variant:normal;font-weight:normal;font-size:10.08px;font-family:'Courier New';-inkscape-font-specification:CourierNew;writing-mode:lr-tb;fill:#ff0000;fill-opacity:1;fill-rule:nonzero;stroke:none"
           id="text38"><tspan
             x="0 6.0479999 12.096 18.143999"
             y="0"
             sodipodi:role="line"
             id="tspan36">name</tspan></text></g><g
         id="g40"
         transform="scale(4.16667)"><text
           transform="matrix(1,0,0,-1,133.92,769.44)"
           style="font-variant:normal;font-weight:normal;font-size:10.08px;font-family:'Courier New';-inkscape-font-specification:CourierNew;writing-mode:lr-tb;fill:#000000;fill-opacity:1;fill-rule:nonzero;stroke:none"
           id="text44"><tspan
             x="0"
             y="0"
             id="tspan42">=</tspan></text></g><g
         id="g46"
         transform="scale(4.16667)"><text
           transform="matrix(1,0,0,-1,139.92,769.44)"
           style="font-variant:normal;font-weight:bold;font-size:10.08px;font-family:'Courier New';-inkscape-font-specification:'CourierNew Bold';writing-mode:lr-tb;fill:#8000ff;fill-opacity:1;fill-rule:nonzero;stroke:none"
           id="text50"><tspan
             x="0 6.0479999 12.096 18.143999 24.191999 30.24 36.287998 42.335999 48.383999 54.431999 60.48 66.528 72.575996"
             y="0"
             sodipodi:role="line"
             id="tspan48">&quot;productType&quot;</tspan></text></g><path
         d="m 433,3144 h 25 v 49 h -25 z"
         style="fill:#ffffff;fill-opacity:1;fill-rule:nonzero;stroke:none"
         id="path62" /><path
         d="m 458,3144 h 100 v 49 H 458 Z"
         style="fill:#ffffff;fill-opacity:1;fill-rule:nonzero;stroke:none"
         id="path64" /><path
         d="m 683,3144 h 25 v 49 h -25 z"
         style="fill:#ffffff;fill-opacity:1;fill-rule:nonzero;stroke:none"
         id="path70" /><path
         d="m 808,3144 h 25 v 49 h -25 z"
         style="fill:#ffffff;fill-opacity:1;fill-rule:nonzero;stroke:none"
         id="path74" /><path
         d="m 1133,3144 h 25 v 49 h -25 z"
         style="fill:#ffffff;fill-opacity:1;fill-rule:nonzero;stroke:none"
         id="path78" /><g
         id="g86"
         transform="scale(4.16667)"><text
           transform="matrix(1,0,0,-1,25.92,757.68)"
           style="font-variant:normal;font-weight:normal;font-size:10.08px;font-family:'Courier New';-inkscape-font-specification:CourierNew;writing-mode:lr-tb;fill:#0000ff;fill-opacity:1;fill-rule:nonzero;stroke:none"
           id="text90"><tspan
             x="0 6.0479999 12.096 18.143999 24.191999 30.24 36.287998 42.335999 48.383999 54.431999 60.48 66.528 72.575996"
             y="0"
             sodipodi:role="line"
             id="tspan88">&lt;xs:attribute</tspan></text></g><g
         id="g92"
         transform="scale(4.16667)"><text
           transform="matrix(1,0,0,-1,109.92,757.68)"
           style="font-variant:normal;font-weight:normal;font-size:10.08px;font-family:'Courier New';-inkscape-font-specification:CourierNew;writing-mode:lr-tb;fill:#ff0000;fill-opacity:1;fill-rule:nonzero;stroke:none"
           id="text96"><tspan
             x="0 6.0479999 12.096 18.143999"
             y="0"
             sodipodi:role="line"
             id="tspan94">name</tspan></text></g><g
         id="g98"
         transform="scale(4.16667)"><text
           transform="matrix(1,0,0,-1,133.92,757.68)"
           style="font-variant:normal;font-weight:normal;font-size:10.08px;font-family:'Courier New';-inkscape-font-specification:CourierNew;writing-mode:lr-tb;fill:#000000;fill-opacity:1;fill-rule:nonzero;stroke:none"
           id="text102"><tspan
             x="0"
             y="0"
             id="tspan100">=</tspan></text></g><g
         id="g104"
         transform="scale(4.16667)"><text
           transform="matrix(1,0,0,-1,139.92,757.68)"
           style="font-variant:normal;font-weight:bold;font-size:10.08px;font-family:'Courier New';-inkscape-font-specification:'CourierNew Bold';writing-mode:lr-tb;fill:#8000ff;fill-opacity:1;fill-rule:nonzero;stroke:none"
           id="text108"><tspan
             x="0 6.0479999 12.096 18.143999"
             y="0"
             sodipodi:role="line"
             id="tspan106">&quot;id&quot;</tspan></text></g><g
         id="g110"
         transform="scale(4.16667)"><text
           transform="matrix(1,0,0,-1,169.92,757.68)"
           style="font-variant:normal;font-weight:normal;font-size:10.08px;font-family:'Courier New';-inkscape-font-specification:CourierNew;writing-mode:lr-tb;fill:#ff0000;fill-opacity:1;fill-rule:nonzero;stroke:none"
           id="text114"><tspan
             x="0 6.0479999 12.096 18.143999"
             y="0"
             sodipodi:role="line"
             id="tspan112">type</tspan></text></g><g
         id="g116"
         transform="scale(4.16667)"><text
           transform="matrix(1,0,0,-1,193.92,757.68)"
           style="font-variant:normal;font-weight:normal;font-size:10.08px;font-family:'Courier New';-inkscape-font-specification:CourierNew;writing-mode:lr-tb;fill:#000000;fill-opacity:1;fill-rule:nonzero;stroke:none"
           id="text120"><tspan
             x="0"
             y="0"
             id="tspan118">=</tspan></text></g><g
         id="g122"
         transform="scale(4.16667)"><text
           transform="matrix(1,0,0,-1,199.92,757.68)"
           style="font-variant:normal;font-weight:bold;font-size:10.08px;font-family:'Courier New';-inkscape-font-specification:'CourierNew Bold';writing-mode:lr-tb;fill:#8000ff;fill-opacity:1;fill-rule:nonzero;stroke:none"
           id="text126"><tspan
             x="0 6.0479999 12.096 18.143999 24.191999 30.24 36.287998 42.335999 48.383999 54.431999 60.48 66.528"
             y="0"
             sodipodi:role="line"
             id="tspan124">&quot;xs:integer&quot;</tspan></text></g><g
         id="g128"
         transform="scale(4.16667)"><text
           transform="matrix(1,0,0,-1,277.92,757.68)"
           style="font-variant:normal;font-weight:normal;font-size:10.08px;font-family:'Courier New';-inkscape-font-specification:CourierNew;writing-mode:lr-tb;fill:#0000ff;fill-opacity:1;fill-rule:nonzero;stroke:none"
           id="text132"><tspan
             x="0 6.0479999"
             y="0"
             sodipodi:role="line"
             id="tspan130">/&gt;</tspan></text></g><g
         id="g140"
         transform="scale(4.16667)"><text
           transform="matrix(1,0,0,-1,13.92,745.92)"
           style="font-variant:normal;font-weight:normal;font-size:10.08px;font-family:'Courier New';-inkscape-font-specification:CourierNew;writing-mode:lr-tb;fill:#0000ff;fill-opacity:1;fill-rule:nonzero;stroke:none"
           id="text144"><tspan
             x="0 6.0479999 12.096 18.143999 24.191999 30.24 36.287998 42.335999 48.383999 54.431999 60.48 66.528 72.575996 78.624001 84.671997 90.720001 96.767998"
             y="0"
             sodipodi:role="line"
             id="tspan142">&lt;/xs:complexType&gt;</tspan></text></g><path
         d="m 333,2997 h 25 v 49 h -25 z"
         style="fill:#ffffff;fill-opacity:1;fill-rule:nonzero;stroke:none"
         id="path152" /><path
         d="m 458,2997 h 25 v 49 h -25 z"
         style="fill:#ffffff;fill-opacity:1;fill-rule:nonzero;stroke:none"
         id="path156" /><path
         d="m 708,2997 h 25 v 49 h -25 z"
         style="fill:#ffffff;fill-opacity:1;fill-rule:nonzero;stroke:none"
         id="path160" /><path
         d="m 833,2997 h 25 v 49 h -25 z"
         style="fill:#ffffff;fill-opacity:1;fill-rule:nonzero;stroke:none"
         id="path164" /><path
         d="m 1183,2997 h 25 v 49 h -25 z"
         style="fill:#ffffff;fill-opacity:1;fill-rule:nonzero;stroke:none"
         id="path168" /><g
         id="g176"
         transform="scale(4.16667)"><text
           transform="matrix(1,0,0,-1,13.92,722.4)"
           style="font-variant:normal;font-weight:normal;font-size:10.08px;font-family:'Courier New';-inkscape-font-specification:CourierNew;writing-mode:lr-tb;fill:#0000ff;fill-opacity:1;fill-rule:nonzero;stroke:none"
           id="text180"><tspan
             x="0 6.0479999 12.096 18.143999 24.191999 30.24 36.287998 42.335999 48.383999 54.431999 60.48"
             y="0"
             sodipodi:role="line"
             id="tspan178">&lt;xs:element</tspan></text></g><g
         id="g182"
         transform="scale(4.16667)"><text
           transform="matrix(1,0,0,-1,85.92,722.4)"
           style="font-variant:normal;font-weight:normal;font-size:10.08px;font-family:'Courier New';-inkscape-font-specification:CourierNew;writing-mode:lr-tb;fill:#ff0000;fill-opacity:1;fill-rule:nonzero;stroke:none"
           id="text186"><tspan
             x="0 6.0479999 12.096 18.143999"
             y="0"
             sodipodi:role="line"
             id="tspan184">name</tspan></text></g><g
         id="g188"
         transform="scale(4.16667)"><text
           transform="matrix(1,0,0,-1,109.92,722.4)"
           style="font-variant:normal;font-weight:normal;font-size:10.08px;font-family:'Courier New';-inkscape-font-specification:CourierNew;writing-mode:lr-tb;fill:#000000;fill-opacity:1;fill-rule:nonzero;stroke:none"
           id="text192"><tspan
             x="0"
             y="0"
             id="tspan190">=</tspan></text></g><g
         id="g194"
         transform="scale(4.16667)"><text
           transform="matrix(1,0,0,-1,115.92,722.4)"
           style="font-variant:normal;font-weight:bold;font-size:10.08px;font-family:'Courier New';-inkscape-font-specification:'CourierNew Bold';writing-mode:lr-tb;fill:#8000ff;fill-opacity:1;fill-rule:nonzero;stroke:none"
           id="text198"><tspan
             x="0 6.0479999 12.096 18.143999 24.191999 30.24 36.287998 42.335999 48.383999"
             y="0"
             sodipodi:role="line"
             id="tspan196">&quot;product&quot;</tspan></text></g><g
         id="g200"
         transform="scale(4.16667)"><text
           transform="matrix(1,0,0,-1,175.92,722.4)"
           style="font-variant:normal;font-weight:normal;font-size:10.08px;font-family:'Courier New';-inkscape-font-specification:CourierNew;writing-mode:lr-tb;fill:#ff0000;fill-opacity:1;fill-rule:nonzero;stroke:none"
           id="text204"><tspan
             x="0 6.0479999 12.096 18.143999"
             y="0"
             sodipodi:role="line"
             id="tspan202">type</tspan></text></g><g
         id="g206"
         transform="scale(4.16667)"><text
           transform="matrix(1,0,0,-1,199.92,722.4)"
           style="font-variant:normal;font-weight:normal;font-size:10.08px;font-family:'Courier New';-inkscape-font-specification:CourierNew;writing-mode:lr-tb;fill:#000000;fill-opacity:1;fill-rule:nonzero;stroke:none"
           id="text210"><tspan
             x="0"
             y="0"
             id="tspan208">=</tspan></text></g><g
         id="g212"
         transform="scale(4.16667)"><text
           transform="matrix(1,0,0,-1,205.92,722.4)"
           style="font-variant:normal;font-weight:bold;font-size:10.08px;font-family:'Courier New';-inkscape-font-specification:'CourierNew Bold';writing-mode:lr-tb;fill:#8000ff;fill-opacity:1;fill-rule:nonzero;stroke:none"
           id="text216"><tspan
             x="0 6.0479999 12.096 18.143999 24.191999 30.24 36.287998 42.335999 48.383999 54.431999 60.48 66.528 72.575996"
             y="0"
             sodipodi:role="line"
             id="tspan214">&quot;productType&quot;</tspan></text></g><g
         id="g218"
         transform="scale(4.16667)"><text
           transform="matrix(1,0,0,-1,289.92,722.4)"
           style="font-variant:normal;font-weight:normal;font-size:10.08px;font-family:'Courier New';-inkscape-font-specification:CourierNew;writing-mode:lr-tb;fill:#0000ff;fill-opacity:1;fill-rule:nonzero;stroke:none"
           id="text222"><tspan
             x="0 6.0479999"
             y="0"
             sodipodi:role="line"
             id="tspan220">/&gt;</tspan></text></g></g></g></svg>
