<?xml version="1.0" encoding="UTF-8" standalone="no"?>
<!-- Created with Inkscape (http://www.inkscape.org/) -->

<svg
   version="1.1"
   id="svg2"
   xml:space="preserve"
   width="360"
   height="62.719997"
   viewBox="0 0 360 62.719997"
   sodipodi:docname="xsd_simple_elements.svg"
   inkscape:version="1.1.1 (3bf5ae0d25, 2021-09-20)"
   xmlns:inkscape="http://www.inkscape.org/namespaces/inkscape"
   xmlns:sodipodi="http://sodipodi.sourceforge.net/DTD/sodipodi-0.dtd"
   xmlns="http://www.w3.org/2000/svg"
   xmlns:svg="http://www.w3.org/2000/svg"><defs
     id="defs6" /><sodipodi:namedview
     id="namedview4"
     pagecolor="#ffffff"
     bordercolor="#666666"
     borderopacity="1.0"
     inkscape:pageshadow="2"
     inkscape:pageopacity="0.0"
     inkscape:pagecheckerboard="0"
     showgrid="false"
     inkscape:zoom="2.844697"
     inkscape:cx="241.32623"
     inkscape:cy="89.640479"
     inkscape:window-width="1862"
     inkscape:window-height="936"
     inkscape:window-x="-8"
     inkscape:window-y="-8"
     inkscape:window-maximized="1"
     inkscape:current-layer="g10" /><g
     id="g8"
     inkscape:groupmode="layer"
     inkscape:label="C__Users_Behnam_Desktop_tmp"
     transform="matrix(1.3333333,0,0,-1.3333333,-18.56,1037.44)"><g
       id="g10"
       transform="scale(0.24)"><g
         id="g38"
         transform="scale(4.16667)"><text
           transform="matrix(1,0,0,-1,13.92,769.44)"
           style="font-variant:normal;font-weight:normal;font-size:10.08px;font-family:'Courier New';-inkscape-font-specification:CourierNew;writing-mode:lr-tb;fill:#0000ff;fill-opacity:1;fill-rule:nonzero;stroke:none"
           id="text42"><tspan
             x="0 6.0479999 12.096 18.143999 24.191999 30.24 36.287998 42.335999 48.383999 54.431999 60.48"
             y="0"
             sodipodi:role="line"
             id="tspan40">&lt;xs:element</tspan></text></g><g
         id="g44"
         transform="scale(4.16667)"><text
           transform="matrix(1,0,0,-1,85.92,769.44)"
           style="font-variant:normal;font-weight:normal;font-size:10.08px;font-family:'Courier New';-inkscape-font-specification:CourierNew;writing-mode:lr-tb;fill:#ff0000;fill-opacity:1;fill-rule:nonzero;stroke:none"
           id="text48"><tspan
             x="0 6.0479999 12.096 18.143999"
             y="0"
             sodipodi:role="line"
             id="tspan46">name</tspan></text></g><g
         id="g50"
         transform="scale(4.16667)"><text
           transform="matrix(1,0,0,-1,109.92,769.44)"
           style="font-variant:normal;font-weight:normal;font-size:10.08px;font-family:'Courier New';-inkscape-font-specification:CourierNew;writing-mode:lr-tb;fill:#000000;fill-opacity:1;fill-rule:nonzero;stroke:none"
           id="text54"><tspan
             x="0"
             y="0"
             id="tspan52">=</tspan></text></g><g
         id="g56"
         transform="scale(4.16667)"><text
           transform="matrix(1,0,0,-1,115.92,769.44)"
           style="font-variant:normal;font-weight:bold;font-size:10.08px;font-family:'Courier New';-inkscape-font-specification:'CourierNew Bold';writing-mode:lr-tb;fill:#8000ff;fill-opacity:1;fill-rule:nonzero;stroke:none"
           id="text60"><tspan
             x="0 6.0479999 12.096 18.143999 24.191999 30.24 36.287998"
             y="0"
             sodipodi:role="line"
             id="tspan58">&quot;title&quot;</tspan></text></g><g
         id="g62"
         transform="scale(4.16667)"><text
           transform="matrix(1,0,0,-1,163.92,769.44)"
           style="font-variant:normal;font-weight:normal;font-size:10.08px;font-family:'Courier New';-inkscape-font-specification:CourierNew;writing-mode:lr-tb;fill:#ff0000;fill-opacity:1;fill-rule:nonzero;stroke:none"
           id="text66"><tspan
             x="0 6.0479999 12.096 18.143999"
             y="0"
             sodipodi:role="line"
             id="tspan64">type</tspan></text></g><g
         id="g68"
         transform="scale(4.16667)"><text
           transform="matrix(1,0,0,-1,187.92,769.44)"
           style="font-variant:normal;font-weight:normal;font-size:10.08px;font-family:'Courier New';-inkscape-font-specification:CourierNew;writing-mode:lr-tb;fill:#000000;fill-opacity:1;fill-rule:nonzero;stroke:none"
           id="text72"><tspan
             x="0"
             y="0"
             id="tspan70">=</tspan></text></g><g
         id="g74"
         transform="scale(4.16667)"><text
           transform="matrix(1,0,0,-1,193.92,769.44)"
           style="font-variant:normal;font-weight:bold;font-size:10.08px;font-family:'Courier New';-inkscape-font-specification:'CourierNew Bold';writing-mode:lr-tb;fill:#8000ff;fill-opacity:1;fill-rule:nonzero;stroke:none"
           id="text78"><tspan
             x="0 6.0479999 12.096 18.143999 24.191999 30.24 36.287998 42.335999 48.383999 54.431999 60.48"
             y="0"
             sodipodi:role="line"
             id="tspan76">&quot;xs:string&quot;</tspan></text></g><g
         id="g80"
         transform="scale(4.16667)"><text
           transform="matrix(1,0,0,-1,265.92,769.44)"
           style="font-variant:normal;font-weight:normal;font-size:10.08px;font-family:'Courier New';-inkscape-font-specification:CourierNew;writing-mode:lr-tb;fill:#0000ff;fill-opacity:1;fill-rule:nonzero;stroke:none"
           id="text84"><tspan
             x="0 6.0479999"
             y="0"
             sodipodi:role="line"
             id="tspan82">/&gt;</tspan></text></g><path
         d="m 333,3144 h 25 v 49 h -25 z"
         style="fill:#ffffff;fill-opacity:1;fill-rule:nonzero;stroke:none"
         id="path88" /><path
         d="m 358,3144 h 100 v 49 H 358 Z"
         style="fill:#ffffff;fill-opacity:1;fill-rule:nonzero;stroke:none"
         id="path90" /><path
         d="m 458,3144 h 25 v 49 h -25 z"
         style="fill:#ffffff;fill-opacity:1;fill-rule:nonzero;stroke:none"
         id="path92" /><path
         d="m 483,3144 h 150 v 49 H 483 Z"
         style="fill:#ffffff;fill-opacity:1;fill-rule:nonzero;stroke:none"
         id="path94" /><path
         d="m 633,3144 h 25 v 49 h -25 z"
         style="fill:#ffffff;fill-opacity:1;fill-rule:nonzero;stroke:none"
         id="path96" /><path
         d="m 658,3144 h 100 v 49 H 658 Z"
         style="fill:#ffffff;fill-opacity:1;fill-rule:nonzero;stroke:none"
         id="path98" /><path
         d="m 758,3144 h 25 v 49 h -25 z"
         style="fill:#ffffff;fill-opacity:1;fill-rule:nonzero;stroke:none"
         id="path100" /><path
         d="m 783,3144 h 300 v 49 H 783 Z"
         style="fill:#ffffff;fill-opacity:1;fill-rule:nonzero;stroke:none"
         id="path102" /><path
         d="m 1083,3144 h 25 v 49 h -25 z"
         style="fill:#ffffff;fill-opacity:1;fill-rule:nonzero;stroke:none"
         id="path104" /><path
         d="m 1108,3144 h 50 v 49 h -50 z"
         style="fill:#ffffff;fill-opacity:1;fill-rule:nonzero;stroke:none"
         id="path106" /><g
         id="g112"
         transform="scale(4.16667)"><text
           transform="matrix(1,0,0,-1,13.92,757.68)"
           style="font-variant:normal;font-weight:normal;font-size:10.08px;font-family:'Courier New';-inkscape-font-specification:CourierNew;writing-mode:lr-tb;fill:#0000ff;fill-opacity:1;fill-rule:nonzero;stroke:none"
           id="text116"><tspan
             x="0 6.0479999 12.096 18.143999 24.191999 30.24 36.287998 42.335999 48.383999 54.431999 60.48"
             y="0"
             sodipodi:role="line"
             id="tspan114">&lt;xs:element</tspan></text></g><g
         id="g118"
         transform="scale(4.16667)"><text
           transform="matrix(1,0,0,-1,85.92,757.68)"
           style="font-variant:normal;font-weight:normal;font-size:10.08px;font-family:'Courier New';-inkscape-font-specification:CourierNew;writing-mode:lr-tb;fill:#ff0000;fill-opacity:1;fill-rule:nonzero;stroke:none"
           id="text122"><tspan
             x="0 6.0479999 12.096 18.143999"
             y="0"
             sodipodi:role="line"
             id="tspan120">name</tspan></text></g><g
         id="g124"
         transform="scale(4.16667)"><text
           transform="matrix(1,0,0,-1,109.92,757.68)"
           style="font-variant:normal;font-weight:normal;font-size:10.08px;font-family:'Courier New';-inkscape-font-specification:CourierNew;writing-mode:lr-tb;fill:#000000;fill-opacity:1;fill-rule:nonzero;stroke:none"
           id="text128"><tspan
             x="0"
             y="0"
             id="tspan126">=</tspan></text></g><g
         id="g130"
         transform="scale(4.16667)"><text
           transform="matrix(1,0,0,-1,115.92,757.68)"
           style="font-variant:normal;font-weight:bold;font-size:10.08px;font-family:'Courier New';-inkscape-font-specification:'CourierNew Bold';writing-mode:lr-tb;fill:#8000ff;fill-opacity:1;fill-rule:nonzero;stroke:none"
           id="text134"><tspan
             x="0 6.0479999 12.096 18.143999 24.191999 30.24"
             y="0"
             sodipodi:role="line"
             id="tspan132">&quot;ISBN&quot;</tspan></text></g><g
         id="g136"
         transform="scale(4.16667)"><text
           transform="matrix(1,0,0,-1,157.92,757.68)"
           style="font-variant:normal;font-weight:normal;font-size:10.08px;font-family:'Courier New';-inkscape-font-specification:CourierNew;writing-mode:lr-tb;fill:#ff0000;fill-opacity:1;fill-rule:nonzero;stroke:none"
           id="text140"><tspan
             x="0 6.0479999 12.096 18.143999"
             y="0"
             sodipodi:role="line"
             id="tspan138">type</tspan></text></g><g
         id="g142"
         transform="scale(4.16667)"><text
           transform="matrix(1,0,0,-1,181.92,757.68)"
           style="font-variant:normal;font-weight:normal;font-size:10.08px;font-family:'Courier New';-inkscape-font-specification:CourierNew;writing-mode:lr-tb;fill:#000000;fill-opacity:1;fill-rule:nonzero;stroke:none"
           id="text146"><tspan
             x="0"
             y="0"
             id="tspan144">=</tspan></text></g><g
         id="g148"
         transform="scale(4.16667)"><text
           transform="matrix(1,0,0,-1,187.92,757.68)"
           style="font-variant:normal;font-weight:bold;font-size:10.08px;font-family:'Courier New';-inkscape-font-specification:'CourierNew Bold';writing-mode:lr-tb;fill:#8000ff;fill-opacity:1;fill-rule:nonzero;stroke:none"
           id="text152"><tspan
             x="0 6.0479999 12.096 18.143999 24.191999 30.24 36.287998 42.335999 48.383999 54.431999 60.48 66.528"
             y="0"
             sodipodi:role="line"
             id="tspan150">&quot;xs:integer&quot;</tspan></text></g><g
         id="g154"
         transform="scale(4.16667)"><text
           transform="matrix(1,0,0,-1,265.92,757.68)"
           style="font-variant:normal;font-weight:normal;font-size:10.08px;font-family:'Courier New';-inkscape-font-specification:CourierNew;writing-mode:lr-tb;fill:#0000ff;fill-opacity:1;fill-rule:nonzero;stroke:none"
           id="text158"><tspan
             x="0 6.0479999"
             y="0"
             sodipodi:role="line"
             id="tspan156">/&gt;</tspan></text></g><path
         d="m 333,3095 h 25 v 49 h -25 z"
         style="fill:#ffffff;fill-opacity:1;fill-rule:nonzero;stroke:none"
         id="path162" /><path
         d="m 358,3095 h 100 v 49 H 358 Z"
         style="fill:#ffffff;fill-opacity:1;fill-rule:nonzero;stroke:none"
         id="path164" /><path
         d="m 458,3095 h 25 v 49 h -25 z"
         style="fill:#ffffff;fill-opacity:1;fill-rule:nonzero;stroke:none"
         id="path166" /><path
         d="m 483,3095 h 200 v 49 H 483 Z"
         style="fill:#ffffff;fill-opacity:1;fill-rule:nonzero;stroke:none"
         id="path168" /><path
         d="m 683,3095 h 25 v 49 h -25 z"
         style="fill:#ffffff;fill-opacity:1;fill-rule:nonzero;stroke:none"
         id="path170" /><path
         d="m 708,3095 h 100 v 49 H 708 Z"
         style="fill:#ffffff;fill-opacity:1;fill-rule:nonzero;stroke:none"
         id="path172" /><path
         d="m 808,3095 h 25 v 49 h -25 z"
         style="fill:#ffffff;fill-opacity:1;fill-rule:nonzero;stroke:none"
         id="path174" /><path
         d="m 833,3095 h 275 v 49 H 833 Z"
         style="fill:#ffffff;fill-opacity:1;fill-rule:nonzero;stroke:none"
         id="path176" /><path
         d="m 1108,3095 h 50 v 49 h -50 z"
         style="fill:#ffffff;fill-opacity:1;fill-rule:nonzero;stroke:none"
         id="path178" /><g
         id="g184"
         transform="scale(4.16667)"><text
           transform="matrix(1,0,0,-1,13.92,745.92)"
           style="font-variant:normal;font-weight:normal;font-size:10.08px;font-family:'Courier New';-inkscape-font-specification:CourierNew;writing-mode:lr-tb;fill:#0000ff;fill-opacity:1;fill-rule:nonzero;stroke:none"
           id="text188"><tspan
             x="0 6.0479999 12.096 18.143999 24.191999 30.24 36.287998 42.335999 48.383999 54.431999 60.48"
             y="0"
             sodipodi:role="line"
             id="tspan186">&lt;xs:element</tspan></text></g><g
         id="g190"
         transform="scale(4.16667)"><text
           transform="matrix(1,0,0,-1,85.92,745.92)"
           style="font-variant:normal;font-weight:normal;font-size:10.08px;font-family:'Courier New';-inkscape-font-specification:CourierNew;writing-mode:lr-tb;fill:#ff0000;fill-opacity:1;fill-rule:nonzero;stroke:none"
           id="text194"><tspan
             x="0 6.0479999 12.096 18.143999"
             y="0"
             sodipodi:role="line"
             id="tspan192">name</tspan></text></g><g
         id="g196"
         transform="scale(4.16667)"><text
           transform="matrix(1,0,0,-1,109.92,745.92)"
           style="font-variant:normal;font-weight:normal;font-size:10.08px;font-family:'Courier New';-inkscape-font-specification:CourierNew;writing-mode:lr-tb;fill:#000000;fill-opacity:1;fill-rule:nonzero;stroke:none"
           id="text200"><tspan
             x="0"
             y="0"
             id="tspan198">=</tspan></text></g><g
         id="g202"
         transform="scale(4.16667)"><text
           transform="matrix(1,0,0,-1,115.92,745.92)"
           style="font-variant:normal;font-weight:bold;font-size:10.08px;font-family:'Courier New';-inkscape-font-specification:'CourierNew Bold';writing-mode:lr-tb;fill:#8000ff;fill-opacity:1;fill-rule:nonzero;stroke:none"
           id="text206"><tspan
             x="0 6.0479999 12.096 18.143999 24.191999 30.24 36.287998 42.335999"
             y="0"
             sodipodi:role="line"
             id="tspan204">&quot;author&quot;</tspan></text></g><g
         id="g208"
         transform="scale(4.16667)"><text
           transform="matrix(1,0,0,-1,169.92,745.92)"
           style="font-variant:normal;font-weight:normal;font-size:10.08px;font-family:'Courier New';-inkscape-font-specification:CourierNew;writing-mode:lr-tb;fill:#ff0000;fill-opacity:1;fill-rule:nonzero;stroke:none"
           id="text212"><tspan
             x="0 6.0479999 12.096 18.143999"
             y="0"
             sodipodi:role="line"
             id="tspan210">type</tspan></text></g><g
         id="g214"
         transform="scale(4.16667)"><text
           transform="matrix(1,0,0,-1,193.92,745.92)"
           style="font-variant:normal;font-weight:normal;font-size:10.08px;font-family:'Courier New';-inkscape-font-specification:CourierNew;writing-mode:lr-tb;fill:#000000;fill-opacity:1;fill-rule:nonzero;stroke:none"
           id="text218"><tspan
             x="0"
             y="0"
             id="tspan216">=</tspan></text></g><g
         id="g220"
         transform="scale(4.16667)"><text
           transform="matrix(1,0,0,-1,199.92,745.92)"
           style="font-variant:normal;font-weight:bold;font-size:10.08px;font-family:'Courier New';-inkscape-font-specification:'CourierNew Bold';writing-mode:lr-tb;fill:#8000ff;fill-opacity:1;fill-rule:nonzero;stroke:none"
           id="text224"><tspan
             x="0 6.0479999 12.096 18.143999 24.191999 30.24 36.287998 42.335999 48.383999 54.431999 60.48"
             y="0"
             sodipodi:role="line"
             id="tspan222">&quot;xs:string&quot;</tspan></text></g><g
         id="g226"
         transform="scale(4.16667)"><text
           transform="matrix(1,0,0,-1,265.92,745.92)"
           style="font-variant:normal;font-weight:normal;font-size:10.08px;font-family:'Courier New';-inkscape-font-specification:CourierNew;writing-mode:lr-tb;fill:#0000ff;fill-opacity:1;fill-rule:nonzero;stroke:none"
           id="text230"><tspan
             x="0 6.0479999"
             y="0"
             sodipodi:role="line"
             id="tspan228">/&gt;</tspan></text></g><path
         d="m 333,3046 h 25 v 49 h -25 z"
         style="fill:#ffffff;fill-opacity:1;fill-rule:nonzero;stroke:none"
         id="path234" /><path
         d="m 358,3046 h 100 v 49 H 358 Z"
         style="fill:#ffffff;fill-opacity:1;fill-rule:nonzero;stroke:none"
         id="path236" /><path
         d="m 458,3046 h 25 v 49 h -25 z"
         style="fill:#ffffff;fill-opacity:1;fill-rule:nonzero;stroke:none"
         id="path238" /><path
         d="m 483,3046 h 175 v 49 H 483 Z"
         style="fill:#ffffff;fill-opacity:1;fill-rule:nonzero;stroke:none"
         id="path240" /><path
         d="m 658,3046 h 25 v 49 h -25 z"
         style="fill:#ffffff;fill-opacity:1;fill-rule:nonzero;stroke:none"
         id="path242" /><path
         d="m 683,3046 h 100 v 49 H 683 Z"
         style="fill:#ffffff;fill-opacity:1;fill-rule:nonzero;stroke:none"
         id="path244" /><path
         d="m 783,3046 h 25 v 49 h -25 z"
         style="fill:#ffffff;fill-opacity:1;fill-rule:nonzero;stroke:none"
         id="path246" /><path
         d="m 808,3046 h 300 v 49 H 808 Z"
         style="fill:#ffffff;fill-opacity:1;fill-rule:nonzero;stroke:none"
         id="path248" /><path
         d="m 1133,3046 h 50 v 49 h -50 z"
         style="fill:#ffffff;fill-opacity:1;fill-rule:nonzero;stroke:none"
         id="path252" /><g
         id="g258"
         transform="scale(4.16667)"><text
           transform="matrix(1,0,0,-1,13.92,734.16)"
           style="font-variant:normal;font-weight:normal;font-size:10.08px;font-family:'Courier New';-inkscape-font-specification:CourierNew;writing-mode:lr-tb;fill:#0000ff;fill-opacity:1;fill-rule:nonzero;stroke:none"
           id="text262"><tspan
             x="0 6.0479999 12.096 18.143999 24.191999 30.24 36.287998 42.335999 48.383999 54.431999 60.48"
             y="0"
             sodipodi:role="line"
             id="tspan260">&lt;xs:element</tspan></text></g><g
         id="g264"
         transform="scale(4.16667)"><text
           transform="matrix(1,0,0,-1,85.92,734.16)"
           style="font-variant:normal;font-weight:normal;font-size:10.08px;font-family:'Courier New';-inkscape-font-specification:CourierNew;writing-mode:lr-tb;fill:#ff0000;fill-opacity:1;fill-rule:nonzero;stroke:none"
           id="text268"><tspan
             x="0 6.0479999 12.096 18.143999"
             y="0"
             sodipodi:role="line"
             id="tspan266">name</tspan></text></g><g
         id="g270"
         transform="scale(4.16667)"><text
           transform="matrix(1,0,0,-1,109.92,734.16)"
           style="font-variant:normal;font-weight:normal;font-size:10.08px;font-family:'Courier New';-inkscape-font-specification:CourierNew;writing-mode:lr-tb;fill:#000000;fill-opacity:1;fill-rule:nonzero;stroke:none"
           id="text274"><tspan
             x="0"
             y="0"
             id="tspan272">=</tspan></text></g><g
         id="g276"
         transform="scale(4.16667)"><text
           transform="matrix(1,0,0,-1,115.92,734.16)"
           style="font-variant:normal;font-weight:bold;font-size:10.08px;font-family:'Courier New';-inkscape-font-specification:'CourierNew Bold';writing-mode:lr-tb;fill:#8000ff;fill-opacity:1;fill-rule:nonzero;stroke:none"
           id="text280"><tspan
             x="0 6.0479999 12.096 18.143999 24.191999 30.24 36.287998"
             y="0"
             sodipodi:role="line"
             id="tspan278">&quot;price&quot;</tspan></text></g><g
         id="g282"
         transform="scale(4.16667)"><text
           transform="matrix(1,0,0,-1,163.92,734.16)"
           style="font-variant:normal;font-weight:normal;font-size:10.08px;font-family:'Courier New';-inkscape-font-specification:CourierNew;writing-mode:lr-tb;fill:#ff0000;fill-opacity:1;fill-rule:nonzero;stroke:none"
           id="text286"><tspan
             x="0 6.0479999 12.096 18.143999"
             y="0"
             sodipodi:role="line"
             id="tspan284">type</tspan></text></g><g
         id="g288"
         transform="scale(4.16667)"><text
           transform="matrix(1,0,0,-1,187.92,734.16)"
           style="font-variant:normal;font-weight:normal;font-size:10.08px;font-family:'Courier New';-inkscape-font-specification:CourierNew;writing-mode:lr-tb;fill:#000000;fill-opacity:1;fill-rule:nonzero;stroke:none"
           id="text292"><tspan
             x="0"
             y="0"
             id="tspan290">=</tspan></text></g><g
         id="g294"
         transform="scale(4.16667)"><text
           transform="matrix(1,0,0,-1,193.92,734.16)"
           style="font-variant:normal;font-weight:bold;font-size:10.08px;font-family:'Courier New';-inkscape-font-specification:'CourierNew Bold';writing-mode:lr-tb;fill:#8000ff;fill-opacity:1;fill-rule:nonzero;stroke:none"
           id="text298"><tspan
             x="0 6.0479999 12.096 18.143999 24.191999 30.24 36.287998 42.335999 48.383999 54.431999 60.48 66.528"
             y="0"
             sodipodi:role="line"
             id="tspan296">&quot;xs:decimal&quot;</tspan></text></g><g
         id="g300"
         transform="scale(4.16667)"><text
           transform="matrix(1,0,0,-1,271.92,734.16)"
           style="font-variant:normal;font-weight:normal;font-size:10.08px;font-family:'Courier New';-inkscape-font-specification:CourierNew;writing-mode:lr-tb;fill:#0000ff;fill-opacity:1;fill-rule:nonzero;stroke:none"
           id="text304"><tspan
             x="0 6.0479999"
             y="0"
             sodipodi:role="line"
             id="tspan302">/&gt;</tspan></text></g></g></g></svg>
