<?xml version="1.0" encoding="UTF-8" standalone="no"?>
<!-- Created with Inkscape (http://www.inkscape.org/) -->

<svg
   version="1.1"
   id="svg2"
   xml:space="preserve"
   width="382.84335"
   height="121.08041"
   viewBox="0 0 382.84335 121.08041"
   sodipodi:docname="xsd_elements_containing_other_elements_and_text.svg"
   inkscape:version="1.1.1 (3bf5ae0d25, 2021-09-20)"
   xmlns:inkscape="http://www.inkscape.org/namespaces/inkscape"
   xmlns:sodipodi="http://sodipodi.sourceforge.net/DTD/sodipodi-0.dtd"
   xmlns="http://www.w3.org/2000/svg"
   xmlns:svg="http://www.w3.org/2000/svg"><defs
     id="defs6" /><sodipodi:namedview
     id="namedview4"
     pagecolor="#ffffff"
     bordercolor="#666666"
     borderopacity="1.0"
     inkscape:pageshadow="2"
     inkscape:pageopacity="0.0"
     inkscape:pagecheckerboard="0"
     showgrid="false"
     inkscape:zoom="2.0115045"
     inkscape:cx="246.83017"
     inkscape:cy="111.85657"
     inkscape:window-width="1862"
     inkscape:window-height="936"
     inkscape:window-x="-8"
     inkscape:window-y="-8"
     inkscape:window-maximized="1"
     inkscape:current-layer="g10" /><g
     id="g8"
     inkscape:groupmode="layer"
     inkscape:label="C__Users_Behnam_Desktop_tmp"
     transform="matrix(1.3333333,0,0,-1.3333333,-19.20314,1034.4324)"><g
       id="g10"
       transform="scale(0.24)"><g
         id="g36"
         transform="scale(4.16667)"><text
           transform="matrix(1,0,0,-1,13.92,769.44)"
           style="font-variant:normal;font-weight:normal;font-size:10.08px;font-family:'Courier New';-inkscape-font-specification:CourierNew;writing-mode:lr-tb;fill:#0000ff;fill-opacity:1;fill-rule:nonzero;stroke:none"
           id="text40"><tspan
             x="0 6.0479999 12.096 18.143999 24.191999 30.24 36.287998 42.335999 48.383999 54.431999 60.48 66.528 72.575996 78.624001 84.671997"
             y="0"
             sodipodi:role="line"
             id="tspan38">&lt;xs:complexType</tspan></text></g><g
         id="g42"
         transform="scale(4.16667)"><text
           transform="matrix(1,0,0,-1,109.92,769.44)"
           style="font-variant:normal;font-weight:normal;font-size:10.08px;font-family:'Courier New';-inkscape-font-specification:CourierNew;writing-mode:lr-tb;fill:#ff0000;fill-opacity:1;fill-rule:nonzero;stroke:none"
           id="text46"><tspan
             x="0 6.0479999 12.096 18.143999"
             y="0"
             sodipodi:role="line"
             id="tspan44">name</tspan></text></g><g
         id="g48"
         transform="scale(4.16667)"><text
           transform="matrix(1,0,0,-1,133.92,769.44)"
           style="font-variant:normal;font-weight:normal;font-size:10.08px;font-family:'Courier New';-inkscape-font-specification:CourierNew;writing-mode:lr-tb;fill:#000000;fill-opacity:1;fill-rule:nonzero;stroke:none"
           id="text52"><tspan
             x="0"
             y="0"
             id="tspan50">=</tspan></text></g><g
         id="g54"
         transform="scale(4.16667)"><text
           transform="matrix(1,0,0,-1,139.92,769.44)"
           style="font-variant:normal;font-weight:bold;font-size:10.08px;font-family:'Courier New';-inkscape-font-specification:'CourierNew Bold';writing-mode:lr-tb;fill:#8000ff;fill-opacity:1;fill-rule:nonzero;stroke:none"
           id="text58"><tspan
             x="0 6.0479999 12.096 18.143999 24.191999 30.24 36.287998 42.335999 48.383999 54.431999 60.48"
             y="0"
             sodipodi:role="line"
             id="tspan56">&quot;eventType&quot;</tspan></text></g><g
         id="g60"
         transform="scale(4.16667)"><text
           transform="matrix(1,0,0,-1,211.92,769.44)"
           style="font-variant:normal;font-weight:normal;font-size:10.08px;font-family:'Courier New';-inkscape-font-specification:CourierNew;writing-mode:lr-tb;fill:#ff0000;fill-opacity:1;fill-rule:nonzero;stroke:none"
           id="text64"><tspan
             x="0 6.0479999 12.096 18.143999 24.191999"
             y="0"
             sodipodi:role="line"
             id="tspan62">mixed</tspan></text></g><g
         id="g66"
         transform="scale(4.16667)"><text
           transform="matrix(1,0,0,-1,241.92,769.44)"
           style="font-variant:normal;font-weight:normal;font-size:10.08px;font-family:'Courier New';-inkscape-font-specification:CourierNew;writing-mode:lr-tb;fill:#000000;fill-opacity:1;fill-rule:nonzero;stroke:none"
           id="text70"><tspan
             x="0"
             y="0"
             id="tspan68">=</tspan></text></g><g
         id="g72"
         transform="scale(4.16667)"><text
           transform="matrix(1,0,0,-1,247.92,769.44)"
           style="font-variant:normal;font-weight:bold;font-size:10.08px;font-family:'Courier New';-inkscape-font-specification:'CourierNew Bold';writing-mode:lr-tb;fill:#8000ff;fill-opacity:1;fill-rule:nonzero;stroke:none"
           id="text76"><tspan
             x="0 6.0479999 12.096 18.143999 24.191999 30.24"
             y="0"
             sodipodi:role="line"
             id="tspan74">&quot;true&quot;</tspan></text></g><g
         id="g78"
         transform="scale(4.16667)"><text
           transform="matrix(1,0,0,-1,283.92,769.44)"
           style="font-variant:normal;font-weight:normal;font-size:10.08px;font-family:'Courier New';-inkscape-font-specification:CourierNew;writing-mode:lr-tb;fill:#0000ff;fill-opacity:1;fill-rule:nonzero;stroke:none"
           id="text82"><tspan
             x="0"
             y="0"
             id="tspan80">&gt;</tspan></text></g><g
         id="g92"
         transform="scale(4.16667)"><text
           transform="matrix(1,0,0,-1,25.92,757.68)"
           style="font-variant:normal;font-weight:normal;font-size:10.08px;font-family:'Courier New';-inkscape-font-specification:CourierNew;writing-mode:lr-tb;fill:#0000ff;fill-opacity:1;fill-rule:nonzero;stroke:none"
           id="text96"><tspan
             x="0 6.0479999 12.096 18.143999 24.191999 30.24 36.287998 42.335999 48.383999 54.431999 60.48 66.528 72.575996"
             y="0"
             sodipodi:role="line"
             id="tspan94">&lt;xs:sequence&gt;</tspan></text></g><g
         id="g124"
         transform="scale(4.16667)"><text
           transform="matrix(1,0,0,-1,37.92,745.92)"
           style="font-variant:normal;font-weight:normal;font-size:10.08px;font-family:'Courier New';-inkscape-font-specification:CourierNew;writing-mode:lr-tb;fill:#0000ff;fill-opacity:1;fill-rule:nonzero;stroke:none"
           id="text128"><tspan
             x="0 6.0479999 12.096 18.143999 24.191999 30.24 36.287998 42.335999 48.383999 54.431999 60.48"
             y="0"
             sodipodi:role="line"
             id="tspan126">&lt;xs:element</tspan></text></g><g
         id="g130"
         transform="scale(4.16667)"><text
           transform="matrix(1,0,0,-1,109.92,745.92)"
           style="font-variant:normal;font-weight:normal;font-size:10.08px;font-family:'Courier New';-inkscape-font-specification:CourierNew;writing-mode:lr-tb;fill:#ff0000;fill-opacity:1;fill-rule:nonzero;stroke:none"
           id="text134"><tspan
             x="0 6.0479999 12.096 18.143999"
             y="0"
             sodipodi:role="line"
             id="tspan132">name</tspan></text></g><g
         id="g136"
         transform="scale(4.16667)"><text
           transform="matrix(1,0,0,-1,133.92,745.92)"
           style="font-variant:normal;font-weight:normal;font-size:10.08px;font-family:'Courier New';-inkscape-font-specification:CourierNew;writing-mode:lr-tb;fill:#000000;fill-opacity:1;fill-rule:nonzero;stroke:none"
           id="text140"><tspan
             x="0"
             y="0"
             id="tspan138">=</tspan></text></g><g
         id="g142"
         transform="scale(4.16667)"><text
           transform="matrix(1,0,0,-1,139.92,745.92)"
           style="font-variant:normal;font-weight:bold;font-size:10.08px;font-family:'Courier New';-inkscape-font-specification:'CourierNew Bold';writing-mode:lr-tb;fill:#8000ff;fill-opacity:1;fill-rule:nonzero;stroke:none"
           id="text146"><tspan
             x="0 6.0479999 12.096 18.143999 24.191999 30.24 36.287998 42.335999 48.383999 54.431999"
             y="0"
             sodipodi:role="line"
             id="tspan144">&quot;shipdate&quot;</tspan></text></g><g
         id="g148"
         transform="scale(4.16667)"><text
           transform="matrix(1,0,0,-1,205.92,745.92)"
           style="font-variant:normal;font-weight:normal;font-size:10.08px;font-family:'Courier New';-inkscape-font-specification:CourierNew;writing-mode:lr-tb;fill:#ff0000;fill-opacity:1;fill-rule:nonzero;stroke:none"
           id="text152"><tspan
             x="0 6.0479999 12.096 18.143999"
             y="0"
             sodipodi:role="line"
             id="tspan150">type</tspan></text></g><g
         id="g154"
         transform="scale(4.16667)"><text
           transform="matrix(1,0,0,-1,229.92,745.92)"
           style="font-variant:normal;font-weight:normal;font-size:10.08px;font-family:'Courier New';-inkscape-font-specification:CourierNew;writing-mode:lr-tb;fill:#000000;fill-opacity:1;fill-rule:nonzero;stroke:none"
           id="text158"><tspan
             x="0"
             y="0"
             id="tspan156">=</tspan></text></g><g
         id="g160"
         transform="scale(4.16667)"><text
           transform="matrix(1,0,0,-1,235.92,745.92)"
           style="font-variant:normal;font-weight:bold;font-size:10.08px;font-family:'Courier New';-inkscape-font-specification:'CourierNew Bold';writing-mode:lr-tb;fill:#8000ff;fill-opacity:1;fill-rule:nonzero;stroke:none"
           id="text164"><tspan
             x="0 6.0479999 12.096 18.143999 24.191999 30.24 36.287998 42.335999 48.383999"
             y="0"
             sodipodi:role="line"
             id="tspan162">&quot;xs:date&quot;</tspan></text></g><g
         id="g166"
         transform="scale(4.16667)"><text
           transform="matrix(1,0,0,-1,289.92,745.92)"
           style="font-variant:normal;font-weight:normal;font-size:10.08px;font-family:'Courier New';-inkscape-font-specification:CourierNew;writing-mode:lr-tb;fill:#0000ff;fill-opacity:1;fill-rule:nonzero;stroke:none"
           id="text170"><tspan
             x="0 6.0479999"
             y="0"
             sodipodi:role="line"
             id="tspan168">/&gt;</tspan></text></g><g
         id="g198"
         transform="scale(4.16667)"><text
           transform="matrix(1,0,0,-1,37.92,734.16)"
           style="font-variant:normal;font-weight:normal;font-size:10.08px;font-family:'Courier New';-inkscape-font-specification:CourierNew;writing-mode:lr-tb;fill:#0000ff;fill-opacity:1;fill-rule:nonzero;stroke:none"
           id="text202"><tspan
             x="0 6.0479999 12.096 18.143999 24.191999 30.24 36.287998 42.335999 48.383999 54.431999 60.48"
             y="0"
             sodipodi:role="line"
             id="tspan200">&lt;xs:element</tspan></text></g><g
         id="g204"
         transform="scale(4.16667)"><text
           transform="matrix(1,0,0,-1,109.92,734.16)"
           style="font-variant:normal;font-weight:normal;font-size:10.08px;font-family:'Courier New';-inkscape-font-specification:CourierNew;writing-mode:lr-tb;fill:#ff0000;fill-opacity:1;fill-rule:nonzero;stroke:none"
           id="text208"><tspan
             x="0 6.0479999 12.096 18.143999"
             y="0"
             sodipodi:role="line"
             id="tspan206">name</tspan></text></g><g
         id="g210"
         transform="scale(4.16667)"><text
           transform="matrix(1,0,0,-1,133.92,734.16)"
           style="font-variant:normal;font-weight:normal;font-size:10.08px;font-family:'Courier New';-inkscape-font-specification:CourierNew;writing-mode:lr-tb;fill:#000000;fill-opacity:1;fill-rule:nonzero;stroke:none"
           id="text214"><tspan
             x="0"
             y="0"
             id="tspan212">=</tspan></text></g><g
         id="g216"
         transform="scale(4.16667)"><text
           transform="matrix(1,0,0,-1,139.92,734.16)"
           style="font-variant:normal;font-weight:bold;font-size:10.08px;font-family:'Courier New';-inkscape-font-specification:'CourierNew Bold';writing-mode:lr-tb;fill:#8000ff;fill-opacity:1;fill-rule:nonzero;stroke:none"
           id="text220"><tspan
             x="0 6.0479999 12.096 18.143999 24.191999 30.24"
             y="0"
             sodipodi:role="line"
             id="tspan218">&quot;name&quot;</tspan></text></g><g
         id="g222"
         transform="scale(4.16667)"><text
           transform="matrix(1,0,0,-1,181.92,734.16)"
           style="font-variant:normal;font-weight:normal;font-size:10.08px;font-family:'Courier New';-inkscape-font-specification:CourierNew;writing-mode:lr-tb;fill:#ff0000;fill-opacity:1;fill-rule:nonzero;stroke:none"
           id="text226"><tspan
             x="0 6.0479999 12.096 18.143999"
             y="0"
             sodipodi:role="line"
             id="tspan224">type</tspan></text></g><g
         id="g228"
         transform="scale(4.16667)"><text
           transform="matrix(1,0,0,-1,205.92,734.16)"
           style="font-variant:normal;font-weight:normal;font-size:10.08px;font-family:'Courier New';-inkscape-font-specification:CourierNew;writing-mode:lr-tb;fill:#000000;fill-opacity:1;fill-rule:nonzero;stroke:none"
           id="text232"><tspan
             x="0"
             y="0"
             id="tspan230">=</tspan></text></g><g
         id="g234"
         transform="scale(4.16667)"><text
           transform="matrix(1,0,0,-1,211.92,734.16)"
           style="font-variant:normal;font-weight:bold;font-size:10.08px;font-family:'Courier New';-inkscape-font-specification:'CourierNew Bold';writing-mode:lr-tb;fill:#8000ff;fill-opacity:1;fill-rule:nonzero;stroke:none"
           id="text238"><tspan
             x="0 6.0479999 12.096 18.143999 24.191999 30.24 36.287998 42.335999 48.383999 54.431999 60.48"
             y="0"
             sodipodi:role="line"
             id="tspan236">&quot;xs:string&quot;</tspan></text></g><g
         id="g240"
         transform="scale(4.16667)"><text
           transform="matrix(1,0,0,-1,277.92,734.16)"
           style="font-variant:normal;font-weight:normal;font-size:10.08px;font-family:'Courier New';-inkscape-font-specification:CourierNew;writing-mode:lr-tb;fill:#0000ff;fill-opacity:1;fill-rule:nonzero;stroke:none"
           id="text244"><tspan
             x="0 6.0479999"
             y="0"
             sodipodi:role="line"
             id="tspan242">/&gt;</tspan></text></g><g
         id="g254"
         transform="scale(4.16667)"><text
           transform="matrix(1,0,0,-1,25.92,722.4)"
           style="font-variant:normal;font-weight:normal;font-size:10.08px;font-family:'Courier New';-inkscape-font-specification:CourierNew;writing-mode:lr-tb;fill:#0000ff;fill-opacity:1;fill-rule:nonzero;stroke:none"
           id="text258"><tspan
             x="0 6.0479999 12.096 18.143999 24.191999 30.24 36.287998 42.335999 48.383999 54.431999 60.48 66.528 72.575996 78.624001"
             y="0"
             sodipodi:role="line"
             id="tspan256">&lt;/xs:sequence&gt;</tspan></text></g><g
         id="g266"
         transform="scale(4.16667)"><text
           transform="matrix(1,0,0,-1,13.92,710.64)"
           style="font-variant:normal;font-weight:normal;font-size:10.08px;font-family:'Courier New';-inkscape-font-specification:CourierNew;writing-mode:lr-tb;fill:#0000ff;fill-opacity:1;fill-rule:nonzero;stroke:none"
           id="text270"><tspan
             x="0 6.0479999 12.096 18.143999 24.191999 30.24 36.287998 42.335999 48.383999 54.431999 60.48 66.528 72.575996 78.624001 84.671997 90.720001 96.767998"
             y="0"
             sodipodi:role="line"
             id="tspan268">&lt;/xs:complexType&gt;</tspan></text></g><g
         id="g300"
         transform="scale(4.16667)"><text
           transform="matrix(1,0,0,-1,13.92,687.12)"
           style="font-variant:normal;font-weight:normal;font-size:10.08px;font-family:'Courier New';-inkscape-font-specification:CourierNew;writing-mode:lr-tb;fill:#0000ff;fill-opacity:1;fill-rule:nonzero;stroke:none"
           id="text304"><tspan
             x="0 6.0479999 12.096 18.143999 24.191999 30.24 36.287998 42.335999 48.383999 54.431999 60.48"
             y="0"
             sodipodi:role="line"
             id="tspan302">&lt;xs:element</tspan></text></g><g
         id="g306"
         transform="scale(4.16667)"><text
           transform="matrix(1,0,0,-1,85.92,687.12)"
           style="font-variant:normal;font-weight:normal;font-size:10.08px;font-family:'Courier New';-inkscape-font-specification:CourierNew;writing-mode:lr-tb;fill:#ff0000;fill-opacity:1;fill-rule:nonzero;stroke:none"
           id="text310"><tspan
             x="0 6.0479999 12.096 18.143999"
             y="0"
             sodipodi:role="line"
             id="tspan308">name</tspan></text></g><g
         id="g312"
         transform="scale(4.16667)"><text
           transform="matrix(1,0,0,-1,109.92,687.12)"
           style="font-variant:normal;font-weight:normal;font-size:10.08px;font-family:'Courier New';-inkscape-font-specification:CourierNew;writing-mode:lr-tb;fill:#000000;fill-opacity:1;fill-rule:nonzero;stroke:none"
           id="text316"><tspan
             x="0"
             y="0"
             id="tspan314">=</tspan></text></g><g
         id="g318"
         transform="scale(4.16667)"><text
           transform="matrix(1,0,0,-1,115.92,687.12)"
           style="font-variant:normal;font-weight:bold;font-size:10.08px;font-family:'Courier New';-inkscape-font-specification:'CourierNew Bold';writing-mode:lr-tb;fill:#8000ff;fill-opacity:1;fill-rule:nonzero;stroke:none"
           id="text322"><tspan
             x="0 6.0479999 12.096 18.143999 24.191999 30.24 36.287998"
             y="0"
             sodipodi:role="line"
             id="tspan320">&quot;event&quot;</tspan></text></g><g
         id="g324"
         transform="scale(4.16667)"><text
           transform="matrix(1,0,0,-1,163.92,687.12)"
           style="font-variant:normal;font-weight:normal;font-size:10.08px;font-family:'Courier New';-inkscape-font-specification:CourierNew;writing-mode:lr-tb;fill:#ff0000;fill-opacity:1;fill-rule:nonzero;stroke:none"
           id="text328"><tspan
             x="0 6.0479999 12.096 18.143999"
             y="0"
             sodipodi:role="line"
             id="tspan326">type</tspan></text></g><g
         id="g330"
         transform="scale(4.16667)"><text
           transform="matrix(1,0,0,-1,187.92,687.12)"
           style="font-variant:normal;font-weight:normal;font-size:10.08px;font-family:'Courier New';-inkscape-font-specification:CourierNew;writing-mode:lr-tb;fill:#000000;fill-opacity:1;fill-rule:nonzero;stroke:none"
           id="text334"><tspan
             x="0"
             y="0"
             id="tspan332">=</tspan></text></g><g
         id="g336"
         transform="scale(4.16667)"><text
           transform="matrix(1,0,0,-1,193.92,687.12)"
           style="font-variant:normal;font-weight:bold;font-size:10.08px;font-family:'Courier New';-inkscape-font-specification:'CourierNew Bold';writing-mode:lr-tb;fill:#8000ff;fill-opacity:1;fill-rule:nonzero;stroke:none"
           id="text340"><tspan
             x="0 6.0479999 12.096 18.143999 24.191999 30.24 36.287998 42.335999 48.383999 54.431999 60.48"
             y="0"
             sodipodi:role="line"
             id="tspan338">&quot;eventType&quot;</tspan></text></g><g
         id="g342"
         transform="scale(4.16667)"><text
           transform="matrix(1,0,0,-1,259.92,687.12)"
           style="font-variant:normal;font-weight:normal;font-size:10.08px;font-family:'Courier New';-inkscape-font-specification:CourierNew;writing-mode:lr-tb;fill:#0000ff;fill-opacity:1;fill-rule:nonzero;stroke:none"
           id="text346"><tspan
             x="0 6.0479999"
             y="0"
             sodipodi:role="line"
             id="tspan344">/&gt;</tspan></text></g></g></g></svg>
