<?xml version="1.0" encoding="UTF-8" standalone="no"?>
<!DOCTYPE svg PUBLIC "-//W3C//DTD SVG 1.1//EN"
 "http://www.w3.org/Graphics/SVG/1.1/DTD/svg11.dtd">
<!-- Generated by graphviz version 2.43.0 (0)
 -->
<!-- Title: G Pages: 1 -->
<svg width="493pt" height="332pt"
 viewBox="0.00 0.00 493.24 332.00" xmlns="http://www.w3.org/2000/svg" xmlns:xlink="http://www.w3.org/1999/xlink">
<g id="graph0" class="graph" transform="scale(1 1) rotate(0) translate(4 328)">
<title>G</title>
<polygon fill="white" stroke="transparent" points="-4,4 -4,-328 489.24,-328 489.24,4 -4,4"/>
<!-- 1 -->
<g id="node1" class="node">
<title>1</title>
<ellipse fill="none" stroke="black" cx="241.79" cy="-306" rx="42.49" ry="18"/>
<text text-anchor="middle" x="241.79" y="-302.3" font-family="Times,serif" font-size="14.00">Ancestor</text>
</g>
<!-- 2 -->
<g id="node2" class="node">
<title>2</title>
<ellipse fill="none" stroke="black" cx="241.79" cy="-234" rx="33.29" ry="18"/>
<text text-anchor="middle" x="241.79" y="-230.3" font-family="Times,serif" font-size="14.00">Parent</text>
</g>
<!-- 1&#45;&gt;2 -->
<g id="edge1" class="edge">
<title>1&#45;&gt;2</title>
<path fill="none" stroke="black" d="M241.79,-287.7C241.79,-279.98 241.79,-270.71 241.79,-262.11"/>
<polygon fill="black" stroke="black" points="245.29,-262.1 241.79,-252.1 238.29,-262.1 245.29,-262.1"/>
</g>
<!-- 3 -->
<g id="node3" class="node">
<title>3</title>
<ellipse fill="none" stroke="black" cx="72.79" cy="-162" rx="72.59" ry="18"/>
<text text-anchor="middle" x="72.79" y="-158.3" font-family="Times,serif" font-size="14.00">Preceding&#45;sibling</text>
</g>
<!-- 2&#45;&gt;3 -->
<g id="edge2" class="edge">
<title>2&#45;&gt;3</title>
<path fill="none" stroke="black" d="M216.13,-222.37C190.1,-211.59 149.3,-194.69 117.87,-181.67"/>
<polygon fill="black" stroke="black" points="119.02,-178.36 108.44,-177.77 116.34,-184.83 119.02,-178.36"/>
</g>
<!-- 4 -->
<g id="node4" class="node">
<title>4</title>
<ellipse fill="none" stroke="black" cx="241.79" cy="-162" rx="78.79" ry="18"/>
<text text-anchor="middle" x="241.79" y="-158.3" font-family="Times,serif" font-size="14.00">Contex Node (self)</text>
</g>
<!-- 2&#45;&gt;4 -->
<g id="edge3" class="edge">
<title>2&#45;&gt;4</title>
<path fill="none" stroke="black" d="M241.79,-215.7C241.79,-207.98 241.79,-198.71 241.79,-190.11"/>
<polygon fill="black" stroke="black" points="245.29,-190.1 241.79,-180.1 238.29,-190.1 245.29,-190.1"/>
</g>
<!-- 5 -->
<g id="node5" class="node">
<title>5</title>
<ellipse fill="none" stroke="black" cx="411.79" cy="-162" rx="73.39" ry="18"/>
<text text-anchor="middle" x="411.79" y="-158.3" font-family="Times,serif" font-size="14.00">Following&#45;sibling</text>
</g>
<!-- 2&#45;&gt;5 -->
<g id="edge4" class="edge">
<title>2&#45;&gt;5</title>
<path fill="none" stroke="black" d="M267.61,-222.37C293.79,-211.59 334.84,-194.69 366.45,-181.67"/>
<polygon fill="black" stroke="black" points="368.02,-184.81 375.93,-177.77 365.35,-178.34 368.02,-184.81"/>
</g>
<!-- 6 -->
<g id="node6" class="node">
<title>6</title>
<ellipse fill="none" stroke="black" cx="241.79" cy="-90" rx="30.59" ry="18"/>
<text text-anchor="middle" x="241.79" y="-86.3" font-family="Times,serif" font-size="14.00">Child</text>
</g>
<!-- 4&#45;&gt;6 -->
<g id="edge5" class="edge">
<title>4&#45;&gt;6</title>
<path fill="none" stroke="black" d="M241.79,-143.7C241.79,-135.98 241.79,-126.71 241.79,-118.11"/>
<polygon fill="black" stroke="black" points="245.29,-118.1 241.79,-108.1 238.29,-118.1 245.29,-118.1"/>
</g>
<!-- 7 -->
<g id="node7" class="node">
<title>7</title>
<ellipse fill="none" stroke="black" cx="241.79" cy="-18" rx="48.19" ry="18"/>
<text text-anchor="middle" x="241.79" y="-14.3" font-family="Times,serif" font-size="14.00">Desendent</text>
</g>
<!-- 6&#45;&gt;7 -->
<g id="edge6" class="edge">
<title>6&#45;&gt;7</title>
<path fill="none" stroke="black" d="M241.79,-71.7C241.79,-63.98 241.79,-54.71 241.79,-46.11"/>
<polygon fill="black" stroke="black" points="245.29,-46.1 241.79,-36.1 238.29,-46.1 245.29,-46.1"/>
</g>
</g>
</svg>
