<?xml version="1.0" encoding="UTF-8" standalone="no"?>
<!DOCTYPE svg PUBLIC "-//W3C//DTD SVG 1.1//EN"
 "http://www.w3.org/Graphics/SVG/1.1/DTD/svg11.dtd">
<!-- Generated by graphviz version 2.43.0 (0)
 -->
<!-- Title: G Pages: 1 -->
<svg width="440pt" height="188pt"
 viewBox="0.00 0.00 439.60 188.00" xmlns="http://www.w3.org/2000/svg" xmlns:xlink="http://www.w3.org/1999/xlink">
<g id="graph0" class="graph" transform="scale(1 1) rotate(0) translate(4 184)">
<title>G</title>
<polygon fill="white" stroke="transparent" points="-4,4 -4,-184 435.6,-184 435.6,4 -4,4"/>
<!-- 1 -->
<g id="node1" class="node">
<title>1</title>
<ellipse fill="none" stroke="black" cx="199" cy="-162" rx="47.39" ry="18"/>
<text text-anchor="middle" x="199" y="-158.3" font-family="Times,serif" font-size="14.00">mediatech</text>
</g>
<!-- 2 -->
<g id="node2" class="node">
<title>2</title>
<ellipse fill="none" stroke="black" cx="159" cy="-90" rx="33.29" ry="18"/>
<text text-anchor="middle" x="159" y="-86.3" font-family="Times,serif" font-size="14.00">movie</text>
</g>
<!-- 1&#45;&gt;2 -->
<g id="edge1" class="edge">
<title>1&#45;&gt;2</title>
<path fill="none" stroke="black" d="M189.32,-144.05C184.53,-135.68 178.66,-125.4 173.36,-116.13"/>
<polygon fill="black" stroke="black" points="176.32,-114.25 168.32,-107.31 170.24,-117.73 176.32,-114.25"/>
</g>
<!-- 6 -->
<g id="node6" class="node">
<title>6</title>
<ellipse fill="none" stroke="black" cx="277" cy="-90" rx="28.7" ry="18"/>
<text text-anchor="middle" x="277" y="-86.3" font-family="Times,serif" font-size="14.00">book</text>
</g>
<!-- 1&#45;&gt;6 -->
<g id="edge5" class="edge">
<title>1&#45;&gt;6</title>
<path fill="none" stroke="black" d="M216.7,-145.12C227.58,-135.35 241.66,-122.72 253.47,-112.11"/>
<polygon fill="black" stroke="black" points="256.12,-114.44 261.22,-105.16 251.44,-109.23 256.12,-114.44"/>
</g>
<!-- 3 -->
<g id="node3" class="node">
<title>3</title>
<ellipse fill="none" stroke="black" cx="27" cy="-18" rx="27" ry="18"/>
<text text-anchor="middle" x="27" y="-14.3" font-family="Times,serif" font-size="14.00">title</text>
</g>
<!-- 2&#45;&gt;3 -->
<g id="edge2" class="edge">
<title>2&#45;&gt;3</title>
<path fill="none" stroke="black" d="M136.01,-76.81C113.97,-65.12 80.59,-47.42 56.58,-34.69"/>
<polygon fill="black" stroke="black" points="58.04,-31.5 47.56,-29.9 54.76,-37.68 58.04,-31.5"/>
</g>
<!-- 4 -->
<g id="node4" class="node">
<title>4</title>
<ellipse fill="none" stroke="black" cx="101" cy="-18" rx="28.7" ry="18"/>
<text text-anchor="middle" x="101" y="-14.3" font-family="Times,serif" font-size="14.00">year </text>
</g>
<!-- 2&#45;&gt;4 -->
<g id="edge3" class="edge">
<title>2&#45;&gt;4</title>
<path fill="none" stroke="black" d="M145.84,-73.12C138.24,-63.95 128.56,-52.26 120.13,-42.09"/>
<polygon fill="black" stroke="black" points="122.79,-39.81 113.71,-34.34 117.4,-44.27 122.79,-39.81"/>
</g>
<!-- 5 -->
<g id="node5" class="node">
<title>5</title>
<ellipse fill="none" stroke="black" cx="180" cy="-18" rx="32.49" ry="18"/>
<text text-anchor="middle" x="180" y="-14.3" font-family="Times,serif" font-size="14.00">length</text>
</g>
<!-- 2&#45;&gt;5 -->
<g id="edge4" class="edge">
<title>2&#45;&gt;5</title>
<path fill="none" stroke="black" d="M164.08,-72.05C166.48,-64.06 169.4,-54.33 172.08,-45.4"/>
<polygon fill="black" stroke="black" points="175.44,-46.37 174.96,-35.79 168.74,-44.36 175.44,-46.37"/>
</g>
<!-- 7 -->
<g id="node7" class="node">
<title>7</title>
<ellipse fill="none" stroke="black" cx="257" cy="-18" rx="27" ry="18"/>
<text text-anchor="middle" x="257" y="-14.3" font-family="Times,serif" font-size="14.00">title</text>
</g>
<!-- 6&#45;&gt;7 -->
<g id="edge6" class="edge">
<title>6&#45;&gt;7</title>
<path fill="none" stroke="black" d="M272.16,-72.05C269.9,-64.14 267.15,-54.54 264.63,-45.69"/>
<polygon fill="black" stroke="black" points="267.91,-44.44 261.8,-35.79 261.18,-46.37 267.91,-44.44"/>
</g>
<!-- 8 -->
<g id="node8" class="node">
<title>8</title>
<ellipse fill="none" stroke="black" cx="329" cy="-18" rx="27" ry="18"/>
<text text-anchor="middle" x="329" y="-14.3" font-family="Times,serif" font-size="14.00">year</text>
</g>
<!-- 6&#45;&gt;8 -->
<g id="edge7" class="edge">
<title>6&#45;&gt;8</title>
<path fill="none" stroke="black" d="M288.54,-73.46C295.27,-64.4 303.9,-52.79 311.46,-42.61"/>
<polygon fill="black" stroke="black" points="314.34,-44.61 317.49,-34.49 308.72,-40.43 314.34,-44.61"/>
</g>
<!-- 9 -->
<g id="node9" class="node">
<title>9</title>
<ellipse fill="none" stroke="black" cx="403" cy="-18" rx="28.7" ry="18"/>
<text text-anchor="middle" x="403" y="-14.3" font-family="Times,serif" font-size="14.00">price</text>
</g>
<!-- 6&#45;&gt;9 -->
<g id="edge8" class="edge">
<title>6&#45;&gt;9</title>
<path fill="none" stroke="black" d="M297.81,-77.44C318.42,-65.99 350.18,-48.35 373.41,-35.44"/>
<polygon fill="black" stroke="black" points="375.12,-38.49 382.16,-30.58 371.72,-32.37 375.12,-38.49"/>
</g>
</g>
</svg>
